<svg xmlns="http://www.w3.org/2000/svg">
<defs>
<font id="GTAmerica-Medium" horiz-adv-x="1269" >
  <font-face 
    font-family="GT America Medium"
    font-weight="500"
    font-stretch="normal"
    units-per-em="2048"
    panose-1="0 0 6 0 0 0 0 0 0 0"
    ascent="1608"
    descent="-440"
    x-height="1024"
    cap-height="1454"
    bbox="-891 -492 2460 1964"
    underline-thickness="102"
    underline-position="-307"
    unicode-range="U+000D-FB02"
  />
<missing-glyph horiz-adv-x="2084" 
d="M2044 1358h-1131v-96h1131v-99h-1131v-96h1131v-98h-1131v-97h1131v-96h-1131v-98h1131v-96h-2003v872h2003v-96zM137 1366l27 18h-33l-10 31l-8 -31h-33l26 -18l-10 -31l25 19l26 -19zM291 1384h-33l27 -18l-11 -31l25 21l27 -21l-11 31l25 18h-31l-10 31zM469 1384h-33
l27 -18l-10 -31l24 21l27 -21l-10 31l24 18h-31l-10 31zM645 1384h-31l27 -18l-10 -31l24 21l27 -21l-10 31l24 18h-30l-11 31zM850 1366l24 18h-30l-10 31l-11 -31h-30l24 -18l-8 -31l25 21l26 -21zM201 1294h-31l25 -18l-9 -29l25 19l25 -19l-9 29l25 18h-31l-10 31z
M760 1276l26 18h-32l-9 31l-10 -31h-30l24 -18l-10 -29l26 19l25 -19zM559 745v191h193v164h-193v192h-164v-192h-190v-164h190v-191h164zM137 1188l27 18h-33l-10 29l-8 -29h-33l26 -18l-10 -31l25 19l26 -19zM291 1206h-33l27 -18l-11 -31l25 19l27 -19l-11 31l25 18h-31
l-10 29zM645 1206h-31l27 -18l-10 -31l24 19l27 -19l-10 31l24 18h-30l-11 29zM850 1188l24 18h-30l-10 29l-11 -29h-30l24 -18l-8 -31l25 19l26 -19zM137 1008l27 20h-33l-10 29l-8 -29h-33l26 -20l-10 -29l25 18l26 -18zM850 1008l24 20h-30l-10 29l-11 -29h-30l24 -20
l-8 -29l25 18l26 -18zM137 829l27 19h-33l-10 31l-8 -31h-33l26 -19l-10 -28l25 18l26 -18zM315 829l25 19h-31l-10 31l-8 -31h-33l27 -19l-11 -28l25 18l27 -18zM672 829l24 19h-30l-11 31l-10 -31h-31l27 -19l-10 -28l24 18l27 -18zM850 829l24 19h-30l-10 31l-11 -31h-30
l24 -19l-8 -28l25 18l26 -18zM236 711l-9 30l25 19h-31l-10 28l-10 -28h-31l25 -19l-9 -30l25 18zM770 711l-10 30l26 19h-32l-9 28l-10 -28h-30l24 -19l-10 -30l26 18zM147 621l-10 30l27 19h-33l-10 30l-8 -30h-33l26 -19l-10 -30l25 18zM326 621l-11 30l25 19h-31l-10 30

<glyph glyph-name="fi" unicode="fi" horiz-adv-x="1325" 
d="M709 1024v-178h-248v-846h-246v846h-176v178h176v131q0 160 92 251t256 91q74 0 146 -16v-191q-62 10 -105 10q-73 0 -108 -39.5t-35 -121.5v-115h248zM905 1194v256h266v-256h-266zM918 0v1024h245v-1024h-245z" />
    <glyph glyph-name="fl" unicode="fl" horiz-adv-x="1345" 
d="M709 1024v-178h-248v-846h-246v846h-176v178h176v131q0 160 92 251t256 91q74 0 146 -16v-191q-62 10 -105 10q-73 0 -108 -39.5t-35 -121.5v-115h248zM1174 1485v-1485h-246v1485h246z" />
    <glyph glyph-name="g_g.liga" unicode="gg" horiz-adv-x="2162" 
d="M770 1010q23 83 88.5 134.5t169.5 51.5q30 0 57 -6v-182q-55 10 -88 10q-87 0 -131 -68q111 -94 111 -248q0 -157 -115.5 -251.5t-304.5 -94.5q-120 0 -207 37q-53 -29 -53 -78q0 -96 160 -96h200q189 0 278 -81t89 -218q0 -155 -127 -249.5t-371 -94.5
q-132 0 -234.5 25.5t-167.5 83.5t-65 143q0 73 51.5 126t135.5 81q-148 54 -148 192q0 73 44.5 130t121.5 83q-129 96 -129 262q0 159 116 253t306 94q118 0 213 -39zM2040 1022q-90 0 -137 -72q110 -93 110 -248q0 -158 -116 -253t-304 -95q-104 0 -192 31q-43 -25 -43 -70
q0 -98 172 -98h217q190 0 278.5 -80.5t88.5 -216.5q0 -153 -134 -248.5t-381 -95.5q-131 0 -232.5 25t-166.5 83t-65 144q0 72 48 125t130 80q-154 49 -154 192q0 70 39.5 125t110.5 84q-138 98 -138 268q0 158 116 252.5t306 94.5q123 0 213 -41q24 86 90.5 136t174.5 50
q30 0 57 -6v-176q-55 10 -88 10zM557 506q83 0 135.5 53.5t52.5 142.5q0 91 -52.5 144t-135.5 53q-85 0 -137.5 -53t-52.5 -144q0 -90 53 -143t137 -53zM1593 504q83 0 136 53.5t53 144.5q0 89 -53 143t-136 54q-84 0 -136 -53.5t-52 -143.5q0 -91 52 -144.5t136 -53.5z
M629 8h-207q-46 0 -86 6q-72 -46 -72 -123q0 -155 283 -155q137 0 197.5 37t60.5 110q0 65 -43.5 95t-132.5 30zM1718 6l-223 2q-30 0 -80 4q-78 -46 -78 -123q0 -82 72.5 -117.5t212.5 -35.5q270 0 270 147q0 65 -42.5 94t-131.5 29z" />
    <glyph glyph-name=".notdef" horiz-adv-x="2084" 
d="M2044 1358h-1131v-96h1131v-99h-1131v-96h1131v-98h-1131v-97h1131v-96h-1131v-98h1131v-96h-2003v872h2003v-96zM137 1366l27 18h-33l-10 31l-8 -31h-33l26 -18l-10 -31l25 19l26 -19zM291 1384h-33l27 -18l-11 -31l25 21l27 -21l-11 31l25 18h-31l-10 31zM469 1384h-33
l27 -18l-10 -31l24 21l27 -21l-10 31l24 18h-31l-10 31zM645 1384h-31l27 -18l-10 -31l24 21l27 -21l-10 31l24 18h-30l-11 31zM850 1366l24 18h-30l-10 31l-11 -31h-30l24 -18l-8 -31l25 21l26 -21zM201 1294h-31l25 -18l-9 -29l25 19l25 -19l-9 29l25 18h-31l-10 31z
M760 1276l26 18h-32l-9 31l-10 -31h-30l24 -18l-10 -29l26 19l25 -19zM559 745v191h193v164h-193v192h-164v-192h-190v-164h190v-191h164zM137 1188l27 18h-33l-10 29l-8 -29h-33l26 -18l-10 -31l25 19l26 -19zM291 1206h-33l27 -18l-11 -31l25 19l27 -19l-11 31l25 18h-31
l-10 29zM645 1206h-31l27 -18l-10 -31l24 19l27 -19l-10 31l24 18h-30l-11 29zM850 1188l24 18h-30l-10 29l-11 -29h-30l24 -18l-8 -31l25 19l26 -19zM137 1008l27 20h-33l-10 29l-8 -29h-33l26 -20l-10 -29l25 18l26 -18zM850 1008l24 20h-30l-10 29l-11 -29h-30l24 -20
l-8 -29l25 18l26 -18zM137 829l27 19h-33l-10 31l-8 -31h-33l26 -19l-10 -28l25 18l26 -18zM315 829l25 19h-31l-10 31l-8 -31h-33l27 -19l-11 -28l25 18l27 -18zM672 829l24 19h-30l-11 31l-10 -31h-31l27 -19l-10 -28l24 18l27 -18zM850 829l24 19h-30l-10 31l-11 -31h-30
l24 -19l-8 -28l25 18l26 -18zM236 711l-9 30l25 19h-31l-10 28l-10 -28h-31l25 -19l-9 -30l25 18zM770 711l-10 30l26 19h-32l-9 28l-10 -28h-30l24 -19l-10 -30l26 18zM147 621l-10 30l27 19h-33l-10 30l-8 -30h-33l26 -19l-10 -30l25 18zM326 621l-11 30l25 19h-31l-10 30
l-8 -30h-33l27 -19l-11 -30l25 18zM504 621l-10 30l24 19h-31l-10 30l-8 -30h-33l27 -19l-10 -30l24 18zM682 621l-10 30l24 19h-30l-11 30l-10 -30h-31l27 -19l-10 -30l24 18zM860 621l-10 30l24 19h-30l-10 30l-11 -30h-30l24 -19l-8 -30l25 18zM41 387v98h2001v-98h-2001
zM41 195v96h2003v-96h-2003zM41 0v96h2003v-96h-2003z" />
    <glyph glyph-name=".null" horiz-adv-x="0" 
 />
    <glyph glyph-name="nonmarkingreturn" horiz-adv-x="682" 
 />
    <glyph glyph-name="CR" unicode="&#xd;" horiz-adv-x="0" 
 />
    <glyph glyph-name="space" unicode=" " horiz-adv-x="520" 
 />
    <glyph glyph-name="exclam" unicode="!" horiz-adv-x="653" 
d="M233 420l-53 1065h293l-53 -1065h-187zM467 262v-262h-281v262h281z" />
    <glyph glyph-name="quotedbl" unicode="&#x22;" horiz-adv-x="878" 
d="M168 881l-37 573h242l-37 -573h-168zM545 881l-37 573h240l-37 -573h-166z" />
    <glyph glyph-name="numbersign" unicode="#" horiz-adv-x="1236" 
d="M1217 854h-248l-54 -285h232v-178h-264l-74 -391h-203l74 391h-248l-74 -391h-202l73 391h-209v178h242l53 285h-213v178h246l72 389h203l-72 -389h248l71 389h203l-72 -389h216v-178zM713 569l53 285h-248l-53 -285h248z" />
    <glyph glyph-name="dollar" unicode="$" horiz-adv-x="1257" 
d="M1194 391q0 -177 -135 -291t-365 -129v-190h-127v190q-201 12 -341 107.5t-195 261.5l217 100q95 -239 319 -266v473l-55 12q-209 46 -308.5 146.5t-99.5 263.5q0 162 126 265.5t337 117.5v186h127v-186q169 -14 289 -94.5t180 -222.5l-205 -113q-75 197 -264 233v-409
l51 -12q234 -50 341.5 -153.5t107.5 -289.5zM344 1075q0 -76 50.5 -122.5t172.5 -78.5v388q-105 -6 -164 -54t-59 -133zM694 170q121 9 188.5 64t67.5 149q0 96 -57.5 147.5t-198.5 87.5v-448z" />
    <glyph glyph-name="percent" unicode="%" horiz-adv-x="1685" 
d="M408 719q-171 0 -273.5 103.5t-101.5 277.5q-1 170 101.5 273.5t271.5 103.5q168 0 271 -105t103 -276t-102.5 -274t-269.5 -103zM283 -31l925 1497h189l-922 -1497h-192zM408 874q83 0 131.5 57.5t48.5 164.5t-48.5 165t-133.5 58t-135 -57t-50 -162q0 -110 50 -168
t137 -58zM1280 -31q-171 0 -273.5 103.5t-101.5 277.5q-1 171 101.5 274t273.5 103q167 0 270.5 -104.5t102.5 -276.5q1 -170 -102.5 -273.5t-270.5 -103.5zM1280 125q83 0 131.5 57.5t48.5 163.5q0 107 -48.5 166t-131.5 59q-86 0 -136 -57.5t-50 -163.5q0 -108 50 -166.5
t136 -58.5z" />
    <glyph glyph-name="ampersand" unicode="&#x26;" horiz-adv-x="1372" 
d="M1274 195q58 0 72 4v-197q-65 -14 -113 -14q-162 0 -287 116q-175 -139 -403 -139q-230 0 -367 110.5t-137 295.5q0 127 67.5 220.5t229.5 186.5q-92 108 -133 196t-41 175q0 166 106 263t287 97t287 -91.5t106 -246.5q0 -109 -62 -203.5t-177 -162.5l-64 -41l311 -342
q84 161 101 385l203 -39q-21 -290 -162 -502q77 -71 176 -71zM559 1339q-77 0 -119 -45.5t-43 -132.5q0 -61 29.5 -120.5t105.5 -149.5l52 29q141 81 141 241q0 85 -43.5 131.5t-122.5 46.5zM291 387q0 -98 80.5 -163.5t203.5 -65.5q133 0 242 86l-362 399
q-94 -61 -129 -116t-35 -140z" />
    <glyph glyph-name="quotesingle" unicode="'" horiz-adv-x="503" 
d="M168 881l-37 573h242l-37 -573h-168z" />
    <glyph glyph-name="parenleft" unicode="(" horiz-adv-x="673" 
d="M477 -287q-169 198 -264.5 446t-95.5 513q0 266 95.5 503.5t266.5 426.5l180 -82q-159 -206 -232 -409.5t-73 -442.5q0 -240 73.5 -450t231.5 -419z" />
    <glyph glyph-name="parenright" unicode=")" horiz-adv-x="673" 
d="M197 -287l-183 86q158 209 231.5 419t73.5 450q0 239 -73 442.5t-232 409.5l181 82q171 -189 266.5 -426.5t95.5 -503.5q0 -265 -95.5 -513t-264.5 -446z" />
    <glyph glyph-name="asterisk" unicode="*" horiz-adv-x="720" 
d="M696 1176l-245 -43l178 -172l-156 -115l-113 221l-112 -221l-154 115l176 174l-243 41l61 182l217 -117l-41 244h193l-41 -244l217 117z" />
    <glyph glyph-name="plus" unicode="+" horiz-adv-x="1159" 
d="M1063 764v-178h-383v-404h-203v404h-381v178h381v379h203v-379h383z" />
    <glyph glyph-name="comma" unicode="," horiz-adv-x="552" 
d="M199 -301l-56 111q80 31 106.5 70t26.5 114v6h-145v285h291v-269q0 -127 -50 -200t-173 -117z" />
    <glyph glyph-name="hyphen" unicode="-" horiz-adv-x="821" 
d="M96 678h629v-217h-629v217z" />
    <glyph glyph-name="period" unicode="." horiz-adv-x="552" 
d="M422 285v-285h-291v285h291z" />
    <glyph glyph-name="slash" unicode="/" horiz-adv-x="976" 
d="M309 -240h-219l578 1796h219z" />
    <glyph glyph-name="zero" unicode="0" horiz-adv-x="1331" 
d="M666 -31q-277 0 -427.5 196.5t-150.5 545.5q0 350 150.5 546.5t427.5 196.5q278 0 428.5 -196.5t150.5 -546.5q0 -349 -151 -545.5t-428 -196.5zM666 170q158 0 240.5 141.5t82.5 399.5q0 259 -82.5 400.5t-240.5 141.5t-240 -141t-82 -401q0 -258 82 -399.5t240 -141.5z
" />
    <glyph glyph-name="one" unicode="1" horiz-adv-x="854" 
d="M379 0v1053q-35 -41 -103 -63.5t-137 -22.5h-65v227h41q240 3 307 229h209v-1423h-252z" />
    <glyph glyph-name="two" unicode="2" horiz-adv-x="1153" 
d="M66 0v193q269 176 497 391q121 113 170 208.5t49 213.5q0 117 -58 179t-165 62q-108 0 -169.5 -62.5t-61.5 -168.5q0 -59 14 -125l-254 24q-14 55 -14 113q0 196 133.5 311t363.5 115q227 0 353.5 -114t126.5 -322q0 -147 -70.5 -278t-220.5 -267q-152 -137 -352 -262
h657v-211h-999z" />
    <glyph glyph-name="three" unicode="3" horiz-adv-x="1196" 
d="M592 -31q-238 0 -382 122t-147 327l250 26q4 -128 80.5 -201t204.5 -73q123 0 187.5 61.5t64.5 178.5q0 229 -285 229h-80v186h74q124 0 187 57t63 162q0 100 -60.5 155.5t-170.5 55.5q-120 0 -185 -75.5t-65 -214.5l-246 41q0 207 137.5 327.5t372.5 120.5
q225 0 349 -101t124 -280q0 -122 -73 -210.5t-197 -117.5q315 -51 315 -344q0 -200 -139.5 -316t-378.5 -116z" />
    <glyph glyph-name="four" unicode="4" horiz-adv-x="1253" 
d="M1182 340h-224v-340h-245v340h-662v170l629 913h278v-895h224v-188zM719 997q0 128 4 189h-4q-26 -65 -92 -166l-226 -336q-81 -120 -116 -156h434v469z" />
    <glyph glyph-name="five" unicode="5" horiz-adv-x="1185" 
d="M586 -31q-204 0 -338.5 104t-163.5 283l252 35q21 -99 86 -158t168 -59q124 0 194 78.5t70 216.5q0 143 -67 227t-191 84q-98 0 -162.5 -53.5t-91.5 -153.5l-231 23l86 827h837v-206h-651l-47 -410q104 166 328 166q205 0 323.5 -132.5t118.5 -361.5q0 -231 -141 -370.5
t-379 -139.5z" />
    <glyph glyph-name="six" unicode="6" horiz-adv-x="1202" 
d="M690 954q201 0 319.5 -130t118.5 -351q0 -224 -137 -364t-358 -140q-264 0 -404.5 184t-140.5 531q0 365 146.5 567.5t410.5 202.5q197 0 315 -92t150 -270l-244 -45q-43 208 -225 208q-146 0 -225 -126t-84 -365q51 91 143.5 140.5t214.5 49.5zM631 168
q117 0 185.5 80.5t68.5 218.5q0 135 -70.5 215t-189.5 80q-103 0 -179 -65t-110 -183q15 -160 94.5 -253t200.5 -93z" />
    <glyph glyph-name="seven" unicode="7" horiz-adv-x="1048" 
d="M254 0v23q0 305 129.5 604.5t370.5 576.5h-705v219h969v-194q-241 -261 -364.5 -561.5t-123.5 -624.5v-43h-276z" />
    <glyph glyph-name="eight" unicode="8" horiz-adv-x="1232" 
d="M868 774q153 -57 223 -149.5t70 -237.5q0 -189 -148.5 -303.5t-394.5 -114.5q-248 0 -396 109.5t-148 292.5q0 139 69.5 228t212.5 132q-122 54 -178.5 137t-56.5 205q0 172 134.5 276.5t354.5 104.5q224 0 358 -98t134 -264q0 -236 -234 -318zM608 1276
q-112 0 -176.5 -53.5t-64.5 -147.5q0 -83 55 -135.5t178 -87.5l78 -21q97 41 138.5 95.5t41.5 138.5q0 100 -66 155.5t-184 55.5zM621 160q133 0 208.5 61.5t75.5 169.5q0 89 -56.5 146.5t-182.5 95.5l-125 37q-114 -44 -162.5 -105.5t-48.5 -158.5q0 -110 80.5 -178
t210.5 -68z" />
    <glyph glyph-name="nine" unicode="9" horiz-adv-x="1204" 
d="M578 1454q268 0 404 -181t136 -536q0 -173 -31.5 -311.5t-95.5 -242t-168.5 -159t-244.5 -55.5q-204 0 -329 97t-157 280l244 47q45 -223 250 -223q283 0 286 520q-50 -86 -136.5 -129t-196.5 -43q-208 0 -336.5 123.5t-128.5 337.5q0 209 137.5 342t366.5 133zM578 713
q99 0 181 63t111 162q-6 65 -23.5 119.5t-50 101.5t-88 74t-128.5 27q-118 0 -190.5 -76t-72.5 -201q0 -122 73 -196t188 -74z" />
    <glyph glyph-name="colon" unicode=":" horiz-adv-x="552" 
d="M422 1024v-285h-291v285h291zM422 285v-285h-291v285h291z" />
    <glyph glyph-name="semicolon" unicode=";" horiz-adv-x="552" 
d="M422 1024v-285h-291v285h291zM199 -301l-56 111q80 31 106.5 70t26.5 114v6h-145v285h291v-269q0 -127 -50 -200t-173 -117z" />
    <glyph glyph-name="less" unicode="&#x3c;" 
d="M1073 162l-958 413v185l958 414v-201l-727 -303l727 -303v-205z" />
    <glyph glyph-name="equal" unicode="=" horiz-adv-x="1159" 
d="M96 774v191h967v-191h-967zM96 383v190h967v-190h-967z" />
    <glyph glyph-name="greater" unicode="&#x3e;" 
d="M197 162v205l727 303l-727 303v201l960 -414v-185z" />
    <glyph glyph-name="question" unicode="?" horiz-adv-x="1017" 
d="M369 408v92q0 66 25.5 126.5t97.5 123.5l102 88q63 52 98 111.5t35 140.5q0 92 -59 146t-162 54q-109 0 -174.5 -62.5t-65.5 -174.5q0 -46 13 -107l-246 25q-13 64 -13 114q0 182 130 293t360 111q225 0 351 -100.5t126 -284.5q0 -193 -192 -363l-99 -86q-48 -42 -67 -83
t-19 -105v-59h-241zM352 0v262h279v-262h-279z" />
    <glyph glyph-name="at" unicode="@" horiz-adv-x="1708" 
d="M874 -209q-363 0 -579.5 211t-216.5 563q0 170 56.5 315.5t159 249.5t253.5 163t332 59q351 0 552 -204t201 -542q0 -213 -92.5 -339t-247.5 -126q-95 0 -157.5 40.5t-85.5 117.5q-38 -78 -114.5 -122t-172.5 -44q-129 0 -211 69.5t-82 178.5q0 115 81 179.5t257 90.5
l223 33v25q0 96 -34.5 135t-118.5 39q-154 0 -166 -144h-211q8 135 111 216t270 81q179 0 263.5 -83t84.5 -261v-256q0 -88 22 -126t74 -38q74 0 118 89.5t44 240.5q0 292 -156 457.5t-450 165.5q-306 0 -480 -180t-174 -480q0 -290 183.5 -466.5t484.5 -176.5q196 0 377 80
l57 -115q-191 -96 -455 -96zM819 285q97 0 155 61t58 162v47l-158 -23q-100 -15 -144 -47.5t-44 -91.5q0 -46 37.5 -77t95.5 -31z" />
    <glyph glyph-name="A" unicode="A" horiz-adv-x="1437" 
d="M1135 0l-131 383h-570l-131 -383h-268l540 1454h287l541 -1454h-268zM504 584h430l-170 491q-27 78 -43 156h-4q-16 -78 -43 -156z" />
    <glyph glyph-name="B" unicode="B" horiz-adv-x="1370" 
d="M987 756q136 -23 213.5 -115.5t77.5 -237.5q0 -80 -27.5 -150t-83.5 -128t-152.5 -91.5t-223.5 -33.5h-611v1454h576q104 0 187.5 -21.5t137.5 -57.5t90.5 -86t52 -103.5t15.5 -112.5q0 -113 -65 -198.5t-187 -118.5zM713 1253h-269v-413h269q74 0 126 17.5t79.5 48
t39 64t11.5 74.5q0 92 -60 150.5t-196 58.5zM741 201q138 0 202.5 63t64.5 164q0 98 -63.5 157.5t-188.5 59.5h-312v-444h297z" />
    <glyph glyph-name="C" unicode="C" horiz-adv-x="1449" 
d="M758 -35q-168 0 -298.5 57t-213.5 160t-125.5 241.5t-42.5 305.5q0 227 79 397.5t235 266.5t370 96q265 0 421.5 -139t186.5 -377l-270 -39q-19 158 -108.5 248t-237.5 90q-190 0 -297 -146.5t-107 -394.5q0 -160 46.5 -282t140 -192.5t223.5 -70.5q138 0 230 87.5
t120 242.5l262 -53q-23 -111 -72.5 -201t-124.5 -157t-181 -103.5t-236 -36.5z" />
    <glyph glyph-name="D" unicode="D" horiz-adv-x="1484" 
d="M180 0v1454h525q318 0 511 -198.5t193 -522.5q0 -214 -86.5 -380t-248 -259.5t-374.5 -93.5h-520zM444 207h248q137 0 239 72t152 189.5t50 264.5q0 149 -49 264t-149 182.5t-239 67.5h-252v-1040z" />
    <glyph glyph-name="E" unicode="E" horiz-adv-x="1257" 
d="M444 207h695v-207h-959v1454h944v-207h-680v-399h646v-205h-646v-436z" />
    <glyph glyph-name="F" unicode="F" horiz-adv-x="1193" 
d="M1124 1245h-680v-403h646v-209h-646v-633h-264v1454h944v-209z" />
    <glyph glyph-name="G" unicode="G" horiz-adv-x="1505" 
d="M719 -35q-197 0 -343 96.5t-222 268t-76 395.5q0 169 47 309.5t135 241.5t218.5 157t291.5 56q113 0 208.5 -27t160 -71t112.5 -103t74 -118.5t37 -122.5l-262 -46q-9 52 -31 98.5t-60 88.5t-100.5 67t-142.5 25q-197 0 -307.5 -150t-110.5 -403q0 -248 108 -398.5
t312 -150.5q84 0 151.5 26.5t107 67t66 92.5t36.5 98.5t10 90.5v27h-394v202h633v-782h-188l-23 223q-52 -119 -170 -188.5t-278 -69.5z" />
    <glyph glyph-name="H" unicode="H" horiz-adv-x="1542" 
d="M1362 1454v-1454h-264v635h-654v-635h-264v1454h264v-608h654v608h264z" />
    <glyph glyph-name="I" unicode="I" horiz-adv-x="624" 
d="M444 0h-264v1454h264v-1454z" />
    <glyph glyph-name="J" unicode="J" horiz-adv-x="831" 
d="M678 410q0 -117 -34 -203t-96.5 -135.5t-141.5 -73t-177 -23.5q-123 0 -190 17v227q64 -10 156 -10q103 0 161 54t58 186v1005h264v-1044z" />
    <glyph glyph-name="K" unicode="K" horiz-adv-x="1413" 
d="M1073 0l-436 682l-193 -219v-463h-264v1454h264v-680l582 680h315l-524 -586l561 -868h-305z" />
    <glyph glyph-name="L" unicode="L" horiz-adv-x="1116" 
d="M180 0v1454h264v-1237h635v-217h-899z" />
    <glyph glyph-name="M" unicode="M" horiz-adv-x="1832" 
d="M180 0v1454h369l330 -1012q29 -89 36 -155h5q8 69 36 157l326 1010h371v-1454h-242v1061q0 92 8 160h-6q-7 -62 -37 -154l-344 -1067h-235l-348 1067q-28 75 -37 154h-9q9 -73 9 -160v-1061h-232z" />
    <glyph glyph-name="N" unicode="N" horiz-adv-x="1540" 
d="M180 0v1454h303l547 -952q60 -102 90 -187h4q-4 106 -4 189v950h240v-1454h-297l-555 956q-55 100 -88 183h-4q4 -55 4 -193v-946h-240z" />
    <glyph glyph-name="O" unicode="O" horiz-adv-x="1531" 
d="M766 -35q-314 0 -501 207t-187 555q0 353 186.5 557.5t501.5 204.5t501.5 -204.5t186.5 -557.5q0 -351 -187 -556.5t-501 -205.5zM766 178q196 0 305 146t109 403t-109 403t-305 146q-195 0 -304.5 -146t-109.5 -403q0 -254 110 -401.5t304 -147.5z" />
    <glyph glyph-name="P" unicode="P" horiz-adv-x="1298" 
d="M756 1454q232 0 370 -120.5t138 -321.5q0 -206 -138 -327.5t-372 -121.5h-310v-563h-264v1454h576zM707 764q129 0 203.5 65t74.5 179q0 113 -74.5 178t-203.5 65h-263v-487h263z" />
    <glyph glyph-name="Q" unicode="Q" horiz-adv-x="1531" 
d="M1047 16q36 -40 83.5 -61.5t80 -26t75.5 -4.5q42 0 111 15v-215q-86 -13 -148 -13q-157 0 -265.5 67t-162.5 189q-18 -2 -55 -2q-314 0 -501 207t-187 555q0 353 186.5 557.5t501.5 204.5t501.5 -204.5t186.5 -557.5q0 -263 -107.5 -447.5t-299.5 -263.5zM352 727
q0 -254 110 -401.5t304 -147.5q196 0 305 146t109 403t-109 403t-305 146q-195 0 -304.5 -146t-109.5 -403z" />
    <glyph glyph-name="R" unicode="R" horiz-adv-x="1388" 
d="M1020 0l-320 584h-256v-584h-264v1454h586q136 0 236 -33.5t157.5 -95t84 -137.5t26.5 -170q0 -138 -76 -247.5t-229 -152.5l346 -618h-291zM444 1253v-473h277q142 0 207 64t65 174q0 235 -272 235h-277z" />
    <glyph glyph-name="S" unicode="S" horiz-adv-x="1267" 
d="M641 -35q-250 0 -407 111t-203 297l225 98q40 -134 137 -214.5t256 -80.5q79 0 142 20t105 69t42 122q0 100 -58.5 148t-187.5 75l-203 43q-380 78 -380 418q0 190 143.5 304t388.5 114q215 0 364 -89t195 -265l-211 -111q-36 128 -126.5 196t-233.5 68
q-120 0 -192 -52.5t-72 -143.5q0 -89 52.5 -139t172.5 -76l211 -46q194 -41 296.5 -138.5t102.5 -280.5q0 -196 -145.5 -321.5t-413.5 -125.5z" />
    <glyph glyph-name="T" unicode="T" horiz-adv-x="1181" 
d="M1163 1454v-215h-440v-1239h-264v1239h-441v215h1145z" />
    <glyph glyph-name="U" unicode="U" horiz-adv-x="1476" 
d="M154 1454h264v-932q0 -156 83.5 -245t235.5 -89q154 0 238 89t84 245v932h264v-946q0 -249 -155 -396t-431 -147t-429.5 146.5t-153.5 396.5v946z" />
    <glyph glyph-name="V" unicode="V" horiz-adv-x="1308" 
d="M504 0l-496 1454h281l311 -1008q36 -114 51 -198h8q10 72 50 198l311 1008h283l-498 -1454h-301z" />
    <glyph glyph-name="W" unicode="W" horiz-adv-x="1916" 
d="M391 0l-346 1454h268l222 -1065q8 -45 12 -98h6q3 42 16 98l256 1065h267l256 -1065q13 -56 16 -98h6q4 53 12 98l222 1065h268l-346 -1454h-307l-244 1065q-10 50 -12 86h-9q-2 -36 -12 -86l-244 -1065h-307z" />
    <glyph glyph-name="X" unicode="X" horiz-adv-x="1368" 
d="M25 0l495 762l-457 692h302l274 -444q36 -66 45 -90h4q11 36 45 88l277 446h288l-452 -711l497 -743h-303l-301 475q-49 75 -63 113h-4q-15 -42 -62 -113l-293 -475h-292z" />
    <glyph glyph-name="Y" unicode="Y" horiz-adv-x="1239" 
d="M485 0v555l-489 899h287l297 -580q29 -54 38 -94h5q8 37 36 94l297 580h287l-489 -899v-555h-269z" />
    <glyph glyph-name="Z" unicode="Z" horiz-adv-x="1202" 
d="M72 213l762 1028h-734v213h1028v-213l-761 -1030h792v-211h-1087v213z" />
    <glyph glyph-name="bracketleft" unicode="[" horiz-adv-x="706" 
d="M180 -233v1783h463v-182h-240v-1417h240v-184h-463z" />
    <glyph glyph-name="backslash" unicode="\" horiz-adv-x="976" 
d="M668 -240l-578 1796h219l578 -1796h-219z" />
    <glyph glyph-name="bracketright" unicode="]" horiz-adv-x="706" 
d="M526 -233h-463v184h240v1417h-240v182h463v-1783z" />
    <glyph glyph-name="asciicircum" unicode="^" horiz-adv-x="882" 
d="M344 1452h195l303 -537h-209l-191 365l-192 -365h-209z" />
    <glyph glyph-name="underscore" unicode="_" horiz-adv-x="915" 
d="M0 -190h915v-152h-915v152z" />
    <glyph glyph-name="grave" unicode="`" horiz-adv-x="1228" 
d="M502 1176h-203l-262 305h258z" />
    <glyph glyph-name="a" unicode="a" horiz-adv-x="1136" 
d="M424 -25q-158 0 -254 83.5t-96 220.5q0 153 125 231q102 59 333 92l218 27v26q0 115 -46 167t-145 52q-91 0 -143 -46.5t-58 -133.5h-252q12 164 133.5 259.5t319.5 95.5q228 0 333 -102t105 -324v-306q0 -205 31 -317h-246q-13 83 -16 176q-37 -94 -128 -147.5
t-214 -53.5zM502 150q114 0 184 74.5t70 195.5v65l-232 -34q-101 -17 -148.5 -55.5t-47.5 -104.5q0 -65 46.5 -103t127.5 -38z" />
    <glyph glyph-name="b" unicode="b" horiz-adv-x="1226" 
d="M725 -25q-112 0 -195 51.5t-124 139.5l-25 -166h-207v1485h246v-621q42 83 123.5 134t191.5 51q186 0 299 -149t113 -388q0 -242 -115.5 -389.5t-306.5 -147.5zM647 164q115 0 179.5 92.5t64.5 255.5q0 162 -63.5 255t-180.5 93q-109 0 -171 -84.5t-62 -230.5v-70
q0 -144 62 -227.5t171 -83.5z" />
    <glyph glyph-name="c" unicode="c" horiz-adv-x="1105" 
d="M580 -25q-229 0 -365.5 146t-136.5 391q0 250 135 393.5t369 143.5q190 0 308.5 -97t141.5 -272l-239 -39q-12 103 -69.5 159t-148.5 56q-114 0 -179.5 -90t-65.5 -248q0 -166 65.5 -257t184.5 -91q186 0 221 219l231 -47q-28 -170 -148.5 -268.5t-303.5 -98.5z" />
    <glyph glyph-name="d" unicode="d" horiz-adv-x="1226" 
d="M494 -25q-186 0 -300 147.5t-114 387.5q0 241 120 390t312 149q211 0 295 -170v606h246v-1485h-232v184q-43 -99 -128 -154t-199 -55zM578 164q108 0 171.5 84.5t63.5 228.5v66q0 150 -63.5 233.5t-174.5 83.5q-113 0 -176 -91t-63 -255t64.5 -257t177.5 -93z" />
    <glyph glyph-name="e" unicode="e" horiz-adv-x="1122" 
d="M1034 563v-112h-719q1 -129 76 -206t197 -77q178 0 250 170l188 -86q-57 -133 -173 -205t-273 -72q-236 0 -369 138t-133 389q0 254 130.5 400.5t358.5 146.5q223 0 345 -126t122 -360zM793 612v17q0 125 -60 190.5t-170 65.5q-116 0 -180.5 -72t-67.5 -201h478z" />
    <glyph glyph-name="f" unicode="f" horiz-adv-x="753" 
d="M709 1024v-178h-248v-846h-246v846h-176v178h176v131q0 160 92 251t256 91q74 0 146 -16v-191q-62 10 -105 10q-73 0 -108 -39.5t-35 -121.5v-115h248z" />
    <glyph glyph-name="g" unicode="g" horiz-adv-x="1134" 
d="M1016 1016q-101 0 -146 -66q109 -95 109 -245q0 -155 -114.5 -253t-307.5 -98q-121 0 -205 37q-51 -26 -51 -78q0 -94 156 -94h268q179 0 270.5 -75.5t91.5 -219.5q0 -163 -138 -255.5t-408 -92.5q-249 0 -365.5 73t-116.5 191q0 68 44 121t126 80q-129 53 -129 184
q0 154 162 217q-60 47 -92.5 115.5t-32.5 147.5q0 154 113.5 249t306.5 95q124 0 217 -41q26 88 93.5 138t174.5 50q28 0 58 -6v-184q-45 10 -84 10zM557 504q85 0 136.5 55.5t51.5 142.5q0 88 -51 142.5t-137 54.5t-137 -53.5t-51 -140.5q0 -89 51.5 -145t136.5 -56zM688 8
h-266q-32 0 -86 4q-72 -46 -72 -127q0 -149 293 -149q307 0 307 147q0 125 -176 125z" />
    <glyph glyph-name="h" unicode="h" horiz-adv-x="1224" 
d="M174 0v1485h246v-649q92 213 330 213q166 0 251.5 -104.5t85.5 -307.5v-637h-245v616q0 117 -48.5 176.5t-142.5 59.5q-110 0 -170.5 -80.5t-60.5 -228.5v-543h-246z" />
    <glyph glyph-name="i" unicode="i" horiz-adv-x="571" 
d="M152 1194v256h266v-256h-266zM164 0v1024h246v-1024h-246z" />
    <glyph glyph-name="j" unicode="j" horiz-adv-x="573" 
d="M156 1194v256h266v-256h-266zM90 -414q-89 0 -139 13v188q19 -1 40.5 -2t33.5 -1.5t20 -0.5q66 0 93.5 36.5t27.5 135.5v1069h246v-1087q0 -80 -15.5 -141t-51 -110t-100 -74.5t-155.5 -25.5z" />
    <glyph glyph-name="k" unicode="k" horiz-adv-x="1159" 
d="M850 0l-279 463l-151 -158v-305h-246v1485h246v-916l399 455h299l-375 -401l392 -623h-285z" />
    <glyph glyph-name="l" unicode="l" horiz-adv-x="591" 
d="M420 1485v-1485h-246v1485h246z" />
    <glyph glyph-name="m" unicode="m" horiz-adv-x="1761" 
d="M164 1024h233v-180q91 205 303 205q217 0 291 -207q104 207 320 207q148 0 230.5 -99.5t82.5 -279.5v-670h-246v631q0 221 -168 221q-94 0 -144 -65.5t-50 -188.5v-598h-246v637q0 106 -42 160.5t-124 54.5q-92 0 -143 -68.5t-51 -191.5v-592h-246v1024z" />
    <glyph glyph-name="n" unicode="n" horiz-adv-x="1214" 
d="M164 0v1024h233v-199q105 224 340 224q168 0 254 -104.5t86 -309.5v-635h-246v610q0 242 -192 242q-108 0 -168.5 -81.5t-60.5 -227.5v-543h-246z" />
    <glyph glyph-name="o" unicode="o" horiz-adv-x="1159" 
d="M580 -25q-226 0 -364 143t-138 396q0 252 138 393.5t364 141.5t363.5 -141.5t137.5 -393.5q0 -253 -137.5 -396t-363.5 -143zM580 162q120 0 184.5 89.5t64.5 262.5t-64.5 260.5t-184.5 87.5q-121 0 -186.5 -88t-65.5 -260q0 -173 66 -262.5t186 -89.5z" />
    <glyph glyph-name="p" unicode="p" horiz-adv-x="1216" 
d="M164 -399v1423h233v-178q47 99 132.5 151t195.5 52q185 0 298.5 -146.5t113.5 -388.5q0 -246 -117 -392.5t-307 -146.5q-105 0 -182.5 46.5t-120.5 125.5v-546h-246zM641 164q111 0 175.5 93.5t64.5 256.5q0 164 -62.5 255t-175.5 91q-112 0 -176 -84.5t-64 -238.5v-52
q0 -147 64.5 -234t173.5 -87z" />
    <glyph glyph-name="q" unicode="q" horiz-adv-x="1216" 
d="M807 -399v567q-42 -90 -123.5 -141.5t-189.5 -51.5q-185 0 -299.5 146.5t-114.5 388.5q0 245 120.5 392t313.5 147q217 0 305 -183l33 158h201v-1423h-246zM575 164q108 0 173 83t65 226v76q0 143 -65 227t-175 84q-111 0 -174 -90.5t-63 -255.5t62.5 -257.5t176.5 -92.5
z" />
    <glyph glyph-name="r" unicode="r" horiz-adv-x="786" 
d="M393 776q40 127 123 200t203 73q19 0 29 -2v-236q-5 0 -16 1t-17 1q-136 0 -213 -74q-56 -54 -74 -130t-18 -179v-430h-246v1024h229v-248z" />
    <glyph glyph-name="s" unicode="s" horiz-adv-x="1036" 
d="M537 -25q-176 0 -300.5 72.5t-173.5 206.5l185 82q34 -87 109.5 -133.5t183.5 -46.5q93 0 142.5 35t49.5 92q0 54 -34 80t-113 38l-183 33q-292 54 -292 299q0 140 112.5 228t304.5 88q165 0 280.5 -63t152.5 -173l-170 -92q-79 149 -275 149q-87 0 -133.5 -31t-46.5 -91
q0 -51 33.5 -78t103.5 -39l201 -37q146 -26 214 -99t68 -196q0 -147 -111 -235.5t-308 -88.5z" />
    <glyph glyph-name="t" unicode="t" horiz-adv-x="763" 
d="M23 846v178h184v258l246 98v-356h249v-178h-249v-490q0 -82 36.5 -121.5t112.5 -39.5q34 0 100 12v-207q-89 -18 -167 -18q-177 0 -252.5 85.5t-75.5 249.5v529h-184z" />
    <glyph glyph-name="u" unicode="u" horiz-adv-x="1200" 
d="M485 -25q-346 0 -346 392v657h246v-621q0 -113 45.5 -172t134.5 -59q101 0 163.5 78t62.5 207v567h247v-1024h-233v190q-37 -96 -124 -155.5t-196 -59.5z" />
    <glyph glyph-name="v" unicode="v" horiz-adv-x="1024" 
d="M379 0l-365 1024h258l201 -649q26 -85 37 -152h6q11 67 37 152l199 649h258l-365 -1024h-266z" />
    <glyph glyph-name="w" unicode="w" horiz-adv-x="1542" 
d="M324 0l-281 1024h242l157 -682q17 -96 19 -111h4q9 55 22 111l168 682h232l170 -682q20 -109 20 -111h4q7 42 19 111l160 682h241l-282 -1024h-250l-174 664q-21 106 -21 112h-4q-9 -63 -22 -112l-175 -664h-249z" />
    <glyph glyph-name="x" unicode="x" horiz-adv-x="1079" 
d="M25 0l370 530l-346 494h281l157 -250q47 -76 56 -104h2q11 37 53 104l152 250h274l-340 -498l371 -526h-281l-182 276q-47 69 -55 107h-5q-12 -40 -57 -107l-182 -276h-268z" />
    <glyph glyph-name="y" unicode="y" horiz-adv-x="1046" 
d="M199 -410q-38 0 -113 11v194q37 -8 86 -8q89 0 140 38.5t81 123.5l21 61l-400 1014h271l223 -670q21 -61 31 -121h4q5 38 30 121l203 670h256l-385 -1081q-68 -191 -174 -272t-274 -81z" />
    <glyph glyph-name="z" unicode="z" horiz-adv-x="958" 
d="M59 162l527 676h-504v186h792v-156l-516 -678h547v-190h-846v162z" />
    <glyph glyph-name="braceleft" unicode="{" horiz-adv-x="753" 
d="M571 -236q-157 0 -238 79t-81 225v305q0 110 -30 160t-124 53v176q51 1 81.5 13.5t46 41t20 61t4.5 89.5v301q0 137 91 220t251 83h92v-174h-45q-81 0 -121.5 -46t-40.5 -126v-244q0 -124 -37 -200t-135 -105q50 -17 84.5 -48.5t52.5 -75t25.5 -90t7.5 -106.5v-252
q0 -79 39 -122t113 -43h63v-175h-119z" />
    <glyph glyph-name="bar" unicode="|" horiz-adv-x="520" 
d="M174 -240v1796h172v-1796h-172z" />
    <glyph glyph-name="braceright" unicode="}" horiz-adv-x="753" 
d="M182 -236h-119v175h62q74 0 114 43t40 122v252q0 60 7.5 106.5t25.5 90t52.5 75t84.5 48.5q-99 29 -136 104.5t-37 200.5v244q0 80 -40.5 126t-122.5 46h-43v174h92q160 0 251 -83t91 -220v-301q0 -57 4.5 -89.5t19.5 -61t45.5 -41t81.5 -13.5v-176q-94 -3 -123.5 -53
t-29.5 -160v-305q0 -146 -82 -225t-238 -79z" />
    <glyph glyph-name="asciitilde" unicode="~" 
d="M838 451q-54 0 -104 17t-87.5 40.5t-72 47.5t-71 41t-71.5 17q-115 0 -156 -141l-161 33q31 134 113.5 207t201.5 73q55 0 105 -16.5t88 -40t72.5 -47.5t71 -40.5t71.5 -16.5q115 0 153 141l164 -35q-32 -133 -115 -206.5t-202 -73.5z" />
    <glyph glyph-name="uni00A0" unicode="&#xa0;" horiz-adv-x="520" 
 />
    <glyph glyph-name="exclamdown" unicode="&#xa1;" horiz-adv-x="653" 
d="M467 926h-281v262h281v-262zM233 768h187l53 -1065h-293z" />
    <glyph glyph-name="cent" unicode="&#xa2;" horiz-adv-x="1134" 
d="M645 158q177 24 205 213l209 -43q-29 -154 -137.5 -246.5t-276.5 -104.5v-170h-121v173q-209 20 -327.5 161t-118.5 371q0 233 117 372.5t329 159.5v173h121v-170q173 -10 283 -105t133 -252l-215 -35q-31 189 -201 215v-712zM301 514q0 -151 57 -241.5t166 -112.5v708
q-106 -20 -164.5 -112.5t-58.5 -241.5z" />
    <glyph glyph-name="sterling" unicode="&#xa3;" horiz-adv-x="1290" 
d="M1047 375l225 -39q-25 -171 -126 -269t-255 -98q-93 0 -236.5 27t-255.5 27q-149 0 -319 -39l-51 157q288 88 288 363q0 78 -14 164h-217v141h188q-24 126 -24 205q0 205 123 322.5t338 117.5q192 0 310 -86t153 -250l-240 -55q-42 199 -221 199q-106 0 -159.5 -62
t-53.5 -180q0 -88 26 -211h375v-141h-348q8 -78 8 -127q0 -242 -205 -344q55 16 152 16q67 0 176 -15.5t178 -15.5q77 0 126 50.5t59 142.5z" />
    <glyph glyph-name="currency" unicode="&#xa4;" horiz-adv-x="1140" 
d="M1047 621q0 -168 -93 -295l111 -123l-113 -105l-114 123q-109 -71 -258 -71q-155 0 -271 75l-119 -129l-112 105l119 131q-88 125 -88 289q0 167 90 290l-121 131l112 105l121 -129q118 76 269 76q144 0 256 -70l116 125l113 -105l-115 -124q97 -127 97 -299zM580 334
q116 0 190 80t74 207t-74 206.5t-190 79.5q-118 0 -194.5 -79.5t-76.5 -206.5t76.5 -207t194.5 -80z" />
    <glyph glyph-name="yen" unicode="&#xa5;" horiz-adv-x="1150" 
d="M1153 1423l-438 -747h338v-133h-353v-103h353v-131h-353v-309h-249v309h-353v131h353v103h-353v133h338l-440 747h280l203 -374q59 -113 94 -205h5q35 92 94 205l202 374h279z" />
    <glyph glyph-name="brokenbar" unicode="&#xa6;" horiz-adv-x="518" 
d="M346 1556v-770h-172v770h172zM346 539v-779h-172v779h172z" />
    <glyph glyph-name="section" unicode="&#xa7;" horiz-adv-x="1019" 
d="M840 371q86 -80 86 -213q0 -159 -115.5 -246.5t-318.5 -87.5q-179 0 -298.5 73.5t-162.5 208.5l170 91q72 -191 301 -191q92 0 141 34.5t49 100.5q0 53 -33 84.5t-122 65.5l-226 86q-139 52 -202.5 128t-63.5 187q0 154 141 223q-102 83 -102 226q0 151 112.5 237
t301.5 86q158 0 268.5 -65.5t153.5 -184.5l-175 -96q-57 170 -251 170q-85 0 -132 -33.5t-47 -93.5q0 -57 34.5 -89.5t137.5 -70.5l215 -75q130 -46 192 -123t62 -193q0 -152 -116 -239zM489 537l177 -64l47 -18q37 43 37 102q0 66 -43 105.5t-166 89.5l-207 82
q-3 2 -11.5 5t-11.5 5q-51 -42 -51 -111q0 -66 43.5 -103.5t185.5 -92.5z" />
    <glyph glyph-name="dieresis" unicode="&#xa8;" horiz-adv-x="1228" 
d="M102 1198v240h240v-240h-240zM535 1198v240h239v-240h-239z" />
    <glyph glyph-name="copyright" unicode="&#xa9;" horiz-adv-x="1679" 
d="M840 -35q-155 0 -293.5 54t-242.5 150.5t-165 241t-61 316.5t61 317t165 241.5t242.5 150t293.5 53.5t293.5 -53.5t242.5 -150t165 -241.5t61 -317t-61 -316.5t-165 -241t-242.5 -150.5t-293.5 -54zM840 74q174 0 319 78t233.5 228.5t88.5 346.5q0 148 -51.5 272.5
t-139.5 207t-204 128t-246 45.5q-131 0 -247 -45.5t-204 -128t-139 -207t-51 -272.5q0 -147 51 -271t139 -207t204.5 -129t246.5 -46zM848 291q-181 0 -286 117.5t-105 318.5q0 200 105.5 318t287.5 118q147 0 241 -77.5t105 -206.5l-176 -27q-8 75 -53.5 120.5t-120.5 45.5
q-99 0 -156 -79t-57 -212t58 -211t159 -78q68 0 115.5 44.5t58.5 117.5l174 -31q-25 -129 -119 -203.5t-231 -74.5z" />
    <glyph glyph-name="ordfeminine" unicode="&#xaa;" horiz-adv-x="917" 
d="M332 616q-117 0 -188.5 61t-71.5 159q0 58 21.5 99t65 67t96.5 40.5t128 24.5l199 29v22q0 76 -31.5 111t-99.5 35q-135 0 -144 -127h-213q9 125 103.5 194.5t253.5 69.5q180 0 263 -74t83 -235v-238q0 -137 20 -219h-209q-9 60 -12 131q-29 -70 -99.5 -110t-164.5 -40z
M412 748q81 0 129.5 48.5t48.5 125.5v75l-148 -22q-83 -12 -121 -42t-38 -81q0 -46 35 -75t94 -29z" />
    <glyph glyph-name="guillemotleft" unicode="&#xab;" horiz-adv-x="1093" 
d="M391 137l-342 428l346 424h230l-336 -424l334 -428h-232zM821 137l-342 428l346 424h230l-336 -424l336 -428h-234z" />
    <glyph glyph-name="logicalnot" unicode="&#xac;" 
d="M133 778h961v-518h-191v332h-770v186z" />
    <glyph glyph-name="registered" unicode="&#xae;" horiz-adv-x="1679" 
d="M840 1489q155 0 293.5 -53.5t242.5 -150t165 -241.5t61 -317t-61 -316.5t-165 -241t-242.5 -150.5t-293.5 -54t-293.5 54t-242.5 150.5t-165 241t-61 316.5t61 317t165 241.5t242.5 150t293.5 53.5zM840 74q174 0 319 78t233.5 228.5t88.5 346.5q0 148 -51.5 272.5
t-139.5 207t-204 128t-246 45.5q-131 0 -247 -45.5t-204 -128t-139 -207t-51 -272.5q0 -147 51 -271t139 -207t204.5 -129t246.5 -46zM1171 901q0 -83 -45 -143t-127 -86l201 -353h-188l-178 334h-115v-334h-170v832h325q144 0 220.5 -65t76.5 -185zM719 1018v-236h137
q69 0 106 31t37 88q0 117 -143 117h-137z" />
    <glyph glyph-name="macron" unicode="&#xaf;" horiz-adv-x="1228" 
d="M102 1235v166h654v-166h-654z" />
    <glyph glyph-name="degree" unicode="&#xb0;" horiz-adv-x="845" 
d="M424 731q-163 0 -270 101.5t-107 267.5t107 267t270 101q162 0 268.5 -101t106.5 -267t-107 -267.5t-268 -101.5zM424 893q87 0 142 57.5t55 149.5q0 93 -55 149t-142 56t-143 -56t-56 -149q0 -92 56 -149.5t143 -57.5z" />
    <glyph glyph-name="plusminus" unicode="&#xb1;" 
d="M733 770h387v-178h-387v-313h-203v313h-380v178h380v324h203v-324zM150 0v188h970v-188h-970z" />
    <glyph glyph-name="acute" unicode="&#xb4;" horiz-adv-x="1228" 
d="M100 1176l205 305h258l-262 -305h-201z" />
    <glyph glyph-name="uni00B5" unicode="&#xb5;" horiz-adv-x="1224" 
d="M815 1024h248v-1024h-234v190q-37 -97 -123.5 -156t-195.5 -59q-64 0 -127 17v-391h-219v1423h246v-621q0 -113 45.5 -172t134.5 -59q101 0 163 78t62 207v567z" />
    <glyph glyph-name="paragraph" unicode="&#xb6;" horiz-adv-x="1394" 
d="M575 727q-77 0 -142 10t-127.5 36t-106.5 67t-70.5 107.5t-26.5 152.5q0 102 39.5 177t109.5 117t153 61.5t182 19.5h661v-134h-178v-1544h-151v1544h-191v-1544h-152v930z" />
    <glyph glyph-name="periodcentered" unicode="&#xb7;" horiz-adv-x="552" 
d="M422 836v-287h-291v287h291z" />
    <glyph glyph-name="cedilla" unicode="&#xb8;" horiz-adv-x="1228" 
d="M248 14h131l-70 -112q35 28 99 28q77 0 122 -44.5t45 -123.5q0 -86 -65 -134t-174 -48q-88 0 -148.5 33.5t-83.5 95.5l144 33q19 -55 82 -55q38 0 62 22.5t24 59.5q0 35 -22.5 56t-59.5 21q-43 0 -70 -30l-100 26z" />
    <glyph glyph-name="ordmasculine" unicode="&#xba;" horiz-adv-x="925" 
d="M463 616q-173 0 -281 103.5t-108 290.5q0 186 108 288.5t281 102.5t280 -102t107 -289t-107 -290.5t-280 -103.5zM463 764q83 0 129.5 62.5t46.5 183.5t-46 182t-130 61q-85 0 -130.5 -61t-45.5 -182t46 -183.5t130 -62.5z" />
    <glyph glyph-name="guillemotright" unicode="&#xbb;" horiz-adv-x="1093" 
d="M272 137h-233l336 428l-336 424h229l346 -424zM702 137h-231l334 428l-336 424h229l346 -424z" />
    <glyph glyph-name="onequarter" unicode="&#xbc;" horiz-adv-x="1619" 
d="M217 -35l895 1524h182l-893 -1524h-184zM236 666v555q-55 -52 -152 -52h-31v158h21q147 0 192 129h137v-790h-167zM1577 176h-125v-176h-168v176h-391v121l369 494h190v-488h125v-127zM1284 631l-242 -328h242v328z" />
    <glyph glyph-name="onehalf" unicode="&#xbd;" horiz-adv-x="1703" 
d="M217 -35l895 1524h182l-893 -1524h-184zM236 666v555q-55 -52 -152 -52h-31v158h21q147 0 192 129h137v-790h-167zM1018 0v127q68 40 112.5 67.5t99.5 64.5t89 68.5t65 68.5t45.5 75t14.5 78q0 59 -31 90t-90 31q-62 0 -95.5 -31.5t-33.5 -89.5q0 -24 10 -62l-178 15
q-6 30 -6 63q0 113 82.5 178.5t228.5 65.5q139 0 217 -65t78 -183q0 -70 -32.5 -136t-90 -119t-118 -93t-132.5 -76h383v-137h-618z" />
    <glyph glyph-name="threequarters" unicode="&#xbe;" horiz-adv-x="1828" 
d="M426 -35l895 1524h182l-893 -1524h-184zM377 649q-148 0 -234 68.5t-88 187.5l174 17q0 -66 40.5 -103t109.5 -37q66 0 100.5 30t34.5 87q0 105 -154 105h-63v124h59q67 0 102.5 28.5t35.5 78.5q0 52 -32.5 80t-92.5 28q-64 0 -101 -38.5t-37 -106.5l-170 21
q0 118 86 187t232 69q139 0 216 -58.5t77 -161.5q0 -68 -45.5 -117t-120.5 -61q90 -14 140 -62.5t50 -127.5q0 -110 -86 -174t-233 -64zM1786 176h-125v-176h-168v176h-391v121l368 494h191v-488h125v-127zM1493 631l-242 -328h242v328z" />
    <glyph glyph-name="questiondown" unicode="&#xbf;" horiz-adv-x="1017" 
d="M666 1188v-262h-279v262h279zM649 780v-92q0 -66 -25.5 -126.5t-97.5 -123.5l-102 -88q-63 -52 -98 -111.5t-35 -140.5q0 -92 58.5 -146t162.5 -54q109 0 173.5 62.5t64.5 176.5q0 54 -13 105l248 -25q12 -59 12 -115q0 -182 -129.5 -292.5t-359.5 -110.5
q-225 0 -351 100.5t-126 284.5q0 195 192 362l99 86q48 42 67 84t19 107v57h241z" />
    <glyph glyph-name="Agrave" unicode="&#xc0;" horiz-adv-x="1437" 
d="M815 1542h-205l-223 232h236zM1135 0l-131 383h-570l-131 -383h-268l540 1454h287l541 -1454h-268zM504 584h430l-170 491q-27 78 -43 156h-4q-16 -78 -43 -156z" />
    <glyph glyph-name="Aacute" unicode="&#xc1;" horiz-adv-x="1437" 
d="M1044 1774l-223 -232h-203l191 232h235zM1135 0l-131 383h-570l-131 -383h-268l540 1454h287l541 -1454h-268zM504 584h430l-170 491q-27 78 -43 156h-4q-16 -78 -43 -156z" />
    <glyph glyph-name="Acircumflex" unicode="&#xc2;" horiz-adv-x="1437" 
d="M719 1692l-135 -150h-211l207 232h278l207 -232h-213zM1135 0l-131 383h-570l-131 -383h-268l540 1454h287l541 -1454h-268zM504 584h430l-170 491q-27 78 -43 156h-4q-16 -78 -43 -156z" />
    <glyph glyph-name="Atilde" unicode="&#xc3;" horiz-adv-x="1437" 
d="M580 1638q-37 0 -60.5 -24t-38.5 -78l-137 39q19 104 81.5 161.5t156.5 57.5q48 0 90.5 -17.5t67.5 -39t57 -39t61 -17.5q37 0 60 24.5t38 78.5l138 -39q-19 -104 -81 -161.5t-157 -57.5q-48 0 -90 17.5t-67.5 38.5t-57.5 38.5t-61 17.5zM1135 0l-131 383h-570l-131 -383
h-268l540 1454h287l541 -1454h-268zM504 584h430l-170 491q-27 78 -43 156h-4q-16 -78 -43 -156z" />
    <glyph glyph-name="Adieresis" unicode="&#xc4;" horiz-adv-x="1437" 
d="M606 1759v-217h-233v217h233zM1067 1759v-217h-233v217h233zM1135 0l-131 383h-570l-131 -383h-268l540 1454h287l541 -1454h-268zM504 584h430l-170 491q-27 78 -43 156h-4q-16 -78 -43 -156z" />
    <glyph glyph-name="Aring" unicode="&#xc5;" horiz-adv-x="1437" 
d="M717 1518q-107 0 -173.5 61.5t-66.5 161.5t66.5 161.5t173.5 61.5q109 0 175 -61.5t66 -161.5t-66 -161.5t-175 -61.5zM717 1851q-47 0 -77 -30.5t-30 -79.5q0 -47 30 -78t77 -31t76.5 30.5t29.5 78.5q0 49 -29.5 79.5t-76.5 30.5zM1135 0l-131 383h-570l-131 -383h-268
l540 1454h287l541 -1454h-268zM504 584h430l-170 491q-27 78 -43 156h-4q-16 -78 -43 -156z" />
    <glyph glyph-name="AE" unicode="&#xc6;" horiz-adv-x="1964" 
d="M1196 207h651v-207h-915v340h-500l-184 -340h-273l846 1454h1012v-207h-637v-399h602v-205h-602v-436zM543 541h389v716z" />
    <glyph glyph-name="Ccedilla" unicode="&#xc7;" horiz-adv-x="1449" 
d="M1372 463q-46 -217 -188.5 -350.5t-376.5 -145.5l-41 -65q35 28 98 28q77 0 122.5 -44.5t45.5 -123.5q0 -86 -65 -134t-174 -48q-88 0 -148.5 33.5t-83.5 95.5l144 33q19 -55 81 -55q38 0 62 22.5t24 59.5q0 35 -22 56t-59 21q-43 0 -70 -30l-100 26l61 127
q-149 12 -265 74t-189.5 163t-111.5 233t-38 290q0 227 79 397.5t235 266.5t370 96q265 0 421.5 -139t186.5 -377l-270 -39q-19 158 -108.5 248t-237.5 90q-190 0 -297 -146.5t-107 -394.5q0 -160 46.5 -282t140 -192.5t223.5 -70.5q138 0 230 87.5t120 242.5z" />
    <glyph glyph-name="Egrave" unicode="&#xc8;" horiz-adv-x="1257" 
d="M764 1542h-205l-223 232h235zM444 207h695v-207h-959v1454h944v-207h-680v-399h646v-205h-646v-436z" />
    <glyph glyph-name="Eacute" unicode="&#xc9;" horiz-adv-x="1257" 
d="M991 1774l-223 -232h-203l191 232h235zM444 207h695v-207h-959v1454h944v-207h-680v-399h646v-205h-646v-436z" />
    <glyph glyph-name="Ecircumflex" unicode="&#xca;" horiz-adv-x="1257" 
d="M668 1692l-136 -150h-210l206 232h279l207 -232h-213zM444 207h695v-207h-959v1454h944v-207h-680v-399h646v-205h-646v-436z" />
    <glyph glyph-name="Edieresis" unicode="&#xcb;" horiz-adv-x="1257" 
d="M553 1759v-217h-234v217h234zM1014 1759v-217h-234v217h234zM444 207h695v-207h-959v1454h944v-207h-680v-399h646v-205h-646v-436z" />
    <glyph glyph-name="Igrave" unicode="&#xcc;" horiz-adv-x="624" 
d="M410 1542h-195l-168 232h225zM444 0h-264v1454h264v-1454z" />
    <glyph glyph-name="Iacute" unicode="&#xcd;" horiz-adv-x="624" 
d="M217 1542l135 232h228l-168 -232h-195zM444 0h-264v1454h264v-1454z" />
    <glyph glyph-name="Icircumflex" unicode="&#xce;" horiz-adv-x="624" 
d="M600 1542h-201l-86 150l-88 -150h-198l147 232h279zM444 0h-264v1454h264v-1454z" />
    <glyph glyph-name="Idieresis" unicode="&#xcf;" horiz-adv-x="624" 
d="M35 1542v217h227v-217h-227zM365 1542v217h227v-217h-227zM444 0h-264v1454h264v-1454z" />
    <glyph glyph-name="Eth" unicode="&#xd0;" horiz-adv-x="1484" 
d="M705 1454q318 0 511 -198.5t193 -522.5q0 -214 -86.5 -380t-248 -259.5t-374.5 -93.5h-520v674h-166v168h166v612h525zM692 207q137 0 239 72t152 189.5t50 264.5q0 149 -49 264t-149 182.5t-239 67.5h-252v-405h328v-168h-328v-467h248z" />
    <glyph glyph-name="Ntilde" unicode="&#xd1;" horiz-adv-x="1540" 
d="M907 1526q-48 0 -90 17.5t-67.5 38.5t-57.5 38.5t-61 17.5q-37 0 -60.5 -24t-38.5 -78l-137 39q19 104 81.5 161.5t156.5 57.5q48 0 90.5 -17.5t67.5 -39t57 -39t61 -17.5q37 0 60.5 24.5t38.5 78.5l137 -39q-19 -104 -81 -161.5t-157 -57.5zM180 0v1454h303l547 -952
q60 -102 90 -187h4q-4 106 -4 189v950h240v-1454h-297l-555 956q-55 100 -88 183h-4q4 -55 4 -193v-946h-240z" />
    <glyph glyph-name="Ograve" unicode="&#xd2;" horiz-adv-x="1531" 
d="M862 1542h-205l-223 232h236zM766 -35q-314 0 -501 207t-187 555q0 353 186.5 557.5t501.5 204.5t501.5 -204.5t186.5 -557.5q0 -351 -187 -556.5t-501 -205.5zM766 178q196 0 305 146t109 403t-109 403t-305 146q-195 0 -304.5 -146t-109.5 -403q0 -254 110 -401.5
t304 -147.5z" />
    <glyph glyph-name="Oacute" unicode="&#xd3;" horiz-adv-x="1531" 
d="M666 1542l190 232h236l-224 -232h-202zM766 -35q-314 0 -501 207t-187 555q0 353 186.5 557.5t501.5 204.5t501.5 -204.5t186.5 -557.5q0 -351 -187 -556.5t-501 -205.5zM766 178q196 0 305 146t109 403t-109 403t-305 146q-195 0 -304.5 -146t-109.5 -403
q0 -254 110 -401.5t304 -147.5z" />
    <glyph glyph-name="Ocircumflex" unicode="&#xd4;" horiz-adv-x="1531" 
d="M1112 1542h-213l-133 150l-135 -150h-211l207 232h278zM766 -35q-314 0 -501 207t-187 555q0 353 186.5 557.5t501.5 204.5t501.5 -204.5t186.5 -557.5q0 -351 -187 -556.5t-501 -205.5zM766 178q196 0 305 146t109 403t-109 403t-305 146q-195 0 -304.5 -146
t-109.5 -403q0 -254 110 -401.5t304 -147.5z" />
    <glyph glyph-name="Otilde" unicode="&#xd5;" horiz-adv-x="1531" 
d="M903 1526q-48 0 -90 17.5t-67.5 38.5t-57.5 38.5t-61 17.5q-37 0 -60.5 -24t-38.5 -78l-137 39q19 104 81.5 161.5t156.5 57.5q48 0 90.5 -17.5t67.5 -39t57 -39t61 -17.5q37 0 60.5 24.5t38.5 78.5l137 -39q-19 -104 -81 -161.5t-157 -57.5zM766 -35q-314 0 -501 207
t-187 555q0 353 186.5 557.5t501.5 204.5t501.5 -204.5t186.5 -557.5q0 -351 -187 -556.5t-501 -205.5zM766 178q196 0 305 146t109 403t-109 403t-305 146q-195 0 -304.5 -146t-109.5 -403q0 -254 110 -401.5t304 -147.5z" />
    <glyph glyph-name="Odieresis" unicode="&#xd6;" horiz-adv-x="1531" 
d="M420 1542v217h233v-217h-233zM881 1542v217h233v-217h-233zM766 -35q-314 0 -501 207t-187 555q0 353 186.5 557.5t501.5 204.5t501.5 -204.5t186.5 -557.5q0 -351 -187 -556.5t-501 -205.5zM766 178q196 0 305 146t109 403t-109 403t-305 146q-195 0 -304.5 -146
t-109.5 -403q0 -254 110 -401.5t304 -147.5z" />
    <glyph glyph-name="multiply" unicode="&#xd7;" 
d="M1147 1042l-373 -372l373 -371l-139 -141l-373 372l-373 -372l-139 139l373 373l-373 372l139 140l373 -371l371 371z" />
    <glyph glyph-name="Oslash" unicode="&#xd8;" horiz-adv-x="1531" 
d="M1278 1272q176 -204 176 -545q0 -351 -187 -556.5t-501 -205.5q-241 0 -410 125l-96 -125l-110 82l106 135q-178 206 -178 545q0 353 186.5 557.5t501.5 204.5q243 0 412 -125l96 123l110 -80zM352 727q0 -192 68 -334l610 783q-103 100 -264 100q-195 0 -304.5 -146
t-109.5 -403zM766 178q196 0 305 146t109 403q0 200 -66 332l-610 -780q104 -101 262 -101z" />
    <glyph glyph-name="Ugrave" unicode="&#xd9;" horiz-adv-x="1476" 
d="M836 1542h-205l-223 232h235zM154 1454h264v-932q0 -156 83.5 -245t235.5 -89q154 0 238 89t84 245v932h264v-946q0 -249 -155 -396t-431 -147t-429.5 146.5t-153.5 396.5v946z" />
    <glyph glyph-name="Uacute" unicode="&#xda;" horiz-adv-x="1476" 
d="M637 1542l190 232h236l-223 -232h-203zM154 1454h264v-932q0 -156 83.5 -245t235.5 -89q154 0 238 89t84 245v932h264v-946q0 -249 -155 -396t-431 -147t-429.5 146.5t-153.5 396.5v946z" />
    <glyph glyph-name="Ucircumflex" unicode="&#xdb;" horiz-adv-x="1476" 
d="M1083 1542h-213l-133 150l-135 -150h-211l207 232h279zM154 1454h264v-932q0 -156 83.5 -245t235.5 -89q154 0 238 89t84 245v932h264v-946q0 -249 -155 -396t-431 -147t-429.5 146.5t-153.5 396.5v946z" />
    <glyph glyph-name="Udieresis" unicode="&#xdc;" horiz-adv-x="1476" 
d="M391 1542v217h234v-217h-234zM852 1542v217h233v-217h-233zM154 1454h264v-932q0 -156 83.5 -245t235.5 -89q154 0 238 89t84 245v932h264v-946q0 -249 -155 -396t-431 -147t-429.5 146.5t-153.5 396.5v946z" />
    <glyph glyph-name="Yacute" unicode="&#xdd;" horiz-adv-x="1239" 
d="M518 1542l191 232h235l-223 -232h-203zM485 0v555l-489 899h287l297 -580q29 -54 38 -94h5q8 37 36 94l297 580h287l-489 -899v-555h-269z" />
    <glyph glyph-name="Thorn" unicode="&#xde;" horiz-adv-x="1228" 
d="M717 1188q220 0 348.5 -114t128.5 -308t-131 -310t-350 -116h-269v-340h-264v1454h264v-266h273zM672 541q112 0 177.5 59.5t65.5 161.5q0 103 -64.5 162t-178.5 59h-228v-442h228z" />
    <glyph glyph-name="germandbls" unicode="&#xdf;" horiz-adv-x="1216" 
d="M160 1018q0 219 120 345t341 126q206 0 321 -85.5t115 -246.5q0 -137 -77.5 -227t-211.5 -107q186 -17 283.5 -116t97.5 -271q0 -218 -136 -339.5t-370 -121.5q-70 0 -135 19v184q50 -16 108 -16q129 0 205 74.5t76 209.5q0 264 -324 273h-65v184h67q114 4 173 64.5
t59 171.5q0 83 -52 128.5t-145 45.5q-100 0 -152 -73t-52 -200v-1040h-246v1018z" />
    <glyph glyph-name="agrave" unicode="&#xe0;" horiz-adv-x="1136" 
d="M664 1176h-203l-262 305h258zM424 -25q-158 0 -254 83.5t-96 220.5q0 153 125 231q102 59 333 92l218 27v26q0 115 -46 167t-145 52q-91 0 -143 -46.5t-58 -133.5h-252q12 164 133.5 259.5t319.5 95.5q228 0 333 -102t105 -324v-306q0 -205 31 -317h-246q-13 83 -16 176
q-37 -94 -128 -147.5t-214 -53.5zM502 150q114 0 184 74.5t70 195.5v65l-232 -34q-101 -17 -148.5 -55.5t-47.5 -104.5q0 -65 46.5 -103t127.5 -38z" />
    <glyph glyph-name="aacute" unicode="&#xe1;" horiz-adv-x="1136" 
d="M467 1176l205 305h258l-262 -305h-201zM424 -25q-158 0 -254 83.5t-96 220.5q0 153 125 231q102 59 333 92l218 27v26q0 115 -46 167t-145 52q-91 0 -143 -46.5t-58 -133.5h-252q12 164 133.5 259.5t319.5 95.5q228 0 333 -102t105 -324v-306q0 -205 31 -317h-246
q-13 83 -16 176q-37 -94 -128 -147.5t-214 -53.5zM502 150q114 0 184 74.5t70 195.5v65l-232 -34q-101 -17 -148.5 -55.5t-47.5 -104.5q0 -65 46.5 -103t127.5 -38z" />
    <glyph glyph-name="acircumflex" unicode="&#xe2;" horiz-adv-x="1136" 
d="M909 1176h-196l-148 208l-145 -208h-199l221 305h248zM424 -25q-158 0 -254 83.5t-96 220.5q0 153 125 231q102 59 333 92l218 27v26q0 115 -46 167t-145 52q-91 0 -143 -46.5t-58 -133.5h-252q12 164 133.5 259.5t319.5 95.5q228 0 333 -102t105 -324v-306
q0 -205 31 -317h-246q-13 83 -16 176q-37 -94 -128 -147.5t-214 -53.5zM502 150q114 0 184 74.5t70 195.5v65l-232 -34q-101 -17 -148.5 -55.5t-47.5 -104.5q0 -65 46.5 -103t127.5 -38z" />
    <glyph glyph-name="atilde" unicode="&#xe3;" horiz-adv-x="1136" 
d="M717 1184q-52 0 -98 21.5t-74 47t-63 47t-68 21.5q-38 0 -62 -27.5t-41 -89.5l-137 37q19 116 82.5 181t161.5 65q52 0 98 -21t74 -46.5t63 -46.5t68 -21q38 0 61.5 26.5t40.5 89.5l138 -38q-19 -116 -82.5 -181t-161.5 -65zM424 -25q-158 0 -254 83.5t-96 220.5
q0 153 125 231q102 59 333 92l218 27v26q0 115 -46 167t-145 52q-91 0 -143 -46.5t-58 -133.5h-252q12 164 133.5 259.5t319.5 95.5q228 0 333 -102t105 -324v-306q0 -205 31 -317h-246q-13 83 -16 176q-37 -94 -128 -147.5t-214 -53.5zM502 150q114 0 184 74.5t70 195.5v65
l-232 -34q-101 -17 -148.5 -55.5t-47.5 -104.5q0 -65 46.5 -103t127.5 -38z" />
    <glyph glyph-name="adieresis" unicode="&#xe4;" horiz-adv-x="1136" 
d="M229 1198v240h240v-240h-240zM662 1198v240h239v-240h-239zM424 -25q-158 0 -254 83.5t-96 220.5q0 153 125 231q102 59 333 92l218 27v26q0 115 -46 167t-145 52q-91 0 -143 -46.5t-58 -133.5h-252q12 164 133.5 259.5t319.5 95.5q228 0 333 -102t105 -324v-306
q0 -205 31 -317h-246q-13 83 -16 176q-37 -94 -128 -147.5t-214 -53.5zM502 150q114 0 184 74.5t70 195.5v65l-232 -34q-101 -17 -148.5 -55.5t-47.5 -104.5q0 -65 46.5 -103t127.5 -38z" />
    <glyph glyph-name="aring" unicode="&#xe5;" horiz-adv-x="1136" 
d="M565 1130q-107 0 -173 62.5t-66 161.5q0 100 66 162.5t173 62.5t174.5 -62.5t67.5 -162.5q0 -98 -67.5 -161t-174.5 -63zM565 1245q47 0 77 31t30 78q0 49 -30 79.5t-77 30.5t-76.5 -30.5t-29.5 -79.5q0 -48 29.5 -78.5t76.5 -30.5zM424 -25q-158 0 -254 83.5t-96 220.5
q0 153 125 231q102 59 333 92l218 27v26q0 115 -46 167t-145 52q-91 0 -143 -46.5t-58 -133.5h-252q12 164 133.5 259.5t319.5 95.5q228 0 333 -102t105 -324v-306q0 -205 31 -317h-246q-13 83 -16 176q-37 -94 -128 -147.5t-214 -53.5zM502 150q114 0 184 74.5t70 195.5v65
l-232 -34q-101 -17 -148.5 -55.5t-47.5 -104.5q0 -65 46.5 -103t127.5 -38z" />
    <glyph glyph-name="ae" unicode="&#xe6;" horiz-adv-x="1746" 
d="M1661 543v-90h-680q2 -129 71 -207t183 -78q80 0 138 43.5t89 126.5l191 -86q-55 -133 -166 -205t-262 -72q-277 0 -396 215q-53 -104 -158.5 -159.5t-242.5 -55.5q-162 0 -258 80.5t-96 220.5q0 263 368 308l295 34v33q0 112 -47.5 165.5t-146.5 53.5q-90 0 -140.5 -45
t-54.5 -131h-246q12 166 127.5 260.5t311.5 94.5q233 0 336 -146q121 146 340 146q212 0 328 -133t116 -373zM1415 614q2 126 -52.5 198.5t-152.5 72.5q-100 0 -164 -73t-65 -198h434zM743 420v53l-211 -27q-109 -15 -156.5 -54.5t-47.5 -110.5q0 -58 46 -94.5t118 -36.5
q48 0 91 15t79.5 45.5t58.5 84.5t22 125z" />
    <glyph glyph-name="ccedilla" unicode="&#xe7;" horiz-adv-x="1105" 
d="M580 170q186 0 221 219l231 -47q-26 -158 -132 -255t-269 -110l-47 -75q35 28 98 28q77 0 122.5 -44.5t45.5 -123.5q0 -86 -65.5 -134t-174.5 -48q-88 0 -148 33.5t-83 95.5l143 33q19 -55 82 -55q38 0 62 22.5t24 59.5q0 35 -22.5 56t-59.5 21q-42 0 -69 -30l-101 26
l68 138q-198 25 -313 167t-115 365q0 250 135 393.5t369 143.5q190 0 308.5 -97t141.5 -272l-239 -39q-12 103 -69.5 159t-148.5 56q-114 0 -179.5 -90t-65.5 -248q0 -166 65.5 -257t184.5 -91z" />
    <glyph glyph-name="egrave" unicode="&#xe8;" horiz-adv-x="1122" 
d="M655 1176h-202l-263 305h259zM1034 563v-112h-719q1 -129 76 -206t197 -77q178 0 250 170l188 -86q-57 -133 -173 -205t-273 -72q-236 0 -369 138t-133 389q0 254 130.5 400.5t358.5 146.5q223 0 345 -126t122 -360zM793 612v17q0 125 -60 190.5t-170 65.5
q-116 0 -180.5 -72t-67.5 -201h478z" />
    <glyph glyph-name="eacute" unicode="&#xe9;" horiz-adv-x="1122" 
d="M924 1481l-262 -305h-201l205 305h258zM1034 563v-112h-719q1 -129 76 -206t197 -77q178 0 250 170l188 -86q-57 -133 -173 -205t-273 -72q-236 0 -369 138t-133 389q0 254 130.5 400.5t358.5 146.5q223 0 345 -126t122 -360zM793 612v17q0 125 -60 190.5t-170 65.5
q-116 0 -180.5 -72t-67.5 -201h478z" />
    <glyph glyph-name="ecircumflex" unicode="&#xea;" horiz-adv-x="1122" 
d="M557 1384l-145 -208h-199l221 305h248l219 -305h-196zM1034 563v-112h-719q1 -129 76 -206t197 -77q178 0 250 170l188 -86q-57 -133 -173 -205t-273 -72q-236 0 -369 138t-133 389q0 254 130.5 400.5t358.5 146.5q223 0 345 -126t122 -360zM793 612v17q0 125 -60 190.5
t-170 65.5q-116 0 -180.5 -72t-67.5 -201h478z" />
    <glyph glyph-name="edieresis" unicode="&#xeb;" horiz-adv-x="1122" 
d="M461 1438v-240h-240v240h240zM893 1438v-240h-240v240h240zM1034 563v-112h-719q1 -129 76 -206t197 -77q178 0 250 170l188 -86q-57 -133 -173 -205t-273 -72q-236 0 -369 138t-133 389q0 254 130.5 400.5t358.5 146.5q223 0 345 -126t122 -360zM793 612v17
q0 125 -60 190.5t-170 65.5q-116 0 -180.5 -72t-67.5 -201h478z" />
    <glyph glyph-name="igrave" unicode="&#xec;" horiz-adv-x="571" 
d="M383 1176h-203l-182 305h238zM164 0v1024h246v-1024h-246z" />
    <glyph glyph-name="iacute" unicode="&#xed;" horiz-adv-x="571" 
d="M188 1176l146 305h237l-182 -305h-201zM164 0v1024h246v-1024h-246z" />
    <glyph glyph-name="icircumflex" unicode="&#xee;" horiz-adv-x="571" 
d="M569 1176h-186l-96 210l-94 -210h-189l160 305h248zM164 0v1024h246v-1024h-246z" />
    <glyph glyph-name="idieresis" unicode="&#xef;" horiz-adv-x="571" 
d="M12 1198v240h228v-240h-228zM334 1198v240h227v-240h-227zM164 0v1024h246v-1024h-246z" />
    <glyph glyph-name="eth" unicode="&#xf0;" horiz-adv-x="1134" 
d="M829 1288q119 -144 183.5 -331.5t64.5 -399.5q0 -264 -141 -423t-371 -159q-228 0 -356.5 143t-128.5 394q0 247 118.5 392t321.5 145q182 0 262 -156h4q-46 169 -176 315l-233 -86l-37 90l195 70q-73 65 -173 119l191 115q117 -63 207 -150l160 57l34 -90zM575 164
q121 0 187.5 92t66.5 260q0 167 -65.5 258.5t-185.5 91.5q-114 0 -179 -92.5t-65 -257.5q0 -163 64.5 -257.5t176.5 -94.5z" />
    <glyph glyph-name="ntilde" unicode="&#xf1;" horiz-adv-x="1214" 
d="M801 1184q-52 0 -98 21.5t-74 47t-63 47t-68 21.5q-38 0 -62 -27.5t-41 -89.5l-137 37q19 116 82.5 181t161.5 65q52 0 98 -21t74 -46.5t63 -46.5t68 -21q38 0 61.5 26.5t40.5 89.5l137 -38q-19 -116 -82 -181t-161 -65zM164 0v1024h233v-199q105 224 340 224
q168 0 254 -104.5t86 -309.5v-635h-246v610q0 242 -192 242q-108 0 -168.5 -81.5t-60.5 -227.5v-543h-246z" />
    <glyph glyph-name="ograve" unicode="&#xf2;" horiz-adv-x="1159" 
d="M678 1176h-203l-262 305h258zM580 -25q-226 0 -364 143t-138 396q0 252 138 393.5t364 141.5t363.5 -141.5t137.5 -393.5q0 -253 -137.5 -396t-363.5 -143zM580 162q120 0 184.5 89.5t64.5 262.5t-64.5 260.5t-184.5 87.5q-121 0 -186.5 -88t-65.5 -260q0 -173 66 -262.5
t186 -89.5z" />
    <glyph glyph-name="oacute" unicode="&#xf3;" horiz-adv-x="1159" 
d="M481 1176l205 305h258l-262 -305h-201zM580 -25q-226 0 -364 143t-138 396q0 252 138 393.5t364 141.5t363.5 -141.5t137.5 -393.5q0 -253 -137.5 -396t-363.5 -143zM580 162q120 0 184.5 89.5t64.5 262.5t-64.5 260.5t-184.5 87.5q-121 0 -186.5 -88t-65.5 -260
q0 -173 66 -262.5t186 -89.5z" />
    <glyph glyph-name="ocircumflex" unicode="&#xf4;" horiz-adv-x="1159" 
d="M924 1176h-197l-147 208l-146 -208h-198l221 305h248zM580 -25q-226 0 -364 143t-138 396q0 252 138 393.5t364 141.5t363.5 -141.5t137.5 -393.5q0 -253 -137.5 -396t-363.5 -143zM580 162q120 0 184.5 89.5t64.5 262.5t-64.5 260.5t-184.5 87.5q-121 0 -186.5 -88
t-65.5 -260q0 -173 66 -262.5t186 -89.5z" />
    <glyph glyph-name="otilde" unicode="&#xf5;" horiz-adv-x="1159" 
d="M731 1184q-52 0 -98 21.5t-74 47t-63 47t-68 21.5q-38 0 -61.5 -27.5t-40.5 -89.5l-138 37q19 116 82.5 181t161.5 65q52 0 98 -21t74 -46.5t63 -46.5t68 -21q38 0 62 26.5t41 89.5l137 -38q-19 -116 -82.5 -181t-161.5 -65zM580 -25q-226 0 -364 143t-138 396
q0 252 138 393.5t364 141.5t363.5 -141.5t137.5 -393.5q0 -253 -137.5 -396t-363.5 -143zM580 162q120 0 184.5 89.5t64.5 262.5t-64.5 260.5t-184.5 87.5q-121 0 -186.5 -88t-65.5 -260q0 -173 66 -262.5t186 -89.5z" />
    <glyph glyph-name="odieresis" unicode="&#xf6;" horiz-adv-x="1159" 
d="M244 1198v240h239v-240h-239zM676 1198v240h239v-240h-239zM580 -25q-226 0 -364 143t-138 396q0 252 138 393.5t364 141.5t363.5 -141.5t137.5 -393.5q0 -253 -137.5 -396t-363.5 -143zM580 162q120 0 184.5 89.5t64.5 262.5t-64.5 260.5t-184.5 87.5q-121 0 -186.5 -88
t-65.5 -260q0 -173 66 -262.5t186 -89.5z" />
    <glyph glyph-name="divide" unicode="&#xf7;" horiz-adv-x="1159" 
d="M575 922q-54 0 -88 33t-34 87q0 55 34 89t88 34q53 0 87 -33.5t34 -89.5q0 -54 -34 -87t-87 -33zM96 578v184h967v-184h-967zM575 170q-54 0 -88 34t-34 89t34 89t88 34q53 0 87 -33.5t34 -89.5q0 -54 -34 -88.5t-87 -34.5z" />
    <glyph glyph-name="oslash" unicode="&#xf8;" horiz-adv-x="1159" 
d="M952 897q129 -142 129 -383q0 -253 -137.5 -396t-363.5 -143q-176 0 -297 86l-76 -94l-82 60l82 102q-129 142 -129 385q0 252 138 393.5t364 141.5q172 0 294 -84l74 92l84 -62zM328 514q0 -118 30 -197l385 484q-61 61 -163 61q-121 0 -186.5 -88t-65.5 -260zM580 162
q120 0 184.5 89.5t64.5 262.5q0 114 -28 193l-385 -480q62 -65 164 -65z" />
    <glyph glyph-name="ugrave" unicode="&#xf9;" horiz-adv-x="1200" 
d="M686 1176h-203l-262 305h258zM485 -25q-346 0 -346 392v657h246v-621q0 -113 45.5 -172t134.5 -59q101 0 163.5 78t62.5 207v567h247v-1024h-233v190q-37 -96 -124 -155.5t-196 -59.5z" />
    <glyph glyph-name="uacute" unicode="&#xfa;" horiz-adv-x="1200" 
d="M489 1176l205 305h258l-262 -305h-201zM485 -25q-346 0 -346 392v657h246v-621q0 -113 45.5 -172t134.5 -59q101 0 163.5 78t62.5 207v567h247v-1024h-233v190q-37 -96 -124 -155.5t-196 -59.5z" />
    <glyph glyph-name="ucircumflex" unicode="&#xfb;" horiz-adv-x="1200" 
d="M932 1176h-197l-147 208l-146 -208h-198l221 305h248zM485 -25q-346 0 -346 392v657h246v-621q0 -113 45.5 -172t134.5 -59q101 0 163.5 78t62.5 207v567h247v-1024h-233v190q-37 -96 -124 -155.5t-196 -59.5z" />
    <glyph glyph-name="udieresis" unicode="&#xfc;" horiz-adv-x="1200" 
d="M252 1198v240h240v-240h-240zM684 1198v240h240v-240h-240zM485 -25q-346 0 -346 392v657h246v-621q0 -113 45.5 -172t134.5 -59q101 0 163.5 78t62.5 207v567h247v-1024h-233v190q-37 -96 -124 -155.5t-196 -59.5z" />
    <glyph glyph-name="yacute" unicode="&#xfd;" horiz-adv-x="1046" 
d="M432 1176l205 305h258l-262 -305h-201zM199 -410q-38 0 -113 11v194q37 -8 86 -8q89 0 140 38.5t81 123.5l21 61l-400 1014h271l223 -670q21 -61 31 -121h4q5 38 30 121l203 670h256l-385 -1081q-68 -191 -174 -272t-274 -81z" />
    <glyph glyph-name="thorn" unicode="&#xfe;" horiz-adv-x="1226" 
d="M174 -399v1884h246v-615q49 87 130.5 133t186.5 46q124 0 218 -70.5t143 -191.5t49 -273q0 -153 -49.5 -274.5t-145.5 -193t-223 -71.5q-208 0 -309 166v-540h-246zM653 164q110 0 174 98.5t64 251.5t-64 249.5t-176 96.5q-113 0 -175 -84.5t-62 -234.5v-58
q0 -149 62.5 -234t176.5 -85z" />
    <glyph glyph-name="ydieresis" unicode="&#xff;" horiz-adv-x="1046" 
d="M195 1198v240h239v-240h-239zM627 1198v240h239v-240h-239zM199 -410q-38 0 -113 11v194q37 -8 86 -8q89 0 140 38.5t81 123.5l21 61l-400 1014h271l223 -670q21 -61 31 -121h4q5 38 30 121l203 670h256l-385 -1081q-68 -191 -174 -272t-274 -81z" />
    <glyph glyph-name="Amacron" unicode="&#x100;" horiz-adv-x="1437" 
d="M1055 1729v-166h-672v166h672zM1135 0l-131 383h-570l-131 -383h-268l540 1454h287l541 -1454h-268zM504 584h430l-170 491q-27 78 -43 156h-4q-16 -78 -43 -156z" />
    <glyph glyph-name="amacron" unicode="&#x101;" horiz-adv-x="1136" 
d="M240 1235v166h653v-166h-653zM424 -25q-158 0 -254 83.5t-96 220.5q0 153 125 231q102 59 333 92l218 27v26q0 115 -46 167t-145 52q-91 0 -143 -46.5t-58 -133.5h-252q12 164 133.5 259.5t319.5 95.5q228 0 333 -102t105 -324v-306q0 -205 31 -317h-246q-13 83 -16 176
q-37 -94 -128 -147.5t-214 -53.5zM502 150q114 0 184 74.5t70 195.5v65l-232 -34q-101 -17 -148.5 -55.5t-47.5 -104.5q0 -65 46.5 -103t127.5 -38z" />
    <glyph glyph-name="Abreve" unicode="&#x102;" horiz-adv-x="1437" 
d="M721 1532q-151 0 -236 63t-96 179h176q8 -51 48 -79t108 -28q137 0 153 107h177q-11 -116 -95.5 -179t-234.5 -63zM1135 0l-131 383h-570l-131 -383h-268l540 1454h287l541 -1454h-268zM504 584h430l-170 491q-27 78 -43 156h-4q-16 -78 -43 -156z" />
    <glyph glyph-name="abreve" unicode="&#x103;" horiz-adv-x="1136" 
d="M412 1481q4 -85 44.5 -128.5t110.5 -43.5q69 0 109.5 43.5t44.5 128.5h176q-5 -109 -51 -181.5t-116 -103.5t-163 -31q-143 0 -233.5 78t-97.5 238h176zM424 -25q-158 0 -254 83.5t-96 220.5q0 153 125 231q102 59 333 92l218 27v26q0 115 -46 167t-145 52
q-91 0 -143 -46.5t-58 -133.5h-252q12 164 133.5 259.5t319.5 95.5q228 0 333 -102t105 -324v-306q0 -205 31 -317h-246q-13 83 -16 176q-37 -94 -128 -147.5t-214 -53.5zM502 150q114 0 184 74.5t70 195.5v65l-232 -34q-101 -17 -148.5 -55.5t-47.5 -104.5q0 -65 46.5 -103
t127.5 -38z" />
    <glyph glyph-name="Aogonek" unicode="&#x104;" horiz-adv-x="1437" 
d="M1286 -197l129 -43q-30 -89 -87.5 -132.5t-153.5 -43.5q-107 0 -167.5 49.5t-60.5 135.5q0 146 189 231l-131 383h-570l-131 -383h-268l540 1454h287l541 -1454h-74q-116 -33 -169.5 -89.5t-53.5 -119.5q0 -38 21 -59t59 -21q65 0 100 92zM504 584h430l-170 491
q-27 78 -43 156h-4q-16 -78 -43 -156z" />
    <glyph glyph-name="aogonek" unicode="&#x105;" horiz-adv-x="1136" 
d="M934 -197l129 -43q-30 -88 -88 -132t-154 -44q-107 0 -167 49t-60 136q0 147 188 231q-13 83 -16 176q-37 -94 -128 -147.5t-214 -53.5q-158 0 -254 83.5t-96 220.5q0 153 125 231q102 59 333 92l218 27v26q0 115 -46 167t-145 52q-91 0 -143 -46.5t-58 -133.5h-252
q12 164 133.5 259.5t319.5 95.5q228 0 333 -102t105 -324v-306q0 -205 31 -317h-51q-116 -33 -169.5 -89.5t-53.5 -119.5q0 -38 21 -59t59 -21q65 0 100 92zM756 420v65l-232 -34q-101 -17 -148.5 -55.5t-47.5 -104.5q0 -65 46.5 -103t127.5 -38q114 0 184 74.5t70 195.5z
" />
    <glyph glyph-name="Cacute" unicode="&#x106;" horiz-adv-x="1449" 
d="M651 1542l191 232h235l-223 -232h-203zM758 -35q-168 0 -298.5 57t-213.5 160t-125.5 241.5t-42.5 305.5q0 227 79 397.5t235 266.5t370 96q265 0 421.5 -139t186.5 -377l-270 -39q-19 158 -108.5 248t-237.5 90q-190 0 -297 -146.5t-107 -394.5q0 -160 46.5 -282
t140 -192.5t223.5 -70.5q138 0 230 87.5t120 242.5l262 -53q-23 -111 -72.5 -201t-124.5 -157t-181 -103.5t-236 -36.5z" />
    <glyph glyph-name="cacute" unicode="&#x107;" horiz-adv-x="1105" 
d="M461 1176l205 305h258l-262 -305h-201zM580 -25q-229 0 -365.5 146t-136.5 391q0 250 135 393.5t369 143.5q190 0 308.5 -97t141.5 -272l-239 -39q-12 103 -69.5 159t-148.5 56q-114 0 -179.5 -90t-65.5 -248q0 -166 65.5 -257t184.5 -91q186 0 221 219l231 -47
q-28 -170 -148.5 -268.5t-303.5 -98.5z" />
    <glyph glyph-name="Ccircumflex" unicode="&#x108;" horiz-adv-x="1449" 
d="M1100 1542h-213l-133 150l-136 -150h-210l206 232h279zM758 -35q-168 0 -298.5 57t-213.5 160t-125.5 241.5t-42.5 305.5q0 227 79 397.5t235 266.5t370 96q265 0 421.5 -139t186.5 -377l-270 -39q-19 158 -108.5 248t-237.5 90q-190 0 -297 -146.5t-107 -394.5
q0 -160 46.5 -282t140 -192.5t223.5 -70.5q138 0 230 87.5t120 242.5l262 -53q-23 -111 -72.5 -201t-124.5 -157t-181 -103.5t-236 -36.5z" />
    <glyph glyph-name="ccircumflex" unicode="&#x109;" horiz-adv-x="1105" 
d="M903 1176h-196l-148 208l-145 -208h-199l221 305h248zM580 -25q-229 0 -365.5 146t-136.5 391q0 250 135 393.5t369 143.5q190 0 308.5 -97t141.5 -272l-239 -39q-12 103 -69.5 159t-148.5 56q-114 0 -179.5 -90t-65.5 -248q0 -166 65.5 -257t184.5 -91q186 0 221 219
l231 -47q-28 -170 -148.5 -268.5t-303.5 -98.5z" />
    <glyph glyph-name="Cdotaccent" unicode="&#x10a;" horiz-adv-x="1449" 
d="M616 1542v230h273v-230h-273zM758 -35q-168 0 -298.5 57t-213.5 160t-125.5 241.5t-42.5 305.5q0 227 79 397.5t235 266.5t370 96q265 0 421.5 -139t186.5 -377l-270 -39q-19 158 -108.5 248t-237.5 90q-190 0 -297 -146.5t-107 -394.5q0 -160 46.5 -282t140 -192.5
t223.5 -70.5q138 0 230 87.5t120 242.5l262 -53q-23 -111 -72.5 -201t-124.5 -157t-181 -103.5t-236 -36.5z" />
    <glyph glyph-name="cdotaccent" unicode="&#x10b;" horiz-adv-x="1105" 
d="M426 1194v256h266v-256h-266zM580 -25q-229 0 -365.5 146t-136.5 391q0 250 135 393.5t369 143.5q190 0 308.5 -97t141.5 -272l-239 -39q-12 103 -69.5 159t-148.5 56q-114 0 -179.5 -90t-65.5 -248q0 -166 65.5 -257t184.5 -91q186 0 221 219l231 -47
q-28 -170 -148.5 -268.5t-303.5 -98.5z" />
    <glyph glyph-name="Ccaron" unicode="&#x10c;" horiz-adv-x="1449" 
d="M1100 1763l-207 -231h-279l-206 231h213l133 -149l135 149h211zM758 -35q-168 0 -298.5 57t-213.5 160t-125.5 241.5t-42.5 305.5q0 227 79 397.5t235 266.5t370 96q265 0 421.5 -139t186.5 -377l-270 -39q-19 158 -108.5 248t-237.5 90q-190 0 -297 -146.5t-107 -394.5
q0 -160 46.5 -282t140 -192.5t223.5 -70.5q138 0 230 87.5t120 242.5l262 -53q-23 -111 -72.5 -201t-124.5 -157t-181 -103.5t-236 -36.5z" />
    <glyph glyph-name="ccaron" unicode="&#x10d;" horiz-adv-x="1105" 
d="M215 1470h199l145 -208l146 208h198l-219 -305h-250zM580 -25q-229 0 -365.5 146t-136.5 391q0 250 135 393.5t369 143.5q190 0 308.5 -97t141.5 -272l-239 -39q-12 103 -69.5 159t-148.5 56q-114 0 -179.5 -90t-65.5 -248q0 -166 65.5 -257t184.5 -91q186 0 221 219
l231 -47q-28 -170 -148.5 -268.5t-303.5 -98.5z" />
    <glyph glyph-name="Dcaron" unicode="&#x10e;" horiz-adv-x="1484" 
d="M1049 1763l-207 -231h-279l-207 231h213l133 -149l136 149h211zM180 0v1454h525q318 0 511 -198.5t193 -522.5q0 -214 -86.5 -380t-248 -259.5t-374.5 -93.5h-520zM444 207h248q137 0 239 72t152 189.5t50 264.5q0 149 -49 264t-149 182.5t-239 67.5h-252v-1040z" />
    <glyph glyph-name="dcaron" unicode="&#x10f;" horiz-adv-x="1310" 
d="M494 -25q-186 0 -300 147.5t-114 387.5q0 241 120 390t312 149q211 0 295 -170v606h246v-1485h-232v184q-43 -99 -128 -154t-199 -55zM1212 1077l-43 86q56 12 77.5 32.5t21.5 61.5h-119v197h231v-172q0 -85 -40 -135t-128 -70zM578 164q108 0 171.5 84.5t63.5 228.5v66
q0 150 -63.5 233.5t-174.5 83.5q-113 0 -176 -91t-63 -255t64.5 -257t177.5 -93z" />
    <glyph glyph-name="Dcroat" unicode="&#x110;" horiz-adv-x="1484" 
d="M705 1454q318 0 511 -198.5t193 -522.5q0 -214 -86.5 -380t-248 -259.5t-374.5 -93.5h-520v674h-166v168h166v612h525zM692 207q137 0 239 72t152 189.5t50 264.5q0 149 -49 264t-149 182.5t-239 67.5h-252v-405h328v-168h-328v-467h248z" />
    <glyph glyph-name="dcroat" unicode="&#x111;" horiz-adv-x="1226" 
d="M1235 1313v-111h-182v-1202h-232v184q-43 -99 -128 -154t-199 -55q-186 0 -300 147.5t-114 387.5q0 241 120 390t312 149q211 0 295 -170v323h-344v111h344v172h246v-172h182zM813 477v66q0 150 -63.5 233.5t-174.5 83.5q-113 0 -176 -91t-63 -255t64.5 -257t177.5 -93
q108 0 171.5 84.5t63.5 228.5z" />
    <glyph glyph-name="Emacron" unicode="&#x112;" horiz-adv-x="1257" 
d="M1004 1729v-166h-672v166h672zM444 207h695v-207h-959v1454h944v-207h-680v-399h646v-205h-646v-436z" />
    <glyph glyph-name="emacron" unicode="&#x113;" horiz-adv-x="1122" 
d="M885 1401v-166h-654v166h654zM1034 563v-112h-719q1 -129 76 -206t197 -77q178 0 250 170l188 -86q-57 -133 -173 -205t-273 -72q-236 0 -369 138t-133 389q0 254 130.5 400.5t358.5 146.5q223 0 345 -126t122 -360zM793 612v17q0 125 -60 190.5t-170 65.5
q-116 0 -180.5 -72t-67.5 -201h478z" />
    <glyph glyph-name="Ebreve" unicode="&#x114;" horiz-adv-x="1257" 
d="M668 1532q-151 0 -236 63t-96 179h176q8 -51 48 -79t108 -28q137 0 153 107h176q-11 -116 -95 -179t-234 -63zM444 207h695v-207h-959v1454h944v-207h-680v-399h646v-205h-646v-436z" />
    <glyph glyph-name="ebreve" unicode="&#x115;" horiz-adv-x="1122" 
d="M559 1165q-143 0 -234 78t-98 238h176q4 -85 45 -128.5t111 -43.5q69 0 109.5 43.5t44.5 128.5h176q-5 -109 -51 -181.5t-116 -103.5t-163 -31zM1034 563v-112h-719q1 -129 76 -206t197 -77q178 0 250 170l188 -86q-57 -133 -173 -205t-273 -72q-236 0 -369 138t-133 389
q0 254 130.5 400.5t358.5 146.5q223 0 345 -126t122 -360zM793 612v17q0 125 -60 190.5t-170 65.5q-116 0 -180.5 -72t-67.5 -201h478z" />
    <glyph glyph-name="Edotaccent" unicode="&#x116;" horiz-adv-x="1257" 
d="M803 1772v-230h-273v230h273zM444 207h695v-207h-959v1454h944v-207h-680v-399h646v-205h-646v-436z" />
    <glyph glyph-name="edotaccent" unicode="&#x117;" horiz-adv-x="1122" 
d="M690 1450v-256h-266v256h266zM1034 563v-112h-719q1 -129 76 -206t197 -77q178 0 250 170l188 -86q-57 -133 -173 -205t-273 -72q-236 0 -369 138t-133 389q0 254 130.5 400.5t358.5 146.5q223 0 345 -126t122 -360zM793 612v17q0 125 -60 190.5t-170 65.5
q-116 0 -180.5 -72t-67.5 -201h478z" />
    <glyph glyph-name="Eogonek" unicode="&#x118;" horiz-adv-x="1257" 
d="M1096 -197l129 -43q-30 -88 -88 -132t-154 -44q-107 0 -167 49t-60 136q0 147 188 231h-764v1454h944v-207h-680v-399h646v-205h-646v-436h695v-207q-116 -33 -170 -89.5t-54 -119.5q0 -38 21 -59t59 -21q66 0 101 92z" />
    <glyph glyph-name="eogonek" unicode="&#x119;" horiz-adv-x="1122" 
d="M1034 563v-112h-719q1 -129 76 -206t197 -77q178 0 250 170l188 -86q-86 -203 -301 -258q-105 -34 -153 -88.5t-48 -114.5q0 -38 21 -59t59 -21q66 0 101 92l129 -43q-30 -88 -88 -132t-154 -44q-107 0 -167 49t-60 136q0 130 145 211q-204 20 -318 155.5t-114 366.5
q0 254 130.5 400.5t358.5 146.5q223 0 345 -126t122 -360zM793 612v17q0 125 -60 190.5t-170 65.5q-116 0 -180.5 -72t-67.5 -201h478z" />
    <glyph glyph-name="Ecaron" unicode="&#x11a;" horiz-adv-x="1257" 
d="M807 1532h-279l-206 231h213l133 -149l135 149h211zM444 207h695v-207h-959v1454h944v-207h-680v-399h646v-205h-646v-436z" />
    <glyph glyph-name="ecaron" unicode="&#x11b;" horiz-adv-x="1122" 
d="M682 1165h-250l-219 305h199l145 -208l145 208h199zM1034 563v-112h-719q1 -129 76 -206t197 -77q178 0 250 170l188 -86q-57 -133 -173 -205t-273 -72q-236 0 -369 138t-133 389q0 254 130.5 400.5t358.5 146.5q223 0 345 -126t122 -360zM793 612v17q0 125 -60 190.5
t-170 65.5q-116 0 -180.5 -72t-67.5 -201h478z" />
    <glyph glyph-name="Gcircumflex" unicode="&#x11c;" horiz-adv-x="1505" 
d="M1102 1542h-213l-133 150l-135 -150h-211l206 232h279zM719 -35q-197 0 -343 96.5t-222 268t-76 395.5q0 169 47 309.5t135 241.5t218.5 157t291.5 56q113 0 208.5 -27t160 -71t112.5 -103t74 -118.5t37 -122.5l-262 -46q-9 52 -31 98.5t-60 88.5t-100.5 67t-142.5 25
q-197 0 -307.5 -150t-110.5 -403q0 -248 108 -398.5t312 -150.5q84 0 151.5 26.5t107 67t66 92.5t36.5 98.5t10 90.5v27h-394v202h633v-782h-188l-23 223q-52 -119 -170 -188.5t-278 -69.5z" />
    <glyph glyph-name="gcircumflex" unicode="&#x11d;" horiz-adv-x="1134" 
d="M565 1391l-145 -179h-199l221 269h248l219 -269h-196zM1016 1016q-101 0 -146 -66q109 -95 109 -245q0 -155 -114.5 -253t-307.5 -98q-121 0 -205 37q-51 -26 -51 -78q0 -94 156 -94h268q179 0 270.5 -75.5t91.5 -219.5q0 -163 -138 -255.5t-408 -92.5q-249 0 -365.5 73
t-116.5 191q0 68 44 121t126 80q-129 53 -129 184q0 154 162 217q-60 47 -92.5 115.5t-32.5 147.5q0 154 113.5 249t306.5 95q124 0 217 -41q26 88 93.5 138t174.5 50q28 0 58 -6v-184q-45 10 -84 10zM557 504q85 0 136.5 55.5t51.5 142.5q0 88 -51 142.5t-137 54.5
t-137 -53.5t-51 -140.5q0 -89 51.5 -145t136.5 -56zM688 8h-266q-32 0 -86 4q-72 -46 -72 -127q0 -149 293 -149q307 0 307 147q0 125 -176 125z" />
    <glyph glyph-name="Gbreve" unicode="&#x11e;" horiz-adv-x="1505" 
d="M602 1774q8 -51 48 -79t108 -28q137 0 153 107h176q-11 -116 -95 -179t-234 -63q-151 0 -236 63t-96 179h176zM719 -35q-197 0 -343 96.5t-222 268t-76 395.5q0 169 47 309.5t135 241.5t218.5 157t291.5 56q113 0 208.5 -27t160 -71t112.5 -103t74 -118.5t37 -122.5
l-262 -46q-9 52 -31 98.5t-60 88.5t-100.5 67t-142.5 25q-197 0 -307.5 -150t-110.5 -403q0 -248 108 -398.5t312 -150.5q84 0 151.5 26.5t107 67t66 92.5t36.5 98.5t10 90.5v27h-394v202h633v-782h-188l-23 223q-52 -119 -170 -188.5t-278 -69.5z" />
    <glyph glyph-name="gbreve" unicode="&#x11f;" horiz-adv-x="1134" 
d="M567 1165q-143 0 -233.5 78t-97.5 238h176q4 -85 44.5 -128.5t110.5 -43.5q69 0 109.5 43.5t44.5 128.5h176q-5 -109 -51 -181.5t-116 -103.5t-163 -31zM1016 1016q-101 0 -146 -66q109 -95 109 -245q0 -155 -114.5 -253t-307.5 -98q-121 0 -205 37q-51 -26 -51 -78
q0 -94 156 -94h268q179 0 270.5 -75.5t91.5 -219.5q0 -163 -138 -255.5t-408 -92.5q-249 0 -365.5 73t-116.5 191q0 68 44 121t126 80q-129 53 -129 184q0 154 162 217q-60 47 -92.5 115.5t-32.5 147.5q0 154 113.5 249t306.5 95q124 0 217 -41q26 88 93.5 138t174.5 50
q28 0 58 -6v-184q-45 10 -84 10zM557 504q85 0 136.5 55.5t51.5 142.5q0 88 -51 142.5t-137 54.5t-137 -53.5t-51 -140.5q0 -89 51.5 -145t136.5 -56zM688 8h-266q-32 0 -86 4q-72 -46 -72 -127q0 -149 293 -149q307 0 307 147q0 125 -176 125z" />
    <glyph glyph-name="Gdotaccent" unicode="&#x120;" horiz-adv-x="1505" 
d="M621 1542v230h272v-230h-272zM719 -35q-197 0 -343 96.5t-222 268t-76 395.5q0 169 47 309.5t135 241.5t218.5 157t291.5 56q113 0 208.5 -27t160 -71t112.5 -103t74 -118.5t37 -122.5l-262 -46q-9 52 -31 98.5t-60 88.5t-100.5 67t-142.5 25q-197 0 -307.5 -150
t-110.5 -403q0 -248 108 -398.5t312 -150.5q84 0 151.5 26.5t107 67t66 92.5t36.5 98.5t10 90.5v27h-394v202h633v-782h-188l-23 223q-52 -119 -170 -188.5t-278 -69.5z" />
    <glyph glyph-name="gdotaccent" unicode="&#x121;" horiz-adv-x="1134" 
d="M698 1450v-256h-266v256h266zM1016 1016q-101 0 -146 -66q109 -95 109 -245q0 -155 -114.5 -253t-307.5 -98q-121 0 -205 37q-51 -26 -51 -78q0 -94 156 -94h268q179 0 270.5 -75.5t91.5 -219.5q0 -163 -138 -255.5t-408 -92.5q-249 0 -365.5 73t-116.5 191q0 68 44 121
t126 80q-129 53 -129 184q0 154 162 217q-60 47 -92.5 115.5t-32.5 147.5q0 154 113.5 249t306.5 95q124 0 217 -41q26 88 93.5 138t174.5 50q28 0 58 -6v-184q-45 10 -84 10zM557 504q85 0 136.5 55.5t51.5 142.5q0 88 -51 142.5t-137 54.5t-137 -53.5t-51 -140.5
q0 -89 51.5 -145t136.5 -56zM688 8h-266q-32 0 -86 4q-72 -46 -72 -127q0 -149 293 -149q307 0 307 147q0 125 -176 125z" />
    <glyph glyph-name="uni0122" unicode="&#x122;" horiz-adv-x="1505" 
d="M719 -35q-197 0 -343 96.5t-222 268t-76 395.5q0 169 47 309.5t135 241.5t218.5 157t291.5 56q113 0 208.5 -27t160 -71t112.5 -103t74 -118.5t37 -122.5l-262 -46q-9 52 -31 98.5t-60 88.5t-100.5 67t-142.5 25q-197 0 -307.5 -150t-110.5 -403q0 -248 108 -398.5
t312 -150.5q84 0 151.5 26.5t107 67t66 92.5t36.5 98.5t10 90.5v27h-394v202h633v-782h-188l-23 223q-52 -119 -170 -188.5t-278 -69.5zM709 -489l-50 92q60 17 80.5 40.5t20.5 71.5h-119v197h231v-172q0 -89 -37 -146t-126 -83z" />
    <glyph glyph-name="uni0123" unicode="&#x123;" horiz-adv-x="1134" 
d="M686 1372v-196h-231v172q0 89 37 146t126 83l48 -92q-59 -17 -79 -41t-20 -72h119zM1016 1016q-101 0 -146 -66q109 -95 109 -245q0 -155 -114.5 -253t-307.5 -98q-121 0 -205 37q-51 -26 -51 -78q0 -94 156 -94h268q179 0 270.5 -75.5t91.5 -219.5q0 -163 -138 -255.5
t-408 -92.5q-249 0 -365.5 73t-116.5 191q0 68 44 121t126 80q-129 53 -129 184q0 154 162 217q-60 47 -92.5 115.5t-32.5 147.5q0 154 113.5 249t306.5 95q124 0 217 -41q26 88 93.5 138t174.5 50q28 0 58 -6v-184q-45 10 -84 10zM557 504q85 0 136.5 55.5t51.5 142.5
q0 88 -51 142.5t-137 54.5t-137 -53.5t-51 -140.5q0 -89 51.5 -145t136.5 -56zM688 8h-266q-32 0 -86 4q-72 -46 -72 -127q0 -149 293 -149q307 0 307 147q0 125 -176 125z" />
    <glyph glyph-name="Hcircumflex" unicode="&#x124;" horiz-adv-x="1542" 
d="M1118 1542h-213l-133 150l-135 -150h-211l207 232h278zM1362 1454v-1454h-264v635h-654v-635h-264v1454h264v-608h654v608h264z" />
    <glyph glyph-name="hcircumflex" unicode="&#x125;" horiz-adv-x="1224" 
d="M643 1542h-213l-133 150l-135 -150h-211l207 232h278zM174 0v1485h246v-649q92 213 330 213q166 0 251.5 -104.5t85.5 -307.5v-637h-245v616q0 117 -48.5 176.5t-142.5 59.5q-110 0 -170.5 -80.5t-60.5 -228.5v-543h-246z" />
    <glyph glyph-name="Hbar" unicode="&#x126;" horiz-adv-x="1542" 
d="M1509 1202v-131h-147v-1071h-264v635h-654v-635h-264v1071h-145v131h145v252h264v-252h654v252h264v-252h147zM1098 846v225h-654v-225h654z" />
    <glyph glyph-name="hbar" unicode="&#x127;" horiz-adv-x="1198" 
d="M750 1049q166 0 251.5 -104.5t85.5 -307.5v-637h-245v616q0 117 -48.5 176.5t-142.5 59.5q-110 0 -170.5 -80.5t-60.5 -228.5v-543h-246v1186h-174v110h174v189h246v-189h393v-110h-393v-350q92 213 330 213z" />
    <glyph glyph-name="Itilde" unicode="&#x128;" horiz-adv-x="624" 
d="M442 1532q-43 0 -81 17.5t-60.5 39t-50 39t-51.5 17.5q-54 0 -60 -86l-133 36q5 94 54 149.5t128 55.5q43 0 81 -17.5t61 -38.5t50.5 -38.5t51.5 -17.5q27 0 40.5 20.5t16.5 65.5l136 -37q-5 -94 -54.5 -149.5t-128.5 -55.5zM444 0h-264v1454h264v-1454z" />
    <glyph glyph-name="itilde" unicode="&#x129;" horiz-adv-x="571" 
d="M408 1184q-39 0 -74 21.5t-56 47t-45 47t-43 21.5q-22 0 -36 -25.5t-21 -85.5l-137 39q14 114 63 176t127 62q38 0 72.5 -21t55.5 -46.5t44.5 -46.5t42.5 -21q24 0 38 24.5t20 83.5l137 -37q-14 -114 -63 -176.5t-125 -62.5zM164 0v1024h246v-1024h-246z" />
    <glyph glyph-name="Imacron" unicode="&#x12a;" horiz-adv-x="624" 
d="M57 1563v166h510v-166h-510zM444 0h-264v1454h264v-1454z" />
    <glyph glyph-name="imacron" unicode="&#x12b;" horiz-adv-x="571" 
d="M39 1235v166h493v-166h-493zM164 0v1024h246v-1024h-246z" />
    <glyph glyph-name="Ibreve" unicode="&#x12c;" horiz-adv-x="624" 
d="M207 1774q3 -103 108 -103q51 0 78 26.5t29 76.5h174q-5 -116 -78 -179t-203 -63q-132 0 -204.5 63t-77.5 179h174zM444 0h-264v1454h264v-1454z" />
    <glyph glyph-name="ibreve" unicode="&#x12d;" horiz-adv-x="571" 
d="M201 1481q0 -96 21 -134t65 -38q42 0 62.5 38t21.5 134h174q-5 -316 -258 -316q-255 0 -258 316h172zM164 0v1024h246v-1024h-246z" />
    <glyph glyph-name="Iogonek" unicode="&#x12e;" horiz-adv-x="624" 
d="M332 -197l129 -43q-30 -88 -88 -132t-154 -44q-107 0 -167 49t-60 136q0 147 188 231v1454h264v-1454h-69q-116 -33 -169.5 -89.5t-53.5 -119.5q0 -38 20.5 -59t58.5 -21q66 0 101 92z" />
    <glyph glyph-name="iogonek" unicode="&#x12f;" horiz-adv-x="571" 
d="M418 1450v-256h-266v256h266zM315 -197l129 -43q-30 -89 -87.5 -132.5t-153.5 -43.5q-107 0 -167.5 49.5t-60.5 135.5q0 146 189 231v1024h246v-1024h-52q-116 -33 -169.5 -89.5t-53.5 -119.5q0 -38 21 -59t59 -21q65 0 100 92z" />
    <glyph glyph-name="Idotaccent" unicode="&#x130;" horiz-adv-x="624" 
d="M178 1542v230h273v-230h-273zM444 0h-264v1454h264v-1454z" />
    <glyph glyph-name="dotlessi" unicode="&#x131;" horiz-adv-x="571" 
d="M164 0v1024h246v-1024h-246z" />
    <glyph glyph-name="IJ" unicode="&#x132;" horiz-adv-x="1456" 
d="M444 0h-264v1454h264v-1454zM1303 410q0 -117 -34 -203t-96.5 -135.5t-141.5 -73t-177 -23.5q-123 0 -190 17v227q64 -10 155 -10q103 0 161 54t58 186v1005h265v-1044z" />
    <glyph glyph-name="ij" unicode="&#x133;" horiz-adv-x="1144" 
d="M152 1194v256h266v-256h-266zM727 1194v256h266v-256h-266zM164 0v1024h246v-1024h-246zM662 -414q-90 0 -140 13v188q19 -1 40.5 -2t33.5 -1.5t20 -0.5q66 0 93.5 36.5t27.5 135.5v1069h246v-1087q0 -80 -15.5 -141t-51 -110t-99.5 -74.5t-155 -25.5z" />
    <glyph glyph-name="Jcircumflex" unicode="&#x134;" horiz-adv-x="831" 
d="M834 1542h-201l-86 150l-88 -150h-199l148 232h278zM678 410q0 -117 -34 -203t-96.5 -135.5t-141.5 -73t-177 -23.5q-123 0 -190 17v227q64 -10 156 -10q103 0 161 54t58 186v1005h264v-1044z" />
    <glyph glyph-name="jcircumflex" unicode="&#x135;" horiz-adv-x="573" 
d="M571 1176h-186l-96 210l-94 -210h-189l160 305h248zM90 -414q-89 0 -139 13v188q19 -1 40.5 -2t33.5 -1.5t20 -0.5q66 0 93.5 36.5t27.5 135.5v1069h246v-1087q0 -80 -15.5 -141t-51 -110t-100 -74.5t-155.5 -25.5z" />
    <glyph glyph-name="uni0136" unicode="&#x136;" horiz-adv-x="1413" 
d="M817 868l561 -868h-305l-436 682l-193 -219v-463h-264v1454h264v-680l582 680h315zM604 -285v197h232v-172q0 -89 -37.5 -146t-126.5 -83l-49 92q60 17 80 40.5t20 71.5h-119z" />
    <glyph glyph-name="uni0137" unicode="&#x137;" horiz-adv-x="1159" 
d="M743 623l392 -623h-285l-279 463l-151 -158v-305h-246v1485h246v-916l399 455h299zM481 -285v197h232v-172q0 -89 -37.5 -146t-126.5 -83l-49 92q60 17 80 40.5t20 71.5h-119z" />
    <glyph glyph-name="kgreenlandic" unicode="&#x138;" horiz-adv-x="1148" 
d="M840 0l-279 463l-151 -158v-305h-246v1024h246v-455l399 455h299l-375 -401l391 -623h-284z" />
    <glyph glyph-name="Lacute" unicode="&#x139;" horiz-adv-x="1116" 
d="M213 1542l190 232h236l-223 -232h-203zM180 0v1454h264v-1237h635v-217h-899z" />
    <glyph glyph-name="lacute" unicode="&#x13a;" horiz-adv-x="591" 
d="M197 1542l190 232h236l-224 -232h-202zM420 1485v-1485h-246v1485h246z" />
    <glyph glyph-name="uni013B" unicode="&#x13b;" horiz-adv-x="1116" 
d="M180 0v1454h264v-1237h635v-217h-899zM580 -489l-50 92q60 17 80.5 40.5t20.5 71.5h-119v197h231v-172q0 -89 -37 -146t-126 -83z" />
    <glyph glyph-name="uni013C" unicode="&#x13c;" horiz-adv-x="591" 
d="M420 1485v-1485h-246v1485h246zM250 -489l-49 92q60 17 80 40.5t20 71.5h-119v197h232v-172q0 -89 -37.5 -146t-126.5 -83z" />
    <glyph glyph-name="Lcaron" unicode="&#x13d;" horiz-adv-x="1116" 
d="M180 0v1454h264v-1237h635v-217h-899zM649 1077l-43 86q56 12 77.5 32.5t21.5 61.5h-119v197h231v-172q0 -85 -40 -135t-128 -70z" />
    <glyph glyph-name="lcaron" unicode="&#x13e;" horiz-adv-x="677" 
d="M420 1485v-1485h-246v1485h246zM580 1077l-43 86q55 12 76.5 32.5t21.5 61.5h-119v197h232v-172q0 -85 -40 -135t-128 -70z" />
    <glyph glyph-name="Ldot" unicode="&#x13f;" horiz-adv-x="1116" 
d="M180 0v1454h264v-1237h635v-217h-899zM938 1024v-287h-291v287h291z" />
    <glyph glyph-name="ldot" unicode="&#x140;" horiz-adv-x="763" 
d="M420 1485v-1485h-246v1485h246zM860 1024v-285h-291v285h291z" />
    <glyph glyph-name="Lslash" unicode="&#x141;" horiz-adv-x="1116" 
d="M444 217h635v-217h-899v524l-176 -92v172l176 92v758h264v-618l408 215v-174l-408 -213v-447z" />
    <glyph glyph-name="lslash" unicode="&#x142;" horiz-adv-x="591" 
d="M526 1094v-142l-106 -98v-854h-246v627l-106 -99v142l106 98v717h246v-490z" />
    <glyph glyph-name="Nacute" unicode="&#x143;" horiz-adv-x="1540" 
d="M670 1542l190 232h236l-224 -232h-202zM180 0v1454h303l547 -952q60 -102 90 -187h4q-4 106 -4 189v950h240v-1454h-297l-555 956q-55 100 -88 183h-4q4 -55 4 -193v-946h-240z" />
    <glyph glyph-name="nacute" unicode="&#x144;" horiz-adv-x="1214" 
d="M551 1176l205 305h258l-262 -305h-201zM164 0v1024h233v-199q105 224 340 224q168 0 254 -104.5t86 -309.5v-635h-246v610q0 242 -192 242q-108 0 -168.5 -81.5t-60.5 -227.5v-543h-246z" />
    <glyph glyph-name="uni0145" unicode="&#x145;" horiz-adv-x="1540" 
d="M180 0v1454h303l547 -952q60 -102 90 -187h4q-4 106 -4 189v950h240v-1454h-297l-555 956q-55 100 -88 183h-4q4 -55 4 -193v-946h-240zM723 -489l-49 92q60 17 80 40.5t20 71.5h-119v197h232v-172q0 -89 -37.5 -146t-126.5 -83z" />
    <glyph glyph-name="uni0146" unicode="&#x146;" horiz-adv-x="1214" 
d="M164 0v1024h233v-199q105 224 340 224q168 0 254 -104.5t86 -309.5v-635h-246v610q0 242 -192 242q-108 0 -168.5 -81.5t-60.5 -227.5v-543h-246zM561 -489l-49 92q60 17 80 40.5t20 71.5h-118v197h231v-172q0 -89 -37.5 -146t-126.5 -83z" />
    <glyph glyph-name="Ncaron" unicode="&#x147;" horiz-adv-x="1540" 
d="M1116 1763l-207 -231h-278l-207 231h213l133 -149l135 149h211zM180 0v1454h303l547 -952q60 -102 90 -187h4q-4 106 -4 189v950h240v-1454h-297l-555 956q-55 100 -88 183h-4q4 -55 4 -193v-946h-240z" />
    <glyph glyph-name="ncaron" unicode="&#x148;" horiz-adv-x="1214" 
d="M303 1470h199l145 -208l146 208h198l-219 -305h-250zM164 0v1024h233v-199q105 224 340 224q168 0 254 -104.5t86 -309.5v-635h-246v610q0 242 -192 242q-108 0 -168.5 -81.5t-60.5 -227.5v-543h-246z" />
    <glyph glyph-name="napostrophe" unicode="&#x149;" horiz-adv-x="1224" 
d="M115 1077l-43 86q54 12 75 32.5t21 61.5h-117v197h230v-172q0 -85 -39.5 -135t-126.5 -70zM172 0v1024h236v-199q105 224 340 224q337 0 337 -414v-635h-245v610q0 242 -191 242q-109 0 -170 -81.5t-61 -227.5v-543h-246z" />
    <glyph glyph-name="Eng" unicode="&#x14a;" horiz-adv-x="1540" 
d="M1120 1454h240v-1477q0 -92 -22.5 -163t-59.5 -115.5t-90.5 -73t-111 -40t-124.5 -11.5q-108 0 -190 16v213q71 -12 176 -12q76 0 128 39t52 131v39h-55l-555 956q-55 100 -88 183h-4q4 -55 4 -193v-946h-240v1454h303l547 -952q60 -102 90 -187h4q-4 106 -4 189v950z
" />
    <glyph glyph-name="eng" unicode="&#x14b;" horiz-adv-x="1214" 
d="M737 1049q168 0 254 -104.5t86 -309.5v-662q0 -191 -70.5 -289t-244.5 -98q-77 0 -144 13v188q66 -4 91 -4q68 0 95 40t27 138v649q0 242 -192 242q-108 0 -168.5 -81.5t-60.5 -227.5v-543h-246v1024h233v-199q105 224 340 224z" />
    <glyph glyph-name="Omacron" unicode="&#x14c;" horiz-adv-x="1531" 
d="M430 1563v166h672v-166h-672zM766 -35q-314 0 -501 207t-187 555q0 353 186.5 557.5t501.5 204.5t501.5 -204.5t186.5 -557.5q0 -351 -187 -556.5t-501 -205.5zM766 178q196 0 305 146t109 403t-109 403t-305 146q-195 0 -304.5 -146t-109.5 -403q0 -254 110 -401.5
t304 -147.5z" />
    <glyph glyph-name="omacron" unicode="&#x14d;" horiz-adv-x="1159" 
d="M252 1235v166h653v-166h-653zM580 -25q-226 0 -364 143t-138 396q0 252 138 393.5t364 141.5t363.5 -141.5t137.5 -393.5q0 -253 -137.5 -396t-363.5 -143zM580 162q120 0 184.5 89.5t64.5 262.5t-64.5 260.5t-184.5 87.5q-121 0 -186.5 -88t-65.5 -260q0 -173 66 -262.5
t186 -89.5z" />
    <glyph glyph-name="Obreve" unicode="&#x14e;" horiz-adv-x="1531" 
d="M612 1774q8 -51 48 -79t108 -28q138 0 154 107h176q-11 -116 -95.5 -179t-234.5 -63q-151 0 -236 63t-96 179h176zM766 -35q-314 0 -501 207t-187 555q0 353 186.5 557.5t501.5 204.5t501.5 -204.5t186.5 -557.5q0 -351 -187 -556.5t-501 -205.5zM766 178q196 0 305 146
t109 403t-109 403t-305 146q-195 0 -304.5 -146t-109.5 -403q0 -254 110 -401.5t304 -147.5z" />
    <glyph glyph-name="obreve" unicode="&#x14f;" horiz-adv-x="1159" 
d="M424 1481q4 -85 45 -128.5t111 -43.5q69 0 109 43.5t44 128.5h176q-7 -161 -97 -238.5t-232 -77.5q-143 0 -234 78t-98 238h176zM580 -25q-226 0 -364 143t-138 396q0 252 138 393.5t364 141.5t363.5 -141.5t137.5 -393.5q0 -253 -137.5 -396t-363.5 -143zM580 162
q120 0 184.5 89.5t64.5 262.5t-64.5 260.5t-184.5 87.5q-121 0 -186.5 -88t-65.5 -260q0 -173 66 -262.5t186 -89.5z" />
    <glyph glyph-name="Ohungarumlaut" unicode="&#x150;" horiz-adv-x="1531" 
d="M487 1544l197 230h225l-209 -230h-213zM831 1544l197 230h223l-209 -230h-211zM766 -35q-314 0 -501 207t-187 555q0 353 186.5 557.5t501.5 204.5t501.5 -204.5t186.5 -557.5q0 -351 -187 -556.5t-501 -205.5zM766 178q196 0 305 146t109 403t-109 403t-305 146
q-195 0 -304.5 -146t-109.5 -403q0 -254 110 -401.5t304 -147.5z" />
    <glyph glyph-name="ohungarumlaut" unicode="&#x151;" horiz-adv-x="1159" 
d="M319 1176l177 305h200l-190 -305h-187zM649 1176l178 305h199l-188 -305h-189zM580 -25q-226 0 -364 143t-138 396q0 252 138 393.5t364 141.5t363.5 -141.5t137.5 -393.5q0 -253 -137.5 -396t-363.5 -143zM580 162q120 0 184.5 89.5t64.5 262.5t-64.5 260.5t-184.5 87.5
q-121 0 -186.5 -88t-65.5 -260q0 -173 66 -262.5t186 -89.5z" />
    <glyph glyph-name="OE" unicode="&#x152;" horiz-adv-x="2029" 
d="M1219 207h694v-207h-1110q-223 0 -388 91t-251 255.5t-86 382.5q0 334 193 529.5t528 195.5h1099v-207h-679v-399h645v-205h-645v-436zM817 207h137v1040h-141q-221 0 -342 -140.5t-121 -377.5q0 -232 125.5 -377t341.5 -145z" />
    <glyph glyph-name="oe" unicode="&#x153;" horiz-adv-x="1875" 
d="M1788 563v-112h-719q1 -129 75.5 -206t196.5 -77q178 0 250 170l189 -86q-57 -133 -173.5 -205t-273.5 -72q-256 0 -391 160q-125 -160 -362 -160q-227 0 -364.5 147t-137.5 390q0 245 136.5 391t365.5 146q237 0 366 -164q132 164 375 164q223 0 345 -126t122 -360z
M1546 612v17q0 125 -60 190.5t-171 65.5q-115 0 -179 -72t-67 -201h477zM580 162q119 0 184 92t65 258t-65.5 258t-183.5 92q-120 0 -186 -92t-66 -258t66 -258t186 -92z" />
    <glyph glyph-name="Racute" unicode="&#x154;" horiz-adv-x="1388" 
d="M993 1774l-223 -232h-203l191 232h235zM1020 0l-320 584h-256v-584h-264v1454h586q136 0 236 -33.5t157.5 -95t84 -137.5t26.5 -170q0 -138 -76 -247.5t-229 -152.5l346 -618h-291zM444 1253v-473h277q142 0 207 64t65 174q0 235 -272 235h-277z" />
    <glyph glyph-name="racute" unicode="&#x155;" horiz-adv-x="786" 
d="M309 1176l205 305h258l-262 -305h-201zM393 776q40 127 123 200t203 73q19 0 29 -2v-236q-5 0 -16 1t-17 1q-136 0 -213 -74q-56 -54 -74 -130t-18 -179v-430h-246v1024h229v-248z" />
    <glyph glyph-name="uni0156" unicode="&#x156;" horiz-adv-x="1388" 
d="M965 618l346 -618h-291l-320 584h-256v-584h-264v1454h586q136 0 236 -33.5t157.5 -95t84 -137.5t26.5 -170q0 -138 -76 -247.5t-229 -152.5zM444 1253v-473h277q142 0 207 64t65 174q0 235 -272 235h-277zM586 -285v197h231v-172q0 -89 -37.5 -146t-126.5 -83l-49 92
q60 17 80.5 40.5t20.5 71.5h-119z" />
    <glyph glyph-name="uni0157" unicode="&#x157;" horiz-adv-x="786" 
d="M393 776q40 127 123 200t203 73q19 0 29 -2v-236q-5 0 -16 1t-17 1q-136 0 -213 -74q-56 -54 -74 -130t-18 -179v-430h-246v1024h229v-248zM240 -489l-50 92q60 17 80.5 40.5t20.5 71.5h-119v197h231v-172q0 -89 -37 -146t-126 -83z" />
    <glyph glyph-name="Rcaron" unicode="&#x158;" horiz-adv-x="1388" 
d="M807 1532h-279l-206 231h213l133 -149l135 149h211zM1020 0l-320 584h-256v-584h-264v1454h586q136 0 236 -33.5t157.5 -95t84 -137.5t26.5 -170q0 -138 -76 -247.5t-229 -152.5l346 -618h-291zM444 1253v-473h277q142 0 207 64t65 174q0 235 -272 235h-277z" />
    <glyph glyph-name="rcaron" unicode="&#x159;" horiz-adv-x="786" 
d="M63 1470h199l146 -208l145 208h199l-220 -305h-249zM393 776q40 127 123 200t203 73q19 0 29 -2v-236q-5 0 -16 1t-17 1q-136 0 -213 -74q-56 -54 -74 -130t-18 -179v-430h-246v1024h229v-248z" />
    <glyph glyph-name="Sacute" unicode="&#x15a;" horiz-adv-x="1267" 
d="M539 1542l190 232h236l-224 -232h-202zM641 -35q-250 0 -407 111t-203 297l225 98q40 -134 137 -214.5t256 -80.5q79 0 142 20t105 69t42 122q0 100 -58.5 148t-187.5 75l-203 43q-380 78 -380 418q0 190 143.5 304t388.5 114q215 0 364 -89t195 -265l-211 -111
q-36 128 -126.5 196t-233.5 68q-120 0 -192 -52.5t-72 -143.5q0 -89 52.5 -139t172.5 -76l211 -46q194 -41 296.5 -138.5t102.5 -280.5q0 -196 -145.5 -321.5t-413.5 -125.5z" />
    <glyph glyph-name="sacute" unicode="&#x15b;" horiz-adv-x="1036" 
d="M418 1176l205 305h258l-263 -305h-200zM537 -25q-176 0 -300.5 72.5t-173.5 206.5l185 82q34 -87 109.5 -133.5t183.5 -46.5q93 0 142.5 35t49.5 92q0 54 -34 80t-113 38l-183 33q-292 54 -292 299q0 140 112.5 228t304.5 88q165 0 280.5 -63t152.5 -173l-170 -92
q-79 149 -275 149q-87 0 -133.5 -31t-46.5 -91q0 -51 33.5 -78t103.5 -39l201 -37q146 -26 214 -99t68 -196q0 -147 -111 -235.5t-308 -88.5z" />
    <glyph glyph-name="Scircumflex" unicode="&#x15c;" horiz-adv-x="1267" 
d="M987 1542h-213l-133 150l-135 -150h-211l207 232h278zM641 -35q-250 0 -407 111t-203 297l225 98q40 -134 137 -214.5t256 -80.5q79 0 142 20t105 69t42 122q0 100 -58.5 148t-187.5 75l-203 43q-380 78 -380 418q0 190 143.5 304t388.5 114q215 0 364 -89t195 -265
l-211 -111q-36 128 -126.5 196t-233.5 68q-120 0 -192 -52.5t-72 -143.5q0 -89 52.5 -139t172.5 -76l211 -46q194 -41 296.5 -138.5t102.5 -280.5q0 -196 -145.5 -321.5t-413.5 -125.5z" />
    <glyph glyph-name="scircumflex" unicode="&#x15d;" horiz-adv-x="1036" 
d="M858 1176h-196l-148 208l-145 -208h-199l221 305h248zM537 -25q-176 0 -300.5 72.5t-173.5 206.5l185 82q34 -87 109.5 -133.5t183.5 -46.5q93 0 142.5 35t49.5 92q0 54 -34 80t-113 38l-183 33q-292 54 -292 299q0 140 112.5 228t304.5 88q165 0 280.5 -63t152.5 -173
l-170 -92q-79 149 -275 149q-87 0 -133.5 -31t-46.5 -91q0 -51 33.5 -78t103.5 -39l201 -37q146 -26 214 -99t68 -196q0 -147 -111 -235.5t-308 -88.5z" />
    <glyph glyph-name="Scedilla" unicode="&#x15e;" horiz-adv-x="1267" 
d="M801 831q194 -41 296.5 -138.5t102.5 -280.5q0 -180 -125 -302.5t-358 -142.5l-41 -65q35 28 98 28q77 0 122.5 -44.5t45.5 -123.5q0 -86 -65.5 -134t-174.5 -48q-88 0 -148 33.5t-83 95.5l143 33q19 -55 82 -55q38 0 62 22.5t24 59.5q0 35 -22.5 56t-59.5 21
q-42 0 -69 -30l-101 26l62 125q-228 10 -372 120t-189 286l225 98q40 -134 137 -214.5t256 -80.5q79 0 142 20t105 69t42 122q0 100 -58.5 148t-187.5 75l-203 43q-380 78 -380 418q0 190 143.5 304t388.5 114q215 0 364 -89t195 -265l-211 -111q-36 128 -126.5 196
t-233.5 68q-120 0 -192 -52.5t-72 -143.5q0 -89 52.5 -139t172.5 -76z" />
    <glyph glyph-name="scedilla" unicode="&#x15f;" horiz-adv-x="1036" 
d="M674 594q146 -26 214 -99t68 -196q0 -135 -95 -222t-265 -100l-47 -75q35 28 98 28q77 0 122.5 -44.5t45.5 -123.5q0 -86 -65.5 -134t-174.5 -48q-88 0 -148 33.5t-83 95.5l143 33q19 -55 82 -55q38 0 62 22.5t24 59.5q0 35 -22.5 56t-59.5 21q-42 0 -69 -30l-101 26
l66 135q-150 14 -256 85t-150 192l185 82q34 -87 109.5 -133.5t183.5 -46.5q93 0 142.5 35t49.5 92q0 54 -34 80t-113 38l-183 33q-292 54 -292 299q0 140 112.5 228t304.5 88q165 0 280.5 -63t152.5 -173l-170 -92q-79 149 -275 149q-87 0 -133.5 -31t-46.5 -91
q0 -51 33.5 -78t103.5 -39z" />
    <glyph glyph-name="Scaron" unicode="&#x160;" horiz-adv-x="1267" 
d="M985 1763l-207 -231h-278l-207 231h213l133 -149l135 149h211zM641 -35q-250 0 -407 111t-203 297l225 98q40 -134 137 -214.5t256 -80.5q79 0 142 20t105 69t42 122q0 100 -58.5 148t-187.5 75l-203 43q-380 78 -380 418q0 190 143.5 304t388.5 114q215 0 364 -89
t195 -265l-211 -111q-36 128 -126.5 196t-233.5 68q-120 0 -192 -52.5t-72 -143.5q0 -89 52.5 -139t172.5 -76l211 -46q194 -41 296.5 -138.5t102.5 -280.5q0 -196 -145.5 -321.5t-413.5 -125.5z" />
    <glyph glyph-name="scaron" unicode="&#x161;" horiz-adv-x="1036" 
d="M170 1470h199l145 -208l145 208h199l-219 -305h-250zM537 -25q-176 0 -300.5 72.5t-173.5 206.5l185 82q34 -87 109.5 -133.5t183.5 -46.5q93 0 142.5 35t49.5 92q0 54 -34 80t-113 38l-183 33q-292 54 -292 299q0 140 112.5 228t304.5 88q165 0 280.5 -63t152.5 -173
l-170 -92q-79 149 -275 149q-87 0 -133.5 -31t-46.5 -91q0 -51 33.5 -78t103.5 -39l201 -37q146 -26 214 -99t68 -196q0 -147 -111 -235.5t-308 -88.5z" />
    <glyph glyph-name="uni0162" unicode="&#x162;" horiz-adv-x="1181" 
d="M723 0h-72l-61 -98q35 28 98 28q77 0 122.5 -44.5t45.5 -123.5q0 -86 -65.5 -134t-174.5 -48q-88 0 -148 33.5t-83 95.5l143 33q19 -55 82 -55q38 0 62 22.5t24 59.5q0 35 -22.5 56t-59.5 21q-42 0 -69 -30l-101 26l78 158h-63v1239h-441v215h1145v-215h-440v-1239z" />
    <glyph glyph-name="uni0163" unicode="&#x163;" horiz-adv-x="763" 
d="M596 -70q77 0 122.5 -44.5t45.5 -123.5q0 -86 -65.5 -134t-174.5 -48q-88 0 -148 33.5t-83 95.5l143 33q19 -55 82 -55q38 0 62 22.5t24 59.5q0 35 -22.5 56t-59.5 21q-42 0 -69 -30l-101 26l74 150q-117 25 -168 107t-51 218v529h-184v178h184v258l246 98v-356h249v-178
h-249v-490q0 -82 36.5 -121.5t112.5 -39.5q34 0 100 12v-207q-82 -18 -155 -18l-49 -80q35 28 98 28z" />
    <glyph glyph-name="Tcaron" unicode="&#x164;" horiz-adv-x="1181" 
d="M731 1532h-278l-207 231h213l133 -149l135 149h211zM1163 1454v-215h-440v-1239h-264v1239h-441v215h1145z" />
    <glyph glyph-name="tcaron" unicode="&#x165;" horiz-adv-x="770" 
d="M590 1077l-43 86q55 12 76.5 32.5t21.5 61.5h-119v197h232v-172q0 -85 -40 -135t-128 -70zM23 846v178h184v258l246 98v-356h249v-178h-249v-490q0 -82 36.5 -121.5t112.5 -39.5q34 0 100 12v-207q-89 -18 -167 -18q-177 0 -252.5 85.5t-75.5 249.5v529h-184z" />
    <glyph glyph-name="Tbar" unicode="&#x166;" horiz-adv-x="1181" 
d="M1163 1239h-440v-315h336v-133h-336v-791h-264v791h-336v133h336v315h-441v215h1145v-215z" />
    <glyph glyph-name="tbar" unicode="&#x167;" horiz-adv-x="772" 
d="M702 846h-249v-205h243v-158h-243v-127q0 -82 36.5 -121.5t112.5 -39.5q34 0 100 12v-207q-89 -18 -167 -18q-177 0 -252.5 85.5t-75.5 249.5v166h-166v158h166v205h-184v178h184v258l246 98v-356h249v-178z" />
    <glyph glyph-name="Utilde" unicode="&#x168;" horiz-adv-x="1476" 
d="M874 1526q-48 0 -90 17.5t-67.5 38.5t-57.5 38.5t-61 17.5q-37 0 -60 -24t-38 -78l-138 39q19 104 81.5 161.5t156.5 57.5q48 0 90.5 -17.5t68 -39t57.5 -39t61 -17.5q37 0 60 24.5t38 78.5l137 -39q-19 -104 -81 -161.5t-157 -57.5zM154 1454h264v-932q0 -156 83.5 -245
t235.5 -89q154 0 238 89t84 245v932h264v-946q0 -249 -155 -396t-431 -147t-429.5 146.5t-153.5 396.5v946z" />
    <glyph glyph-name="utilde" unicode="&#x169;" horiz-adv-x="1200" 
d="M739 1184q-52 0 -98 21.5t-74 47t-63 47t-68 21.5q-38 0 -61.5 -27.5t-40.5 -89.5l-137 37q19 116 82 181t161 65q52 0 98 -21t74 -46.5t63 -46.5t68 -21q38 0 62 26.5t41 89.5l137 -38q-19 -116 -82.5 -181t-161.5 -65zM485 -25q-346 0 -346 392v657h246v-621
q0 -113 45.5 -172t134.5 -59q101 0 163.5 78t62.5 207v567h247v-1024h-233v190q-37 -96 -124 -155.5t-196 -59.5z" />
    <glyph glyph-name="Umacron" unicode="&#x16a;" horiz-adv-x="1476" 
d="M401 1563v166h672v-166h-672zM154 1454h264v-932q0 -156 83.5 -245t235.5 -89q154 0 238 89t84 245v932h264v-946q0 -249 -155 -396t-431 -147t-429.5 146.5t-153.5 396.5v946z" />
    <glyph glyph-name="umacron" unicode="&#x16b;" horiz-adv-x="1200" 
d="M262 1235v166h653v-166h-653zM485 -25q-346 0 -346 392v657h246v-621q0 -113 45.5 -172t134.5 -59q101 0 163.5 78t62.5 207v567h247v-1024h-233v190q-37 -96 -124 -155.5t-196 -59.5z" />
    <glyph glyph-name="Ubreve" unicode="&#x16c;" horiz-adv-x="1476" 
d="M584 1774q16 -107 155 -107q138 0 154 107h176q-11 -116 -95.5 -179t-234.5 -63q-151 0 -235.5 63t-95.5 179h176zM154 1454h264v-932q0 -156 83.5 -245t235.5 -89q154 0 238 89t84 245v932h264v-946q0 -249 -155 -396t-431 -147t-429.5 146.5t-153.5 396.5v946z" />
    <glyph glyph-name="ubreve" unicode="&#x16d;" horiz-adv-x="1200" 
d="M434 1481q4 -85 45 -128.5t111 -43.5q69 0 109 43.5t44 128.5h177q-5 -109 -51 -181.5t-116 -103.5t-163 -31q-143 0 -234 78t-98 238h176zM485 -25q-346 0 -346 392v657h246v-621q0 -113 45.5 -172t134.5 -59q101 0 163.5 78t62.5 207v567h247v-1024h-233v190
q-37 -96 -124 -155.5t-196 -59.5z" />
    <glyph glyph-name="Uring" unicode="&#x16e;" horiz-adv-x="1476" 
d="M737 1518q-107 0 -173 61.5t-66 161.5t66 161.5t173 61.5q109 0 175.5 -61.5t66.5 -161.5t-66.5 -161.5t-175.5 -61.5zM737 1632q47 0 77 31t30 78q0 49 -30 79.5t-77 30.5t-76.5 -30.5t-29.5 -79.5q0 -48 29.5 -78.5t76.5 -30.5zM154 1454h264v-932q0 -156 83.5 -245
t235.5 -89q154 0 238 89t84 245v932h264v-946q0 -249 -155 -396t-431 -147t-429.5 146.5t-153.5 396.5v946z" />
    <glyph glyph-name="uring" unicode="&#x16f;" horiz-adv-x="1200" 
d="M588 1130q-107 0 -173.5 62.5t-66.5 161.5q0 100 66.5 162.5t173.5 62.5t174 -62.5t67 -162.5q0 -99 -67 -161.5t-174 -62.5zM588 1245q47 0 76.5 30.5t29.5 78.5q0 49 -29.5 79.5t-76.5 30.5t-77 -30.5t-30 -79.5q0 -47 30 -78t77 -31zM485 -25q-346 0 -346 392v657h246
v-621q0 -113 45.5 -172t134.5 -59q101 0 163.5 78t62.5 207v567h247v-1024h-233v190q-37 -96 -124 -155.5t-196 -59.5z" />
    <glyph glyph-name="Uhungarumlaut" unicode="&#x170;" horiz-adv-x="1476" 
d="M459 1544l196 230h226l-209 -230h-213zM803 1544l196 230h224l-209 -230h-211zM154 1454h264v-932q0 -156 83.5 -245t235.5 -89q154 0 238 89t84 245v932h264v-946q0 -249 -155 -396t-431 -147t-429.5 146.5t-153.5 396.5v946z" />
    <glyph glyph-name="uhungarumlaut" unicode="&#x171;" horiz-adv-x="1200" 
d="M328 1176l176 305h201l-191 -305h-186zM657 1176l179 305h198l-188 -305h-189zM485 -25q-346 0 -346 392v657h246v-621q0 -113 45.5 -172t134.5 -59q101 0 163.5 78t62.5 207v567h247v-1024h-233v190q-37 -96 -124 -155.5t-196 -59.5z" />
    <glyph glyph-name="Uogonek" unicode="&#x172;" horiz-adv-x="1476" 
d="M1059 1454h264v-946q0 -210 -112 -349t-316 -179q-85 -34 -124.5 -84.5t-39.5 -104.5q0 -38 21 -59t59 -21q65 0 100 92l129 -43q-30 -89 -87.5 -132.5t-153.5 -43.5q-107 0 -167.5 49.5t-60.5 135.5q0 120 125 196q-258 12 -400 158t-142 385v946h264v-932
q0 -156 83.5 -245t235.5 -89q154 0 238 89t84 245v932z" />
    <glyph glyph-name="uogonek" unicode="&#x173;" horiz-adv-x="1200" 
d="M956 -197l129 -43q-30 -89 -87.5 -132.5t-153.5 -43.5q-107 0 -167.5 49.5t-60.5 135.5q0 146 189 231v190q-37 -96 -124 -155.5t-196 -59.5q-346 0 -346 392v657h246v-621q0 -113 45.5 -172t134.5 -59q101 0 163.5 78t62.5 207v567h247v-1024h-39q-116 -33 -169.5 -89.5
t-53.5 -119.5q0 -38 21 -59t59 -21q65 0 100 92z" />
    <glyph glyph-name="Wcircumflex" unicode="&#x174;" horiz-adv-x="1916" 
d="M1305 1542h-213l-134 150l-135 -150h-211l207 232h279zM391 0l-346 1454h268l222 -1065q8 -45 12 -98h6q3 42 16 98l256 1065h267l256 -1065q13 -56 16 -98h6q4 53 12 98l222 1065h268l-346 -1454h-307l-244 1065q-10 50 -12 86h-9q-2 -36 -12 -86l-244 -1065h-307z" />
    <glyph glyph-name="wcircumflex" unicode="&#x175;" horiz-adv-x="1542" 
d="M1116 1176h-196l-148 208l-145 -208h-199l221 305h248zM324 0l-281 1024h242l157 -682q17 -96 19 -111h4q9 55 22 111l168 682h232l170 -682q20 -109 20 -111h4q7 42 19 111l160 682h241l-282 -1024h-250l-174 664q-21 106 -21 112h-4q-9 -63 -22 -112l-175 -664h-249z
" />
    <glyph glyph-name="Ycircumflex" unicode="&#x176;" horiz-adv-x="1239" 
d="M967 1542h-213l-133 150l-136 -150h-211l207 232h279zM485 0v555l-489 899h287l297 -580q29 -54 38 -94h5q8 37 36 94l297 580h287l-489 -899v-555h-269z" />
    <glyph glyph-name="ycircumflex" unicode="&#x177;" horiz-adv-x="1046" 
d="M872 1176h-196l-148 208l-145 -208h-199l222 305h247zM199 -410q-38 0 -113 11v194q37 -8 86 -8q89 0 140 38.5t81 123.5l21 61l-400 1014h271l223 -670q21 -61 31 -121h4q5 38 30 121l203 670h256l-385 -1081q-68 -191 -174 -272t-274 -81z" />
    <glyph glyph-name="Ydieresis" unicode="&#x178;" horiz-adv-x="1239" 
d="M272 1542v217h234v-217h-234zM733 1542v217h234v-217h-234zM485 0v555l-489 899h287l297 -580q29 -54 38 -94h5q8 37 36 94l297 580h287l-489 -899v-555h-269z" />
    <glyph glyph-name="Zacute" unicode="&#x179;" horiz-adv-x="1202" 
d="M510 1542l190 232h236l-223 -232h-203zM72 213l762 1028h-734v213h1028v-213l-761 -1030h792v-211h-1087v213z" />
    <glyph glyph-name="zacute" unicode="&#x17a;" horiz-adv-x="958" 
d="M385 1176l205 305h258l-262 -305h-201zM59 162l527 676h-504v186h792v-156l-516 -678h547v-190h-846v162z" />
    <glyph glyph-name="Zdotaccent" unicode="&#x17b;" horiz-adv-x="1202" 
d="M475 1542v230h273v-230h-273zM72 213l762 1028h-734v213h1028v-213l-761 -1030h792v-211h-1087v213z" />
    <glyph glyph-name="zdotaccent" unicode="&#x17c;" horiz-adv-x="958" 
d="M348 1194v256h266v-256h-266zM59 162l527 676h-504v186h792v-156l-516 -678h547v-190h-846v162z" />
    <glyph glyph-name="Zcaron" unicode="&#x17d;" horiz-adv-x="1202" 
d="M956 1763l-206 -231h-279l-207 231h213l133 -149l135 149h211zM72 213l762 1028h-734v213h1028v-213l-761 -1030h792v-211h-1087v213z" />
    <glyph glyph-name="zcaron" unicode="&#x17e;" horiz-adv-x="958" 
d="M137 1470h199l145 -208l146 208h198l-219 -305h-250zM59 162l527 676h-504v186h792v-156l-516 -678h547v-190h-846v162z" />
    <glyph glyph-name="florin" unicode="&#x192;" horiz-adv-x="894" 
d="M774 1247q-52 0 -87 -13.5t-55.5 -44.5t-31 -65.5t-18.5 -91.5l-21 -155h240v-175h-262l-136 -1009h-249l135 1009h-221v175h243l17 118q13 91 29.5 155.5t47.5 123.5t75.5 95t112.5 56.5t159 20.5q68 0 125 -14l-3 -195q-49 10 -100 10z" />
    <glyph glyph-name="AEacute" unicode="&#x1fc;" horiz-adv-x="1964" 
d="M1673 1774l-223 -232h-203l191 232h235zM1196 207h651v-207h-915v340h-500l-184 -340h-273l846 1454h1012v-207h-637v-399h602v-205h-602v-436zM543 541h389v716z" />
    <glyph glyph-name="aeacute" unicode="&#x1fd;" horiz-adv-x="1746" 
d="M1237 1481l-262 -305h-201l205 305h258zM1661 543v-90h-680q2 -129 71 -207t183 -78q80 0 138 43.5t89 126.5l191 -86q-55 -133 -166 -205t-262 -72q-277 0 -396 215q-53 -104 -158.5 -159.5t-242.5 -55.5q-162 0 -258 80.5t-96 220.5q0 263 368 308l295 34v33
q0 112 -47.5 165.5t-146.5 53.5q-90 0 -140.5 -45t-54.5 -131h-246q12 166 127.5 260.5t311.5 94.5q233 0 336 -146q121 146 340 146q212 0 328 -133t116 -373zM1415 614q2 126 -52.5 198.5t-152.5 72.5q-100 0 -164 -73t-65 -198h434zM743 420v53l-211 -27
q-109 -15 -156.5 -54.5t-47.5 -110.5q0 -58 46 -94.5t118 -36.5q48 0 91 15t79.5 45.5t58.5 84.5t22 125z" />
    <glyph glyph-name="Oslashacute" unicode="&#x1fe;" horiz-adv-x="1531" 
d="M1094 1774l-224 -232h-202l190 232h236zM1278 1272q176 -204 176 -545q0 -351 -187 -556.5t-501 -205.5q-241 0 -410 125l-96 -125l-110 82l106 135q-178 206 -178 545q0 353 186.5 557.5t501.5 204.5q243 0 412 -125l96 123l110 -80zM352 727q0 -192 68 -334l610 783
q-103 100 -264 100q-195 0 -304.5 -146t-109.5 -403zM766 178q196 0 305 146t109 403q0 200 -66 332l-610 -780q104 -101 262 -101z" />
    <glyph glyph-name="oslashacute" unicode="&#x1ff;" horiz-adv-x="1159" 
d="M952 1481l-262 -305h-201l205 305h258zM952 897q129 -142 129 -383q0 -253 -137.5 -396t-363.5 -143q-176 0 -297 86l-76 -94l-82 60l82 102q-129 142 -129 385q0 252 138 393.5t364 141.5q172 0 294 -84l74 92l84 -62zM328 514q0 -118 30 -197l385 484q-61 61 -163 61
q-121 0 -186.5 -88t-65.5 -260zM580 162q120 0 184.5 89.5t64.5 262.5q0 114 -28 193l-385 -480q62 -65 164 -65z" />
    <glyph glyph-name="uni0218" unicode="&#x218;" horiz-adv-x="1267" 
d="M641 -35q-250 0 -407 111t-203 297l225 98q40 -134 137 -214.5t256 -80.5q79 0 142 20t105 69t42 122q0 100 -58.5 148t-187.5 75l-203 43q-380 78 -380 418q0 190 143.5 304t388.5 114q215 0 364 -89t195 -265l-211 -111q-36 128 -126.5 196t-233.5 68
q-120 0 -192 -52.5t-72 -143.5q0 -89 52.5 -139t172.5 -76l211 -46q194 -41 296.5 -138.5t102.5 -280.5q0 -196 -145.5 -321.5t-413.5 -125.5zM629 -489l-49 92q60 17 80 40.5t20 71.5h-119v197h232v-172q0 -89 -37.5 -146t-126.5 -83z" />
    <glyph glyph-name="uni0219" unicode="&#x219;" horiz-adv-x="1036" 
d="M537 -25q-176 0 -300.5 72.5t-173.5 206.5l185 82q34 -87 109.5 -133.5t183.5 -46.5q93 0 142.5 35t49.5 92q0 54 -34 80t-113 38l-183 33q-292 54 -292 299q0 140 112.5 228t304.5 88q165 0 280.5 -63t152.5 -173l-170 -92q-79 149 -275 149q-87 0 -133.5 -31t-46.5 -91
q0 -51 33.5 -78t103.5 -39l201 -37q146 -26 214 -99t68 -196q0 -147 -111 -235.5t-308 -88.5zM502 -489l-49 92q60 17 80 40.5t20 71.5h-119v197h232v-172q0 -89 -37.5 -146t-126.5 -83z" />
    <glyph glyph-name="uni021A" unicode="&#x21a;" horiz-adv-x="1181" 
d="M1163 1454v-215h-440v-1239h-264v1239h-441v215h1145zM475 -285v197h232v-172q0 -89 -37.5 -146t-126.5 -83l-49 92q60 17 80 40.5t20 71.5h-119z" />
    <glyph glyph-name="uni021B" unicode="&#x21b;" horiz-adv-x="763" 
d="M23 846v178h184v258l246 98v-356h249v-178h-249v-490q0 -82 36.5 -121.5t112.5 -39.5q34 0 100 12v-207q-89 -18 -167 -18q-177 0 -252.5 85.5t-75.5 249.5v529h-184zM451 -489l-50 92q60 17 80.5 40.5t20.5 71.5h-119v197h231v-172q0 -89 -37 -146t-126 -83z" />
    <glyph glyph-name="uni0237" unicode="&#x237;" horiz-adv-x="573" 
d="M90 -414q-89 0 -139 13v188q19 -1 40.5 -2t33.5 -1.5t20 -0.5q66 0 93.5 36.5t27.5 135.5v1069h246v-1087q0 -80 -15.5 -141t-51 -110t-100 -74.5t-155.5 -25.5z" />
    <glyph glyph-name="uni0243" unicode="&#x243;" horiz-adv-x="1347" 
d="M1255 403q0 -74 -22.5 -139.5t-69.5 -122t-129 -93.5t-192 -46v-221h-115v219h-145v-219h-115v219h-287v1423h287v185h115v-185h145v185h115v-189q102 -11 177 -44.5t117 -84t61.5 -107.5t19.5 -124q0 -114 -62 -199t-188 -117q140 -23 214 -110.5t74 -229.5zM696 1231
h-268v-414h268q76 0 129 18.5t80 50.5t38 67t11 77q0 201 -258 201zM727 193q138 0 202 64t64 169q0 98 -63 157.5t-189 59.5h-313v-450h299z" />
    <glyph glyph-name="circumflex" unicode="&#x2c6;" horiz-adv-x="1228" 
d="M782 1176h-196l-148 208l-145 -208h-199l221 305h248z" />
    <glyph glyph-name="caron" unicode="&#x2c7;" horiz-adv-x="1228" 
d="M94 1470h199l145 -208l146 208h198l-219 -305h-250z" />
    <glyph glyph-name="breve" unicode="&#x2d8;" horiz-adv-x="1228" 
d="M281 1481q4 -85 44.5 -128.5t110.5 -43.5q69 0 109.5 43.5t44.5 128.5h176q-5 -109 -51 -181.5t-116 -103.5t-163 -31q-143 0 -234 78t-98 238h177z" />
    <glyph glyph-name="dotaccent" unicode="&#x2d9;" horiz-adv-x="1228" 
d="M100 1194v256h267v-256h-267z" />
    <glyph glyph-name="ring" unicode="&#x2da;" horiz-adv-x="1228" 
d="M330 1130q-107 0 -173.5 62.5t-66.5 161.5q0 100 66.5 162.5t173.5 62.5t174 -62.5t67 -162.5q0 -99 -67 -161.5t-174 -62.5zM330 1245q47 0 76.5 30.5t29.5 78.5q0 49 -29.5 79.5t-76.5 30.5t-77 -30.5t-30 -79.5q0 -47 30 -78t77 -31z" />
    <glyph glyph-name="ogonek" unicode="&#x2db;" horiz-adv-x="1228" 
d="M571 -240q-30 -89 -87.5 -132.5t-153.5 -43.5q-107 0 -167.5 49.5t-60.5 135.5q0 146 189 231h194q-116 -33 -169.5 -89.5t-53.5 -119.5q0 -38 21 -59t59 -21q65 0 100 92z" />
    <glyph glyph-name="tilde" unicode="&#x2dc;" horiz-adv-x="1228" 
d="M649 1184q-52 0 -98 21.5t-74 47t-63 47t-68 21.5q-38 0 -61.5 -27.5t-40.5 -89.5l-138 37q19 116 82.5 181t161.5 65q52 0 98 -21t74 -46.5t63 -46.5t68 -21q38 0 62 26.5t41 89.5l137 -38q-19 -116 -82.5 -181t-161.5 -65z" />
    <glyph glyph-name="hungarumlaut" unicode="&#x2dd;" horiz-adv-x="1228" 
d="M141 1176l176 305h201l-190 -305h-187zM471 1176l178 305h199l-189 -305h-188z" />
    <glyph glyph-name="gravecomb" unicode="&#x300;" horiz-adv-x="0" 
d="M-61 1176h-203l-262 305h258z" />
    <glyph glyph-name="acutecomb" unicode="&#x301;" horiz-adv-x="0" 
d="M-545 1176l205 305h258l-262 -305h-201z" />
    <glyph glyph-name="uni0302" unicode="&#x302;" horiz-adv-x="0" 
d="M-94 1176h-197l-147 208l-146 -208h-198l221 305h248z" />
    <glyph glyph-name="tildecomb" unicode="&#x303;" horiz-adv-x="0" 
d="M-348 1184q-52 0 -98 21.5t-74 47t-63 47t-68 21.5q-38 0 -62 -27.5t-41 -89.5l-137 37q19 116 82.5 181t161.5 65q52 0 98 -21t74 -46.5t63 -46.5t68 -21q38 0 61.5 26.5t40.5 89.5l138 -38q-19 -116 -82.5 -181t-161.5 -65z" />
    <glyph glyph-name="uni0304" unicode="&#x304;" horiz-adv-x="0" 
d="M-741 1235v166h653v-166h-653z" />
    <glyph glyph-name="uni0306" unicode="&#x306;" horiz-adv-x="0" 
d="M-590 1481q4 -85 45 -128.5t111 -43.5q69 0 109 43.5t44 128.5h177q-5 -109 -51 -181.5t-116 -103.5t-163 -31q-143 0 -234 78t-98 238h176z" />
    <glyph glyph-name="uni0307" unicode="&#x307;" horiz-adv-x="0" 
d="M-367 1194v256h267v-256h-267z" />
    <glyph glyph-name="uni0308" unicode="&#x308;" horiz-adv-x="0" 
d="M-764 1198v240h240v-240h-240zM-332 1198v240h240v-240h-240z" />
    <glyph glyph-name="uni030A" unicode="&#x30a;" horiz-adv-x="0" 
d="M-330 1130q-107 0 -173 62.5t-66 161.5q0 100 66 162.5t173 62.5t174.5 -62.5t67.5 -162.5q0 -98 -67.5 -161t-174.5 -63zM-330 1245q47 0 77 31t30 78q0 49 -30 79.5t-77 30.5t-76.5 -30.5t-29.5 -79.5q0 -48 29.5 -78.5t76.5 -30.5z" />
    <glyph glyph-name="uni030B" unicode="&#x30b;" horiz-adv-x="0" 
d="M-848 1176l176 305h201l-191 -305h-186zM-518 1176l178 305h199l-189 -305h-188z" />
    <glyph glyph-name="uni030C" unicode="&#x30c;" horiz-adv-x="0" 
d="M-782 1470h198l146 -208l145 208h199l-219 -305h-250z" />
    <glyph glyph-name="uni0312" unicode="&#x312;" horiz-adv-x="0" 
d="M-170 1577l47 -92q-59 -17 -78.5 -40.5t-19.5 -72.5h119v-196h-232v172q0 89 37.5 146t126.5 83z" />
    <glyph glyph-name="uni0326" unicode="&#x326;" horiz-adv-x="0" 
d="M-266 -489l-49 92q60 17 80 40.5t20 71.5h-119v197h232v-172q0 -89 -37.5 -146t-126.5 -83z" />
    <glyph glyph-name="uni0327" unicode="&#x327;" horiz-adv-x="0" 
d="M-434 14h131l-70 -112q35 28 99 28q77 0 122.5 -44.5t45.5 -123.5q0 -86 -65.5 -134t-174.5 -48q-88 0 -148.5 33.5t-83.5 95.5l144 33q19 -55 82 -55q38 0 62 22.5t24 59.5q0 35 -22.5 56t-59.5 21q-43 0 -70 -30l-100 26z" />
    <glyph glyph-name="uni0328" unicode="&#x328;" horiz-adv-x="0" 
d="M-115 -240q-30 -89 -87.5 -132.5t-153.5 -43.5q-107 0 -167.5 49.5t-60.5 135.5q0 146 189 231h194q-116 -33 -169.5 -89.5t-53.5 -119.5q0 -38 21 -59t59 -21q65 0 100 92z" />
    <glyph glyph-name="uni0394" unicode="&#x394;" horiz-adv-x="1284" 
d="M18 0l490 1454h276l484 -1454h-1250zM643 1190l-324 -993h637z" />
    <glyph glyph-name="uni03A9" unicode="&#x3a9;" horiz-adv-x="1347" 
d="M1247 0h-473l-33 504q141 26 217 128t76 263q0 177 -97 280t-263 103t-263.5 -103t-97.5 -280q0 -161 76 -263t217 -128l-33 -504h-473v211h291l12 160q-158 55 -245.5 195t-87.5 335q0 261 166.5 421.5t437.5 160.5q270 0 437 -160.5t167 -421.5q0 -195 -88 -335
t-246 -195l12 -160h291v-211z" />
    <glyph glyph-name="uni03BC" unicode="&#x3bc;" horiz-adv-x="1224" 
d="M815 1024h248v-1024h-234v190q-37 -97 -123.5 -156t-195.5 -59q-64 0 -127 17v-391h-219v1423h246v-621q0 -113 45.5 -172t134.5 -59q101 0 163 78t62 207v567z" />
    <glyph glyph-name="pi" unicode="&#x3c0;" horiz-adv-x="1255" 
d="M1188 4q-65 -18 -125 -18q-154 0 -217.5 75t-63.5 215v572h-305v-848h-244v848h-165v176h1122v-176h-166v-561q0 -107 98 -107q24 0 66 6v-182z" />
    <glyph glyph-name="uni0E3F" unicode="&#xe3f;" horiz-adv-x="1347" 
d="M967 743q140 -23 214 -110.5t74 -229.5q0 -192 -128 -297.5t-355 -105.5h-45v-219h-115v219h-432v1423h432v187h115v-187h10q228 0 354 -95.5t126 -274.5q0 -118 -65 -198.5t-185 -111.5zM422 1235v-420h190v420h-190zM961 1030q0 193 -234 205v-420q114 6 174 60.5
t60 154.5zM422 188h190v457h-190v-457zM733 188q127 0 196.5 62t69.5 176q0 104 -65.5 161.5t-185.5 57.5h-21v-457h6z" />
    <glyph glyph-name="Wgrave" unicode="&#x1e80;" horiz-adv-x="1916" 
d="M1055 1542h-205l-223 232h235zM391 0l-346 1454h268l222 -1065q8 -45 12 -98h6q3 42 16 98l256 1065h267l256 -1065q13 -56 16 -98h6q4 53 12 98l222 1065h268l-346 -1454h-307l-244 1065q-10 50 -12 86h-9q-2 -36 -12 -86l-244 -1065h-307z" />
    <glyph glyph-name="wgrave" unicode="&#x1e81;" horiz-adv-x="1542" 
d="M870 1176h-202l-262 305h258zM324 0l-281 1024h242l157 -682q17 -96 19 -111h4q9 55 22 111l168 682h232l170 -682q20 -109 20 -111h4q7 42 19 111l160 682h241l-282 -1024h-250l-174 664q-21 106 -21 112h-4q-9 -63 -22 -112l-175 -664h-249z" />
    <glyph glyph-name="Wacute" unicode="&#x1e82;" horiz-adv-x="1916" 
d="M858 1542l191 232h235l-223 -232h-203zM391 0l-346 1454h268l222 -1065q8 -45 12 -98h6q3 42 16 98l256 1065h267l256 -1065q13 -56 16 -98h6q4 53 12 98l222 1065h268l-346 -1454h-307l-244 1065q-10 50 -12 86h-9q-2 -36 -12 -86l-244 -1065h-307z" />
    <glyph glyph-name="wacute" unicode="&#x1e83;" horiz-adv-x="1542" 
d="M674 1176l205 305h258l-263 -305h-200zM324 0l-281 1024h242l157 -682q17 -96 19 -111h4q9 55 22 111l168 682h232l170 -682q20 -109 20 -111h4q7 42 19 111l160 682h241l-282 -1024h-250l-174 664q-21 106 -21 112h-4q-9 -63 -22 -112l-175 -664h-249z" />
    <glyph glyph-name="Wdieresis" unicode="&#x1e84;" horiz-adv-x="1916" 
d="M612 1542v217h234v-217h-234zM1073 1542v217h234v-217h-234zM391 0l-346 1454h268l222 -1065q8 -45 12 -98h6q3 42 16 98l256 1065h267l256 -1065q13 -56 16 -98h6q4 53 12 98l222 1065h268l-346 -1454h-307l-244 1065q-10 50 -12 86h-9q-2 -36 -12 -86l-244 -1065h-307z
" />
    <glyph glyph-name="wdieresis" unicode="&#x1e85;" horiz-adv-x="1542" 
d="M436 1198v240h240v-240h-240zM868 1198v240h240v-240h-240zM324 0l-281 1024h242l157 -682q17 -96 19 -111h4q9 55 22 111l168 682h232l170 -682q20 -109 20 -111h4q7 42 19 111l160 682h241l-282 -1024h-250l-174 664q-21 106 -21 112h-4q-9 -63 -22 -112l-175 -664
h-249z" />
    <glyph glyph-name="Ygrave" unicode="&#x1ef2;" horiz-adv-x="1239" 
d="M717 1542h-205l-223 232h235zM485 0v555l-489 899h287l297 -580q29 -54 38 -94h5q8 37 36 94l297 580h287l-489 -899v-555h-269z" />
    <glyph glyph-name="ygrave" unicode="&#x1ef3;" horiz-adv-x="1046" 
d="M629 1176h-203l-262 305h258zM199 -410q-38 0 -113 11v194q37 -8 86 -8q89 0 140 38.5t81 123.5l21 61l-400 1014h271l223 -670q21 -61 31 -121h4q5 38 30 121l203 670h256l-385 -1081q-68 -191 -174 -272t-274 -81z" />
    <glyph glyph-name="uni2002" unicode="&#x2002;" horiz-adv-x="1024" 
 />
    <glyph glyph-name="uni2003" unicode="&#x2003;" horiz-adv-x="2048" 
 />
    <glyph glyph-name="uni2004" unicode="&#x2004;" horiz-adv-x="681" 
 />
    <glyph glyph-name="uni2005" unicode="&#x2005;" horiz-adv-x="512" 
 />
    <glyph glyph-name="uni2009" unicode="&#x2009;" horiz-adv-x="276" 
 />
    <glyph glyph-name="uni200A" unicode="&#x200a;" horiz-adv-x="153" 
 />
    <glyph glyph-name="endash" unicode="&#x2013;" horiz-adv-x="1153" 
d="M96 659h961v-180h-961v180z" />
    <glyph glyph-name="emdash" unicode="&#x2014;" horiz-adv-x="1687" 
d="M96 659h1495v-180h-1495v180z" />
    <glyph glyph-name="quoteleft" unicode="&#x2018;" horiz-adv-x="552" 
d="M354 1493l56 -111q-81 -31 -107.5 -70t-26.5 -114v-6h146v-285h-291v269q0 127 50 200t173 117z" />
    <glyph glyph-name="quoteright" unicode="&#x2019;" horiz-adv-x="552" 
d="M199 868l-56 111q80 31 106.5 70t26.5 114v6h-145v285h291v-268q0 -128 -50 -201t-173 -117z" />
    <glyph glyph-name="quotesinglbase" unicode="&#x201a;" horiz-adv-x="552" 
d="M199 -301l-56 111q80 31 106.5 70t26.5 114v6h-145v285h291v-269q0 -127 -50 -200t-173 -117z" />
    <glyph glyph-name="quotedblleft" unicode="&#x201c;" horiz-adv-x="940" 
d="M354 1495l56 -113q-81 -30 -107.5 -69t-26.5 -115v-4h146v-287h-291v271q0 127 50 200t173 117zM739 1495l58 -113q-81 -30 -108 -69t-27 -115v-4h147v-287h-291v271q0 127 50 200t171 117z" />
    <glyph glyph-name="quotedblright" unicode="&#x201d;" horiz-adv-x="940" 
d="M199 868l-56 111q80 31 106.5 70t26.5 114v6h-145v285h291v-268q0 -128 -50 -201t-173 -117zM586 868l-58 111q81 31 108.5 70.5t27.5 113.5v6h-146v285h291v-268q0 -128 -50 -201t-173 -117z" />
    <glyph glyph-name="quotedblbase" unicode="&#x201e;" horiz-adv-x="940" 
d="M199 -301l-56 111q80 31 106.5 70t26.5 114v6h-145v285h291v-269q0 -127 -50 -200t-173 -117zM586 -301l-58 111q81 31 108.5 70.5t27.5 113.5v6h-146v285h291v-269q0 -127 -50 -200t-173 -117z" />
    <glyph glyph-name="dagger" unicode="&#x2020;" horiz-adv-x="1005" 
d="M602 858v-1063h-201v1063h-276v166h276v451h201v-451h279v-166h-279z" />
    <glyph glyph-name="daggerdbl" unicode="&#x2021;" horiz-adv-x="1005" 
d="M881 858h-279v-448h277v-166h-277v-449h-201v449h-274v166h274v448h-276v166h276v451h201v-451h279v-166z" />
    <glyph glyph-name="bullet" unicode="&#x2022;" horiz-adv-x="714" 
d="M356 479q-98 0 -161.5 62t-63.5 159q0 102 63.5 165t161.5 63q101 0 164.5 -62.5t63.5 -165.5q0 -98 -64 -159.5t-164 -61.5z" />
    <glyph glyph-name="ellipsis" unicode="&#x2026;" horiz-adv-x="1708" 
d="M422 279v-279h-291v279h291zM999 279v-279h-290v279h290zM1577 279v-279h-291v279h291z" />
    <glyph glyph-name="perthousand" unicode="&#x2030;" horiz-adv-x="2490" 
d="M408 719q-171 0 -273.5 103.5t-101.5 277.5q-1 170 101.5 273.5t271.5 103.5q168 0 271 -105t103 -276t-102.5 -274t-269.5 -103zM283 -31l925 1497h189l-922 -1497h-192zM408 874q83 0 131.5 57.5t48.5 164.5t-48.5 165t-133.5 58t-135 -57t-50 -162q0 -110 50 -168
t137 -58zM1280 -31q-171 0 -273.5 103.5t-101.5 277.5q-1 171 101.5 274t273.5 103q167 0 270.5 -104.5t102.5 -276.5q1 -170 -102.5 -273.5t-270.5 -103.5zM2087 -31q-171 0 -273.5 103.5t-101.5 277.5q-1 171 101.5 274t271.5 103q168 0 271.5 -104.5t103.5 -276.5
q0 -171 -103 -274t-270 -103zM1280 125q83 0 131.5 57.5t48.5 163.5q0 107 -48.5 166t-131.5 59q-86 0 -136 -57.5t-50 -163.5q0 -108 50 -166.5t136 -58.5zM2087 125q83 0 131.5 57.5t48.5 163.5q0 107 -49 166t-133 59q-85 0 -134.5 -57.5t-49.5 -163.5q0 -108 50 -166.5
t136 -58.5z" />
    <glyph glyph-name="guilsinglleft" unicode="&#x2039;" horiz-adv-x="663" 
d="M391 137l-342 428l346 424h230l-336 -424l334 -428h-232z" />
    <glyph glyph-name="guilsinglright" unicode="&#x203a;" horiz-adv-x="663" 
d="M272 137h-233l336 428l-336 424h229l346 -424z" />
    <glyph glyph-name="fraction" unicode="&#x2044;" horiz-adv-x="403" 
d="M-338 -35l897 1524h182l-895 -1524h-184z" />
    <glyph glyph-name="uni20A9" unicode="&#x20a9;" horiz-adv-x="1849" 
d="M1804 1423l-114 -487h114v-117h-143l-39 -168h182v-119h-211l-125 -532h-280l-117 532h-293l-116 -532h-281l-125 532h-211v119h182l-39 168h-143v117h115l-115 487h244l94 -487h309l113 487h239l113 -487h309l95 487h243zM879 995l-13 -59h117l-12 59q-28 130 -43 271
h-6q-22 -172 -43 -271zM406 819l30 -168h189l41 168h-260zM803 651h244l-37 168h-170zM1413 651l31 168h-260l41 -168h188zM565 391l33 141h-139l26 -135q27 -148 33 -229h6q6 58 41 223zM1364 397l27 135h-140l33 -141q4 -17 10 -46.5t9 -44.5t7.5 -38t7.5 -45.5t5 -48.5h6
q8 80 35 229z" />
    <glyph glyph-name="Euro" unicode="&#x20ac;" horiz-adv-x="1357" 
d="M1106 385l217 -90q-76 -156 -219 -241t-342 -85q-260 0 -419.5 148.5t-205.5 404.5h-114v129h98q-2 27 -2 82q0 40 2 58h-98v129h110q43 254 206.5 394t428.5 140q399 0 543 -307l-219 -94q-103 194 -334 194q-149 0 -241.5 -84.5t-125.5 -242.5h606v-129h-620
q-2 -18 -2 -56q0 -30 4 -84h618v-129h-600q39 -163 135 -254.5t240 -91.5q106 0 193 54t141 155z" />
    <glyph glyph-name="uni20B9" unicode="&#x20b9;" horiz-adv-x="1138" 
d="M1124 1423v-161h-358q102 -76 123 -215h235v-127h-231q-17 -160 -137 -256.5t-320 -108.5l461 -555h-283l-477 582v133h213q123 0 195.5 52.5t87.5 152.5h-496v127h494q-17 104 -88.5 159.5t-188.5 55.5h-217v161h987z" />
    <glyph glyph-name="uni20BA" unicode="&#x20ba;" horiz-adv-x="1171" 
d="M934 500l219 -43q-16 -69 -39.5 -128t-67.5 -121.5t-103 -106.5t-149 -72.5t-200 -28.5h-399v543l-146 -43v137l146 43v160l-146 -43v139l146 43v444h251v-370l463 135v-139l-463 -136v-159l463 135v-137l-463 -136v-415h115q89 0 156 25.5t109 71.5t66.5 93.5
t41.5 108.5z" />
    <glyph glyph-name="uni20BD" unicode="&#x20bd;" horiz-adv-x="1222" 
d="M668 559h-219v-162h307v-127h-307v-270h-252v270h-156v127h156v162h-156v174h156v690h483q232 0 370 -116.5t138 -311.5q0 -203 -138.5 -319.5t-381.5 -116.5zM449 1227v-494h194q129 0 203 66.5t74 183.5q0 112 -74.5 178t-202.5 66h-194z" />
    <glyph glyph-name="uni2105" unicode="&#x2105;" horiz-adv-x="1792" 
d="M440 -27h-207l1102 1532h207zM45 1110q0 180 95.5 286.5t281.5 106.5q141 0 231 -73.5t103 -200.5l-189 -31q-9 68 -48.5 105.5t-104.5 37.5q-83 0 -127.5 -62t-44.5 -167q0 -109 45.5 -173.5t130.5 -64.5q66 0 105.5 39.5t47.5 110.5l183 -37q-22 -122 -106 -198
t-230 -76q-180 0 -276.5 111.5t-96.5 285.5zM1370 -25q-167 0 -268 108t-101 288t100.5 286.5t268.5 106.5t269.5 -107t101.5 -286q0 -181 -101.5 -288.5t-269.5 -107.5zM1546 371q0 110 -46.5 172.5t-129.5 62.5q-82 0 -128 -62.5t-46 -172.5q0 -112 46 -174t128 -62
q83 0 129.5 62t46.5 174z" />
    <glyph glyph-name="uni2113" unicode="&#x2113;" horiz-adv-x="956" 
d="M444 399q0 -118 43.5 -167.5t143.5 -49.5q52 0 125 15v-197q-84 -23 -187 -23q-198 0 -284 96t-86 283v23q-123 -46 -166 -60l-66 179q175 61 232 84v532q0 189 91.5 282t244.5 93q164 0 251.5 -93.5t87.5 -258.5q0 -209 -108.5 -366t-321.5 -277v-95zM444 1178v-463
q95 73 142 169t47 232q0 109 -23.5 153t-74.5 44q-42 0 -66.5 -35t-24.5 -100z" />
    <glyph glyph-name="uni2116" unicode="&#x2116;" horiz-adv-x="2527" 
d="M180 0v1454h303l547 -952q60 -102 90 -187h4q-4 106 -4 189v950h240v-1454h-297l-555 956q-55 100 -88 183h-4q4 -55 4 -193v-946h-240zM1968 356q-212 0 -339.5 133.5t-127.5 352.5q0 220 127.5 351.5t339.5 131.5q213 0 341 -132t128 -351t-128.5 -352.5t-340.5 -133.5
zM1968 549q106 0 168 78.5t62 214.5q0 135 -62 214t-168 79t-167.5 -79t-61.5 -214q0 -136 61.5 -214.5t167.5 -78.5zM1501 0v186h936v-186h-936z" />
    <glyph glyph-name="trademark" unicode="&#x2122;" horiz-adv-x="1800" 
d="M262 623v692h-252v139h686v-139h-268v-692h-166zM784 623v831h236l186 -559q22 -75 25 -115h4q3 40 25 115l184 559h237v-831h-153v542q0 99 4 158h-2q-9 -41 -41 -141l-184 -559h-146l-182 559q-32 100 -41 141h-2q4 -59 4 -158v-542h-154z" />
    <glyph glyph-name="uni2126" unicode="&#x2126;" horiz-adv-x="1347" 
d="M1247 0h-473l-33 504q141 26 217 128t76 263q0 177 -97 280t-263 103t-263.5 -103t-97.5 -280q0 -161 76 -263t217 -128l-33 -504h-473v211h291l12 160q-158 55 -245.5 195t-87.5 335q0 261 166.5 421.5t437.5 160.5q270 0 437 -160.5t167 -421.5q0 -195 -88 -335
t-246 -195l12 -160h291v-211z" />
    <glyph glyph-name="estimated" unicode="&#x212e;" horiz-adv-x="1513" 
d="M1438 715h-1022v-484q142 -120 370 -120q170 0 290 61.5t218 200.5l103 -80q-205 -324 -611 -324q-114 0 -217 27t-193.5 85.5t-156 145t-103.5 212.5t-38 280q0 145 37 267.5t101.5 209.5t152.5 148t190.5 90.5t214.5 29.5q303 0 483.5 -182.5t180.5 -484.5v-82z
M1116 1221q-128 118 -352 118q-206 0 -348 -125v-370h700v377z" />
    <glyph glyph-name="uni2153" unicode="&#x2153;" horiz-adv-x="1716" 
d="M217 -35l895 1524h182l-893 -1524h-184zM236 666v555q-55 -52 -152 -52h-31v158h21q147 0 192 129h137v-790h-167zM1333 -16q-148 0 -234 68t-87 188l174 16q0 -66 40 -102.5t109 -36.5q135 0 135 116q0 105 -153 105h-64v125h60q67 0 102 28t35 78q0 52 -32.5 79.5
t-92.5 27.5q-64 0 -100.5 -38t-36.5 -106l-170 21q0 117 85.5 186.5t231.5 69.5q139 0 216 -58t77 -161q0 -68 -45.5 -117.5t-120.5 -62.5q91 -12 141 -61t50 -130q0 -108 -86.5 -171.5t-233.5 -63.5z" />
    <glyph glyph-name="uni2154" unicode="&#x2154;" horiz-adv-x="1912" 
d="M412 -35l895 1524h182l-893 -1524h-184zM61 666v127q72 42 113.5 68t98.5 64.5t89 68.5t64.5 67.5t46.5 75t14 77.5q0 60 -30.5 91.5t-89.5 31.5q-61 0 -95 -32t-34 -91q0 -23 10 -61l-178 16q-7 35 -7 62q0 113 83 178.5t229 65.5q139 0 217 -65t78 -183
q0 -70 -32.5 -136t-90 -119t-118 -93t-132.5 -76h383v-137h-619zM1528 -16q-148 0 -234.5 68t-87.5 188l174 16q0 -66 40 -102.5t110 -36.5q135 0 135 116q0 105 -154 105h-63v125h59q67 0 102.5 28t35.5 78q0 52 -32.5 79.5t-92.5 27.5q-64 0 -101 -38t-37 -106l-170 21
q0 117 86 186.5t232 69.5q139 0 216 -58t77 -161q0 -68 -45.5 -117.5t-120.5 -62.5q90 -12 140 -61t50 -130q0 -109 -86 -172t-233 -63z" />
    <glyph glyph-name="oneeighth" unicode="&#x215b;" horiz-adv-x="1736" 
d="M1112 1489h182l-893 -1524h-184zM236 666v555q-55 -52 -152 -52h-31v158h21q147 0 192 129h137v-790h-167zM1507 434q174 -58 174 -215q0 -107 -92 -171t-246 -64q-151 0 -240 60t-89 161q0 75 40 121t126 71q-142 57 -142 193q0 97 83 158t218 61q138 0 222 -54t84 -147
q0 -66 -33.5 -107.5t-104.5 -66.5zM1339 690q-62 0 -99.5 -26.5t-37.5 -73.5q0 -44 35 -70.5t104 -42.5l52 -12q47 20 67.5 47.5t20.5 69.5q0 51 -38 79.5t-104 28.5zM1348 109q72 0 114.5 30t42.5 82q0 90 -143 123l-66 18q-56 -21 -81 -53t-25 -80q0 -56 42.5 -88
t115.5 -32z" />
    <glyph glyph-name="threeeighths" unicode="&#x215c;" horiz-adv-x="1945" 
d="M1321 1489h182l-893 -1524h-184zM696 887q0 -110 -86 -174t-233 -64q-148 0 -234 68.5t-88 187.5l174 17q0 -66 40.5 -103t109.5 -37q66 0 100.5 30t34.5 87q0 105 -154 105h-63v124h59q67 0 102.5 28.5t35.5 78.5q0 52 -32.5 80t-92.5 28q-64 0 -101 -38.5t-37 -106.5
l-170 21q0 118 86 187t232 69q139 0 216 -58.5t77 -161.5q0 -68 -45.5 -117t-120.5 -61q90 -14 140 -62.5t50 -127.5zM1716 434q174 -58 174 -215q0 -107 -92 -171t-246 -64q-151 0 -240 60t-89 161q0 75 40 121t126 71q-142 57 -142 193q0 97 83 158t218 61
q138 0 221.5 -54t83.5 -147q0 -66 -33 -107.5t-104 -66.5zM1548 690q-62 0 -99.5 -26.5t-37.5 -73.5q0 -44 35 -70.5t104 -42.5l52 -12q47 20 67.5 47.5t20.5 69.5q0 51 -38 79.5t-104 28.5zM1556 109q72 0 115 30t43 82q0 90 -143 123l-66 18q-56 -21 -81 -53t-25 -80
q0 -56 42 -88t115 -32z" />
    <glyph glyph-name="fiveeighths" unicode="&#x215d;" horiz-adv-x="1939" 
d="M1313 1489h182l-893 -1524h-184zM690 936q0 -133 -84.5 -210t-230.5 -77q-127 0 -210 58t-102 159l168 27q11 -51 48 -80t92 -29q70 0 108.5 39t38.5 107q0 70 -37 111.5t-104 41.5q-52 0 -89.5 -27t-51.5 -73l-154 12l53 461h512v-137h-389l-25 -197q60 84 193 84
q123 0 193.5 -72t70.5 -198zM1708 434q174 -58 174 -215q0 -107 -92 -171t-246 -64q-151 0 -240.5 60t-89.5 161q0 75 40 121t126 71q-141 57 -141 193q0 97 83 158t218 61q138 0 221.5 -54t83.5 -147q0 -66 -33 -107.5t-104 -66.5zM1540 690q-62 0 -99.5 -26.5t-37.5 -73.5
q0 -44 35 -70.5t104 -42.5l51 -12q47 20 67.5 47.5t20.5 69.5q0 51 -37.5 79.5t-103.5 28.5zM1548 109q72 0 115 30t43 82q0 90 -143 123l-66 18q-56 -21 -81 -53t-25 -80q0 -56 42 -88t115 -32z" />
    <glyph glyph-name="seveneighths" unicode="&#x215e;" horiz-adv-x="1767" 
d="M1143 1489h182l-893 -1524h-184zM170 676q3 174 83 341t216 296h-418v143h592v-133q-280 -267 -283 -635v-22h-190v10zM1538 434q174 -58 174 -215q0 -107 -92 -171t-246 -64q-151 0 -240.5 60t-89.5 161q0 75 40 121t126 71q-141 57 -141 193q0 97 83 158t218 61
q138 0 221.5 -54t83.5 -147q0 -66 -33 -107.5t-104 -66.5zM1370 690q-62 0 -99.5 -26.5t-37.5 -73.5q0 -44 35 -70.5t104 -42.5l51 -12q47 20 67.5 47.5t20.5 69.5q0 51 -37.5 79.5t-103.5 28.5zM1378 109q72 0 115 30t43 82q0 90 -143 123l-66 18q-56 -21 -81 -53t-25 -80
q0 -56 42 -88t115 -32z" />
    <glyph glyph-name="arrowleft" unicode="&#x2190;" horiz-adv-x="2154" 
d="M1974 606h-1427v-205l-367 275l367 274v-205h1427v-139z" />
    <glyph glyph-name="arrowup" unicode="&#x2191;" horiz-adv-x="911" 
d="M383 -72v1241h-203l275 367l276 -367h-203v-1241h-145z" />
    <glyph glyph-name="arrowright" unicode="&#x2192;" horiz-adv-x="2154" 
d="M180 745h1428v205l366 -274l-366 -275v205h-1428v139z" />
    <glyph glyph-name="arrowdown" unicode="&#x2193;" horiz-adv-x="911" 
d="M528 1526v-1241h203l-276 -367l-275 367h203v1241h145z" />
    <glyph glyph-name="arrowboth" unicode="&#x2194;" horiz-adv-x="2154" 
d="M1608 606h-1061v-205l-367 275l367 274v-205h1061v205l366 -274l-366 -275v205z" />
    <glyph glyph-name="arrowupdn" unicode="&#x2195;" horiz-adv-x="911" 
d="M180 285h203v884h-203l275 367l276 -367h-203v-884h203l-276 -367z" />
    <glyph glyph-name="uni2196" unicode="&#x2196;" horiz-adv-x="1845" 
d="M356 1174l-176 -183v463h449l-168 -176l1204 -1204l-102 -107z" />
    <glyph glyph-name="uni2197" unicode="&#x2197;" horiz-adv-x="1845" 
d="M1489 1176l-1206 -1207l-103 107l1204 1204l-167 176h448v-463z" />
    <glyph glyph-name="uni2198" unicode="&#x2198;" horiz-adv-x="1845" 
d="M1489 303l176 182v-462h-448l167 176l-1204 1204l103 106z" />
    <glyph glyph-name="uni2199" unicode="&#x2199;" horiz-adv-x="1845" 
d="M356 303l1207 1206l102 -106l-1204 -1204l168 -176h-449v462z" />
    <glyph glyph-name="uni21A9" unicode="&#x21a9;" horiz-adv-x="1998" 
d="M547 401l-367 275l367 274v-205h817q137 0 217 69t80 196q0 129 -79.5 196.5t-217.5 67.5h-457v139h479q200 0 316.5 -104t116.5 -297q0 -192 -117 -299t-316 -107h-839v-205z" />
    <glyph glyph-name="uni21AA" unicode="&#x21aa;" horiz-adv-x="1998" 
d="M1452 401v205h-840q-199 0 -315.5 106.5t-116.5 299.5t116 297t316 104h480v-139h-457q-138 0 -216.5 -67.5t-78.5 -196.5q0 -127 79 -196t216 -69h817v205l367 -274z" />
    <glyph glyph-name="uni21B0" unicode="&#x21b0;" horiz-adv-x="1687" 
d="M1358 0v1159h-811v-205l-367 275l367 274v-205h960v-1298h-149z" />
    <glyph glyph-name="uni21B1" unicode="&#x21b1;" horiz-adv-x="1687" 
d="M330 0h-150v1298h961v205l366 -274l-366 -275v205h-811v-1159z" />
    <glyph glyph-name="uni21B2" unicode="&#x21b2;" horiz-adv-x="1687" 
d="M1358 1454h149v-1298h-960v-205l-367 274l367 275v-205h811v1159z" />
    <glyph glyph-name="uni21B3" unicode="&#x21b3;" horiz-adv-x="1687" 
d="M330 1454v-1159h811v205l366 -275l-366 -274v205h-961v1298h150z" />
    <glyph glyph-name="uni21B4" unicode="&#x21b4;" horiz-adv-x="1863" 
d="M1485 1466v-1140h198l-274 -367l-274 367h200v1001h-1155v139h1305z" />
    <glyph glyph-name="uni21BB" unicode="&#x21bb;" horiz-adv-x="2074" 
d="M1618 385l-275 367h203q-7 173 -89.5 306.5t-217.5 204t-299 70.5q-166 0 -302 -73t-217 -212.5t-81 -320.5q0 -180 81 -321t217 -216t302 -75q128 0 249 51t210 143l96 -119q-109 -109 -251.5 -167t-303.5 -58q-206 0 -378.5 93t-277 268t-104.5 397q0 168 60.5 311.5
t163.5 241t242 152.5t294 55q205 0 374.5 -89.5t273 -257.5t110.5 -384h196z" />
    <glyph glyph-name="uni21C4" unicode="&#x21c4;" horiz-adv-x="2185" 
d="M1858 844h-1311v-205l-367 274l367 275v-205h1311v-139zM1638 508v205l367 -275l-367 -276v207h-1308v139h1308z" />
    <glyph glyph-name="uni21C5" unicode="&#x21c5;" horiz-adv-x="1396" 
d="M866 63v1106h-200l274 367l277 -367h-203v-1106h-148zM455 -82l-275 367h203v1112h145v-1112h203z" />
    <glyph glyph-name="partialdiff" unicode="&#x2202;" horiz-adv-x="1273" 
d="M567 1477q289 0 440.5 -198t151.5 -587q0 -350 -145.5 -538.5t-415.5 -188.5q-230 0 -370 135t-140 361q0 213 128 345t341 132q232 0 358 -170q-9 500 -356 500q-118 0 -252 -64l-92 187q170 86 352 86zM612 156q139 0 218.5 103t84.5 288q-105 205 -301 205
q-127 0 -201.5 -78.5t-74.5 -210.5q0 -141 74 -224t200 -83z" />
    <glyph glyph-name="emptyset" unicode="&#x2205;" horiz-adv-x="1116" 
d="M1038 1057l-112 -123q102 -127 102 -311q0 -210 -130.5 -340.5t-340.5 -130.5q-162 0 -278 81l-115 -124l-86 79l115 123q-105 127 -105 312q0 209 131 341t340 132q163 0 281 -82l112 123zM289 623q0 -94 41 -162l375 407q-59 41 -146 41q-120 0 -195 -79.5t-75 -206.5z
M825 623q0 92 -39 159l-374 -405q62 -41 145 -41q121 0 194.5 79.5t73.5 207.5z" />
    <glyph glyph-name="uni2206" unicode="&#x2206;" horiz-adv-x="1284" 
d="M18 0l490 1454h276l484 -1454h-1250zM643 1190l-324 -993h637z" />
    <glyph glyph-name="product" unicode="&#x220f;" horiz-adv-x="1374" 
d="M965 -180v1411h-553v-1411h-238v1624h1028v-1624h-237z" />
    <glyph glyph-name="summation" unicode="&#x2211;" horiz-adv-x="1208" 
d="M102 -180v188l539 662l-512 587v187h963v-201h-674l504 -573l-541 -650h735v-200h-1014z" />
    <glyph glyph-name="minus" unicode="&#x2212;" horiz-adv-x="1159" 
d="M96 578v188h967v-188h-967z" />
    <glyph glyph-name="radical" unicode="&#x221a;" 
d="M84 678h305l162 -576l414 1401h221l-520 -1696h-226l-215 680h-141v191z" />
    <glyph glyph-name="infinity" unicode="&#x221e;" 
d="M897 981q125 0 203 -84.5t78 -222.5q0 -135 -79.5 -223.5t-201.5 -88.5q-162 0 -262 164q-53 -83 -113 -123.5t-149 -40.5q-125 0 -202 85t-77 223q0 135 79 223t200 88q163 0 264 -162q51 81 111 121.5t149 40.5zM391 532q55 0 89.5 32t72.5 104q-37 72 -74.5 107.5
t-91.5 35.5q-55 0 -86 -37t-31 -102t32 -102.5t89 -37.5zM883 532q55 0 86.5 37.5t31.5 102.5t-32.5 102t-89.5 37q-55 0 -89 -32t-73 -103q37 -72 75 -108t91 -36z" />
    <glyph glyph-name="integral" unicode="&#x222b;" 
d="M322 -238q-35 0 -93 7v188q29 -4 78 -4q122 0 169.5 54t47.5 188v854q0 194 100.5 304t305.5 109q45 0 123 -8v-188q-47 8 -103 8q-102 0 -145 -60.5t-43 -185.5v-856q0 -410 -440 -410z" />
    <glyph glyph-name="approxequal" unicode="&#x2248;" 
d="M868 727q-53 0 -120 18t-120.5 39.5t-115.5 39.5t-106 18q-70 0 -139.5 -24.5t-116.5 -63.5v194q41 37 114 61.5t142 24.5q77 0 163.5 -28.5t164.5 -57t134 -28.5q70 0 138.5 24.5t113.5 63.5v-195q-37 -37 -109 -61.5t-143 -24.5zM868 336q-67 0 -154.5 29t-170 57.5
t-137.5 28.5q-69 0 -138.5 -25t-117.5 -64v195q42 36 115 60t141 24q61 0 129.5 -18t118.5 -39.5t109.5 -39.5t104.5 -18q70 0 138.5 24.5t113.5 63.5v-194q-36 -36 -108.5 -60t-143.5 -24z" />
    <glyph glyph-name="notequal" unicode="&#x2260;" 
d="M1063 774h-338l-78 -201h416v-190h-492l-98 -254h-139l98 254h-336v190h412l78 201h-490v191h563l97 245h139l-96 -245h264v-191z" />
    <glyph glyph-name="lessequal" unicode="&#x2264;" 
d="M1098 272l-961 414v182l961 414v-201l-727 -303l727 -303v-203zM143 180h951v-180h-951v180z" />
    <glyph glyph-name="greaterequal" unicode="&#x2265;" 
d="M172 272v203l727 303l-727 303v201l961 -414v-182zM1128 180v-180h-952v180h952z" />
    <glyph glyph-name="uni2460" unicode="&#x2460;" horiz-adv-x="1679" 
d="M840 -35q-155 0 -293.5 54t-242.5 150.5t-165 241t-61 316.5t61 317t165 241.5t242.5 150t293.5 53.5t293.5 -53.5t242.5 -150t165 -241.5t61 -317t-61 -316.5t-165 -241t-242.5 -150.5t-293.5 -54zM840 74q174 0 319 78t233.5 228.5t88.5 346.5q0 148 -51.5 272.5
t-139.5 207t-204 128t-246 45.5q-131 0 -247 -45.5t-204 -128t-139 -207t-51 -272.5q0 -147 51 -271t139 -207t204.5 -129t246.5 -46zM782 332v555q-54 -51 -151 -51h-31v155h21q145 0 192 129h137v-788h-168z" />
    <glyph glyph-name="uni2461" unicode="&#x2461;" horiz-adv-x="1679" 
d="M840 -35q-155 0 -293.5 54t-242.5 150.5t-165 241t-61 316.5t61 317t165 241.5t242.5 150t293.5 53.5t293.5 -53.5t242.5 -150t165 -241.5t61 -317t-61 -316.5t-165 -241t-242.5 -150.5t-293.5 -54zM840 74q174 0 319 78t233.5 228.5t88.5 346.5q0 148 -51.5 272.5
t-139.5 207t-204 128t-246 45.5q-131 0 -247 -45.5t-204 -128t-139 -207t-51 -272.5q0 -147 51 -271t139 -207t204.5 -129t246.5 -46zM528 354v129q84 49 134.5 80.5t113.5 77.5t96.5 83t57.5 84t24 95q0 123 -120 123q-60 0 -93.5 -32.5t-33.5 -90.5q0 -11 8 -61l-176 16
q-7 35 -7 62q0 113 83 178t227 65q140 0 218.5 -64t78.5 -181q0 -70 -32.5 -136t-89.5 -119.5t-118 -94t-133 -76.5h383v-138h-621z" />
    <glyph glyph-name="uni2462" unicode="&#x2462;" horiz-adv-x="1679" 
d="M840 -35q-155 0 -293.5 54t-242.5 150.5t-165 241t-61 316.5t61 317t165 241.5t242.5 150t293.5 53.5t293.5 -53.5t242.5 -150t165 -241.5t61 -317t-61 -316.5t-165 -241t-242.5 -150.5t-293.5 -54zM840 74q174 0 319 78t233.5 228.5t88.5 346.5q0 148 -51.5 272.5
t-139.5 207t-204 128t-246 45.5q-131 0 -247 -45.5t-204 -128t-139 -207t-51 -272.5q0 -147 51 -271t139 -207t204.5 -129t246.5 -46zM842 315q-148 0 -234.5 68t-87.5 186l174 19q1 -67 41.5 -103t108.5 -36q135 0 135 116q0 105 -154 105h-63v123h59q67 0 103.5 29
t36.5 79q0 52 -32.5 79.5t-92.5 27.5q-65 0 -101.5 -38.5t-36.5 -105.5l-170 21q0 117 85.5 185.5t232.5 68.5q138 0 214.5 -57.5t76.5 -161.5q0 -66 -45.5 -116t-120.5 -63q91 -12 140.5 -60.5t49.5 -129.5q0 -109 -86.5 -172.5t-232.5 -63.5z" />
    <glyph glyph-name="uni2463" unicode="&#x2463;" horiz-adv-x="1679" 
d="M840 -35q-155 0 -293.5 54t-242.5 150.5t-165 241t-61 316.5t61 317t165 241.5t242.5 150t293.5 53.5t293.5 -53.5t242.5 -150t165 -241.5t61 -317t-61 -316.5t-165 -241t-242.5 -150.5t-293.5 -54zM840 74q174 0 319 78t233.5 228.5t88.5 346.5q0 148 -51.5 272.5
t-139.5 207t-204 128t-246 45.5q-131 0 -247 -45.5t-204 -128t-139 -207t-51 -272.5q0 -147 51 -271t139 -207t204.5 -129t246.5 -46zM1147 514h-127v-176h-166v176h-391v121l368 493h189v-487h127v-127zM854 969l-242 -328h242v328z" />
    <glyph glyph-name="uni2464" unicode="&#x2464;" horiz-adv-x="1679" 
d="M840 -35q-155 0 -293.5 54t-242.5 150.5t-165 241t-61 316.5t61 317t165 241.5t242.5 150t293.5 53.5t293.5 -53.5t242.5 -150t165 -241.5t61 -317t-61 -316.5t-165 -241t-242.5 -150.5t-293.5 -54zM840 74q174 0 319 78t233.5 228.5t88.5 346.5q0 148 -51.5 272.5
t-139.5 207t-204 128t-246 45.5q-131 0 -247 -45.5t-204 -128t-139 -207t-51 -272.5q0 -147 51 -271t139 -207t204.5 -129t246.5 -46zM838 324q-127 0 -210 58t-100 159l168 26q9 -51 46 -79.5t94 -28.5q69 0 107 38.5t38 106.5q0 70 -37 112t-102 42q-53 0 -90.5 -27.5
t-51.5 -73.5l-153 13l51 460h512v-137h-387l-25 -196q57 84 193 84q123 0 192.5 -72.5t69.5 -198.5q0 -134 -83.5 -210t-231.5 -76z" />
    <glyph glyph-name="uni2465" unicode="&#x2465;" horiz-adv-x="1679" 
d="M840 1489q155 0 293.5 -53.5t242.5 -150t165 -241.5t61 -317t-61 -316.5t-165 -241t-242.5 -150.5t-293.5 -54t-293.5 54t-242.5 150.5t-165 241t-61 316.5t61 317t165 241.5t242.5 150t293.5 53.5zM840 74q174 0 319 78t233.5 228.5t88.5 346.5q0 148 -51.5 272.5
t-139.5 207t-204 128t-246 45.5q-131 0 -247 -45.5t-204 -128t-139 -207t-51 -272.5q0 -147 51 -271t139 -207t204.5 -129t246.5 -46zM897 866q117 0 187.5 -71.5t70.5 -196.5t-84 -204t-219 -79q-160 0 -249 104.5t-89 295.5q0 196 89.5 310t248.5 114q250 0 291 -209
l-164 -25q-24 103 -129 103q-80 0 -125 -67.5t-49 -197.5q60 123 221 123zM848 444q67 0 105 39.5t38 106.5q0 68 -39.5 109.5t-105.5 41.5q-57 0 -100 -31.5t-62 -86.5q27 -179 164 -179z" />
    <glyph glyph-name="uni2466" unicode="&#x2466;" horiz-adv-x="1679" 
d="M840 -35q-155 0 -293.5 54t-242.5 150.5t-165 241t-61 316.5t61 317t165 241.5t242.5 150t293.5 53.5t293.5 -53.5t242.5 -150t165 -241.5t61 -317t-61 -316.5t-165 -241t-242.5 -150.5t-293.5 -54zM840 74q174 0 319 78t233.5 228.5t88.5 346.5q0 148 -51.5 272.5
t-139.5 207t-204 128t-246 45.5q-131 0 -247 -45.5t-204 -128t-139 -207t-51 -272.5q0 -147 51 -271t139 -207t204.5 -129t246.5 -46zM545 979v141h592v-133q-278 -262 -281 -635v-20h-190v10q3 174 83 341.5t216 295.5h-420z" />
    <glyph glyph-name="uni2467" unicode="&#x2467;" horiz-adv-x="1679" 
d="M840 1489q155 0 293.5 -53.5t242.5 -150t165 -241.5t61 -317t-61 -316.5t-165 -241t-242.5 -150.5t-293.5 -54t-293.5 54t-242.5 150.5t-165 241t-61 316.5t61 317t165 241.5t242.5 150t293.5 53.5zM840 74q174 0 319 78t233.5 228.5t88.5 346.5q0 148 -51.5 272.5
t-139.5 207t-204 128t-246 45.5q-131 0 -247 -45.5t-204 -128t-139 -207t-51 -272.5q0 -147 51 -271t139 -207t204.5 -129t246.5 -46zM999 766q175 -58 175 -217q0 -106 -92 -170t-244 -64t-242 60.5t-90 161.5q0 74 40 120.5t124 69.5q-140 61 -140 193q0 98 83 158.5
t218 60.5q140 0 223 -53.5t83 -147.5q0 -124 -138 -172zM831 1022q-62 0 -99.5 -26.5t-37.5 -73.5q0 -44 35.5 -70.5t104.5 -42.5l51 -12q47 20 67.5 47.5t20.5 68.5q0 51 -37.5 80t-104.5 29zM842 440q71 0 113 30.5t42 82.5q0 89 -141 123l-68 16q-57 -22 -81.5 -52.5
t-24.5 -78.5q0 -56 42.5 -88.5t117.5 -32.5z" />
    <glyph glyph-name="uni2468" unicode="&#x2468;" horiz-adv-x="1679" 
d="M840 1489q155 0 293.5 -53.5t242.5 -150t165 -241.5t61 -317t-61 -316.5t-165 -241t-242.5 -150.5t-293.5 -54t-293.5 54t-242.5 150.5t-165 241t-61 316.5t61 317t165 241.5t242.5 150t293.5 53.5zM840 74q174 0 319 78t233.5 228.5t88.5 346.5q0 148 -51.5 272.5
t-139.5 207t-204 128t-246 45.5q-131 0 -247 -45.5t-204 -128t-139 -207t-51 -272.5q0 -147 51 -271t139 -207t204.5 -129t246.5 -46zM829 1139q161 0 245.5 -100.5t84.5 -299.5q0 -204 -82.5 -314t-251.5 -110q-123 0 -198.5 54t-94.5 155l164 31q22 -106 138 -106
q147 0 159 241q-77 -80 -196 -80q-124 0 -200.5 71t-76.5 187q0 121 82.5 196t226.5 75zM829 735q104 0 162 90q-9 96 -48 141.5t-112 45.5q-68 0 -107.5 -38t-39.5 -100t39.5 -100.5t105.5 -38.5z" />
    <glyph glyph-name="uni24EA" unicode="&#x24ea;" horiz-adv-x="1679" 
d="M840 -35q-155 0 -293.5 54t-242.5 150.5t-165 241t-61 316.5t61 317t165 241.5t242.5 150t293.5 53.5t293.5 -53.5t242.5 -150t165 -241.5t61 -317t-61 -316.5t-165 -241t-242.5 -150.5t-293.5 -54zM840 74q174 0 319 78t233.5 228.5t88.5 346.5q0 148 -51.5 272.5
t-139.5 207t-204 128t-246 45.5q-131 0 -247 -45.5t-204 -128t-139 -207t-51 -272.5q0 -147 51 -271t139 -207t204.5 -129t246.5 -46zM842 315q-169 0 -262 108t-93 304q0 195 93 303.5t260 108.5t260.5 -109t93.5 -305q0 -195 -92.5 -302.5t-259.5 -107.5zM842 451
q84 0 129 70t45 204q0 136 -45.5 208.5t-130.5 72.5q-83 0 -128.5 -73t-45.5 -206q0 -136 45 -206t131 -70z" />
    <glyph glyph-name="uni24FF" unicode="&#x24ff;" horiz-adv-x="1679" 
d="M840 -35q-155 0 -293.5 54t-242.5 150.5t-165 241t-61 316.5t61 316.5t165 241t242.5 150.5t293.5 54t293.5 -54t242.5 -150.5t165 -241t61 -316.5t-61 -316.5t-165 -241t-242.5 -150.5t-293.5 -54zM842 315q168 0 262 108t94 304t-94.5 305t-263.5 109
q-168 0 -262.5 -109t-94.5 -305t95 -304t264 -108zM842 457q-82 0 -125 68.5t-43 201.5q0 132 43.5 202t122.5 70q80 0 124 -69.5t44 -202.5q0 -132 -43.5 -201t-122.5 -69z" />
    <glyph glyph-name="lozenge" unicode="&#x25ca;" horiz-adv-x="1142" 
d="M672 -35h-205l-408 762l408 762h205l411 -762zM569 1282l-286 -555l286 -555l293 555z" />
    <glyph glyph-name="circle" unicode="&#x25cb;" horiz-adv-x="1679" 
d="M840 -35q-155 0 -293.5 54t-242.5 150.5t-165 241t-61 316.5t61 317t165 241.5t242.5 150t293.5 53.5t293.5 -53.5t242.5 -150t165 -241.5t61 -317t-61 -316.5t-165 -241t-242.5 -150.5t-293.5 -54zM840 74q174 0 319 78t233.5 228.5t88.5 346.5q0 148 -51.5 272.5
t-139.5 207t-204 128t-246 45.5q-131 0 -247 -45.5t-204 -128t-139 -207t-51 -272.5q0 -147 51 -271t139 -207t204.5 -129t246.5 -46z" />
    <glyph glyph-name="uni25CF" unicode="&#x25cf;" horiz-adv-x="1679" 
d="M840 -35q-155 0 -293.5 54t-242.5 150.5t-165 241t-61 316.5t61 316.5t165 241t242.5 150.5t293.5 54t293.5 -54t242.5 -150.5t165 -241t61 -316.5t-61 -316.5t-165 -241t-242.5 -150.5t-293.5 -54z" />
    <glyph glyph-name="uni2776" unicode="&#x2776;" horiz-adv-x="1679" 
d="M840 -35q-155 0 -293.5 54t-242.5 150.5t-165 241t-61 316.5t61 316.5t165 241t242.5 150.5t293.5 54t293.5 -54t242.5 -150.5t165 -241t61 -316.5t-61 -316.5t-165 -241t-242.5 -150.5t-293.5 -54zM776 332h182v790h-147q-48 -129 -195 -129h-22v-166h31q99 0 151 52
v-547z" />
    <glyph glyph-name="uni2777" unicode="&#x2777;" horiz-adv-x="1679" 
d="M840 -35q-155 0 -293.5 54t-242.5 150.5t-165 241t-61 316.5t61 316.5t165 241t242.5 150.5t293.5 54t293.5 -54t242.5 -150.5t165 -241t61 -316.5t-61 -316.5t-165 -241t-242.5 -150.5t-293.5 -54zM524 354h631v146h-379q369 178 369 418q0 117 -80 182t-223 65
q-146 0 -231 -66t-85 -179q0 -35 6 -62l189 -18q-8 33 -8 63q0 55 32 86t89 31q116 0 116 -119q0 -34 -12.5 -67.5t-29.5 -60.5t-52.5 -59.5t-63.5 -55.5t-81.5 -57.5t-87.5 -55t-99 -58.5v-133z" />
    <glyph glyph-name="uni2778" unicode="&#x2778;" horiz-adv-x="1679" 
d="M840 -35q-155 0 -293.5 54t-242.5 150.5t-165 241t-61 316.5t61 316.5t165 241t242.5 150.5t293.5 54t293.5 -54t242.5 -150.5t165 -241t61 -316.5t-61 -316.5t-165 -241t-242.5 -150.5t-293.5 -54zM842 315q149 0 236 63.5t87 172.5q0 79 -49.5 128.5t-140.5 61.5
q75 13 121.5 63t46.5 116q0 105 -77.5 163t-219.5 58q-149 0 -236.5 -69t-87.5 -185l183 -23q0 65 35 102.5t96 37.5q57 0 87.5 -27.5t30.5 -77.5q0 -51 -34.5 -78.5t-98.5 -27.5h-45v-123h47q148 0 148 -105q0 -53 -33 -81.5t-94 -28.5q-65 0 -104 36t-40 99l-184 -17
q1 -120 89 -189t237 -69z" />
    <glyph glyph-name="uni2779" unicode="&#x2779;" horiz-adv-x="1679" 
d="M840 -35q-155 0 -293.5 54t-242.5 150.5t-165 241t-61 316.5t61 316.5t165 241t242.5 150.5t293.5 54t293.5 -54t242.5 -150.5t165 -241t61 -316.5t-61 -316.5t-165 -241t-242.5 -150.5t-293.5 -54zM856 346h178v174h125v135h-125v482h-203l-368 -490v-127h393v-174z
M623 655l233 316v-316h-233z" />
    <glyph glyph-name="uni277A" unicode="&#x277a;" horiz-adv-x="1679" 
d="M840 -35q-155 0 -293.5 54t-242.5 150.5t-165 241t-61 316.5t61 316.5t165 241t242.5 150.5t293.5 54t293.5 -54t242.5 -150.5t165 -241t61 -316.5t-61 -316.5t-165 -241t-242.5 -150.5t-293.5 -54zM838 324q149 0 234 76.5t85 211.5q0 126 -70.5 198.5t-193.5 72.5
q-135 0 -191 -80l25 184h387v143h-522l-51 -458l164 -15q14 45 49 70t86 25q63 0 100 -39.5t37 -106.5q0 -66 -38 -103.5t-103 -37.5q-55 0 -90 28t-46 78l-178 -28q17 -102 102 -160.5t214 -58.5z" />
    <glyph glyph-name="uni277B" unicode="&#x277b;" horiz-adv-x="1679" 
d="M840 -35q-155 0 -293.5 54t-242.5 150.5t-165 241t-61 316.5t61 316.5t165 241t242.5 150.5t293.5 54t293.5 -54t242.5 -150.5t165 -241t61 -316.5t-61 -316.5t-165 -241t-242.5 -150.5t-293.5 -54zM852 315q136 0 222.5 80.5t86.5 206.5q0 124 -70.5 194t-187.5 70
q-167 0 -219 -118q3 124 46 190t120 66q101 0 123 -99l174 25q-41 211 -295 211q-160 0 -252 -115t-92 -311q0 -190 91 -295t253 -105zM848 453q-131 0 -160 174q45 108 158 108q63 0 101 -39t38 -104q0 -64 -37 -101.5t-100 -37.5z" />
    <glyph glyph-name="uni277C" unicode="&#x277c;" horiz-adv-x="1679" 
d="M840 -35q-155 0 -293.5 54t-242.5 150.5t-165 241t-61 316.5t61 316.5t165 241t242.5 150.5t293.5 54t293.5 -54t242.5 -150.5t165 -241t61 -316.5t-61 -316.5t-165 -241t-242.5 -150.5t-293.5 -54zM659 332h203q2 201 68 356t211 293v141h-600v-151h420
q-142 -130 -220.5 -296t-81.5 -343z" />
    <glyph glyph-name="uni277D" unicode="&#x277d;" horiz-adv-x="1679" 
d="M840 -35q-155 0 -293.5 54t-242.5 150.5t-165 241t-61 316.5t61 316.5t165 241t242.5 150.5t293.5 54t293.5 -54t242.5 -150.5t165 -241t61 -316.5t-61 -316.5t-165 -241t-242.5 -150.5t-293.5 -54zM838 315q155 0 248.5 64t93.5 170q0 164 -176 219q72 26 104.5 67.5
t32.5 104.5q0 93 -85.5 147t-226.5 54q-136 0 -221.5 -61.5t-85.5 -159.5q0 -134 144 -193q-86 -25 -126 -71t-40 -119q0 -101 92 -161.5t246 -60.5zM889 801l-53 12q-69 16 -102.5 41t-33.5 68q0 44 35 70t96 26q63 0 100.5 -29t37.5 -78q0 -74 -80 -110zM842 449
q-71 0 -112.5 30t-41.5 82q0 46 23.5 76.5t74.5 52.5l64 -16q69 -14 105 -42t36 -77t-40.5 -77.5t-108.5 -28.5z" />
    <glyph glyph-name="uni277E" unicode="&#x277e;" horiz-adv-x="1679" 
d="M840 -35q-155 0 -293.5 54t-242.5 150.5t-165 241t-61 316.5t61 316.5t165 241t242.5 150.5t293.5 54t293.5 -54t242.5 -150.5t165 -241t61 -316.5t-61 -316.5t-165 -241t-242.5 -150.5t-293.5 -54zM827 315q171 0 256.5 110t85.5 314q0 199 -87.5 300.5t-250.5 101.5
q-144 0 -228.5 -75.5t-84.5 -197.5q0 -116 76 -187t203 -71q118 0 196 72q-17 -227 -155 -227q-55 0 -88.5 27t-44.5 75l-175 -31q19 -102 96 -156.5t201 -54.5zM831 741q-63 0 -101 37t-38 96q0 60 39 97t105 37q72 0 110 -44.5t47 -138.5q-62 -84 -162 -84z" />
    <glyph glyph-name="uniE000" unicode="&#xe000;" horiz-adv-x="1863" 
d="M379 1466h1304v-139h-1155v-1001h201l-274 -367l-275 367h199v1140z" />
    <glyph glyph-name="uniF8FF" unicode="&#xf8ff;" horiz-adv-x="2084" 
d="M2044 1358h-1131v-96h1131v-99h-1131v-96h1131v-98h-1131v-97h1131v-96h-1131v-98h1131v-96h-2003v872h2003v-96zM137 1366l27 18h-33l-10 31l-8 -31h-33l26 -18l-10 -31l25 19l26 -19zM291 1384h-33l27 -18l-11 -31l25 21l27 -21l-11 31l25 18h-31l-10 31zM469 1384h-33
l27 -18l-10 -31l24 21l27 -21l-10 31l24 18h-31l-10 31zM645 1384h-31l27 -18l-10 -31l24 21l27 -21l-10 31l24 18h-30l-11 31zM850 1366l24 18h-30l-10 31l-11 -31h-30l24 -18l-8 -31l25 21l26 -21zM201 1294h-31l25 -18l-9 -29l25 19l25 -19l-9 29l25 18h-31l-10 31z
M760 1276l26 18h-32l-9 31l-10 -31h-30l24 -18l-10 -29l26 19l25 -19zM559 745v191h193v164h-193v192h-164v-192h-190v-164h190v-191h164zM137 1188l27 18h-33l-10 29l-8 -29h-33l26 -18l-10 -31l25 19l26 -19zM291 1206h-33l27 -18l-11 -31l25 19l27 -19l-11 31l25 18h-31
l-10 29zM645 1206h-31l27 -18l-10 -31l24 19l27 -19l-10 31l24 18h-30l-11 29zM850 1188l24 18h-30l-10 29l-11 -29h-30l24 -18l-8 -31l25 19l26 -19zM137 1008l27 20h-33l-10 29l-8 -29h-33l26 -20l-10 -29l25 18l26 -18zM850 1008l24 20h-30l-10 29l-11 -29h-30l24 -20
l-8 -29l25 18l26 -18zM137 829l27 19h-33l-10 31l-8 -31h-33l26 -19l-10 -28l25 18l26 -18zM315 829l25 19h-31l-10 31l-8 -31h-33l27 -19l-11 -28l25 18l27 -18zM672 829l24 19h-30l-11 31l-10 -31h-31l27 -19l-10 -28l24 18l27 -18zM850 829l24 19h-30l-10 31l-11 -31h-30
l24 -19l-8 -28l25 18l26 -18zM236 711l-9 30l25 19h-31l-10 28l-10 -28h-31l25 -19l-9 -30l25 18zM770 711l-10 30l26 19h-32l-9 28l-10 -28h-30l24 -19l-10 -30l26 18zM147 621l-10 30l27 19h-33l-10 30l-8 -30h-33l26 -19l-10 -30l25 18zM326 621l-11 30l25 19h-31l-10 30
l-8 -30h-33l27 -19l-11 -30l25 18zM504 621l-10 30l24 19h-31l-10 30l-8 -30h-33l27 -19l-10 -30l24 18zM682 621l-10 30l24 19h-30l-11 30l-10 -30h-31l27 -19l-10 -30l24 18zM860 621l-10 30l24 19h-30l-10 30l-11 -30h-30l24 -19l-8 -30l25 18zM41 387v98h2001v-98h-2001
zM41 195v96h2003v-96h-2003zM41 0v96h2003v-96h-2003z" />
    <glyph glyph-name="uni00A40301" horiz-adv-x="831" 
d="M451 1542l135 232h227l-168 -232h-194zM678 410q0 -117 -34 -203t-96.5 -135.5t-141.5 -73t-177 -23.5q-123 0 -190 17v227q64 -10 156 -10q103 0 161 54t58 186v1005h264v-1044z" />
    <glyph glyph-name="i.loclTRK" horiz-adv-x="571" 
d="M152 1194v256h266v-256h-266zM164 0v1024h246v-1024h-246z" />
    <glyph glyph-name="uni006A0301" horiz-adv-x="573" 
d="M193 1176l145 305h237l-182 -305h-200zM90 -414q-89 0 -139 13v188q19 -1 40.5 -2t33.5 -1.5t20 -0.5q66 0 93.5 36.5t27.5 135.5v1069h246v-1087q0 -80 -15.5 -141t-51 -110t-100 -74.5t-155.5 -25.5z" />
    <glyph glyph-name="zero.zero" horiz-adv-x="1331" 
d="M666 1454q278 0 428.5 -196.5t150.5 -546.5q0 -349 -151 -545.5t-428 -196.5t-427.5 196.5t-150.5 545.5q0 350 150.5 546.5t427.5 196.5zM666 1253q-158 0 -240 -141t-82 -401q0 -148 29 -267l526 678q-81 131 -233 131zM666 170q158 0 240.5 141.5t82.5 399.5
q0 150 -31 268l-526 -680q84 -129 234 -129z" />
    <glyph glyph-name="zero.tf" 
d="M635 -31q-539 0 -539 742q0 743 539 743t539 -743q0 -742 -539 -742zM635 164q70 0 121.5 27.5t90.5 89.5t58.5 169.5t20.5 260.5q-1 155 -20.5 262.5t-58.5 170t-90.5 89.5t-121.5 27t-121.5 -27t-90.5 -89.5t-58.5 -170t-20.5 -262.5q1 -153 20.5 -260.5t58.5 -169.5
t90.5 -89.5t121.5 -27.5z" />
    <glyph glyph-name="one.tf" 
d="M805 213h338v-213h-971v213h381v848q-94 -94 -301 -94h-68v225h58q147 0 230.5 60t123.5 171h209v-1210z" />
    <glyph glyph-name="two.tf" 
d="M135 0v193q257 188 483 409q119 116 167.5 209t48.5 205q0 110 -57.5 170.5t-160.5 60.5q-104 0 -162.5 -60t-58.5 -165q0 -47 13 -117l-250 25q-11 51 -11 100q0 193 129 308.5t349 115.5q222 0 343.5 -112.5t121.5 -319.5q0 -137 -66.5 -261.5t-210.5 -262.5
q-175 -164 -356 -287h653v-211h-975z" />
    <glyph glyph-name="three.tf" 
d="M639 -31q-239 0 -377 123t-143 326l252 26q5 -126 74.5 -200t195.5 -74q119 0 184.5 63.5t65.5 178.5q0 104 -70 165.5t-200 61.5h-80v186h75q114 0 175 61.5t61 160.5t-56.5 153.5t-162.5 54.5q-120 0 -185 -74.5t-65 -211.5l-244 39q0 206 136.5 326t369.5 120
q215 0 337 -104.5t122 -282.5q0 -111 -69.5 -198.5t-182.5 -116.5q139 -27 217 -119.5t78 -237.5q0 -191 -138.5 -308.5t-369.5 -117.5z" />
    <glyph glyph-name="four.tf" 
d="M727 0v340h-647v170l606 913h275v-895h219v-188h-219v-340h-234zM303 528h424v467q0 105 4 197h-2q-28 -78 -94 -178l-244 -367q-8 -11 -25 -36.5l-23 -34.5t-17.5 -23t-22.5 -25z" />
    <glyph glyph-name="five.tf" 
d="M623 -31q-201 0 -333 105t-157 282l246 35q19 -100 84.5 -158.5t169.5 -58.5q121 0 189.5 78t68.5 215q0 146 -65 229.5t-189 83.5q-98 0 -162.5 -54.5t-89.5 -152.5l-221 23l86 827h813v-206h-639l-47 -412q97 168 323 168q202 0 319.5 -132.5t117.5 -363.5
q0 -229 -140.5 -368.5t-373.5 -139.5z" />
    <glyph glyph-name="six.tf" 
d="M705 954q201 0 319.5 -130.5t118.5 -350.5q0 -227 -135 -365.5t-355 -138.5q-262 0 -400 183.5t-138 531.5q0 367 144.5 568.5t408.5 201.5q191 0 308 -92.5t148 -269.5l-243 -45q-39 208 -219 208q-144 0 -221.5 -125.5t-82.5 -363.5q49 90 140 139t207 49zM651 168
q112 0 179 81t67 218q0 134 -66.5 214.5t-181.5 80.5q-102 0 -178 -64.5t-109 -183.5q15 -161 91.5 -253.5t197.5 -92.5z" />
    <glyph glyph-name="seven.tf" 
d="M369 0v23q0 306 129.5 605.5t369.5 575.5h-718v219h983v-194q-241 -261 -364.5 -561.5t-123.5 -624.5v-43h-276z" />
    <glyph glyph-name="eight.tf" 
d="M872 778q146 -56 216.5 -148t70.5 -243q0 -189 -143 -303.5t-379 -114.5q-238 0 -381 109.5t-143 292.5q0 280 272 358q-113 54 -169 136t-56 208q0 170 130.5 275.5t342.5 105.5t339.5 -97.5t127.5 -264.5q0 -234 -228 -314zM627 1276q-103 0 -162 -54t-59 -149
q0 -83 51.5 -134.5t160.5 -86.5l76 -21q90 41 129 95.5t39 138.5q0 100 -62.5 155.5t-172.5 55.5zM641 160q124 0 196 62t72 169q0 91 -55 148.5t-170 93.5l-123 37q-107 -44 -153 -105.5t-46 -158.5q0 -110 76.5 -178t202.5 -68z" />
    <glyph glyph-name="nine.tf" 
d="M604 1454q266 0 402.5 -181.5t136.5 -535.5q0 -138 -19.5 -254t-61 -212t-104 -162.5t-152 -103t-200.5 -36.5q-200 0 -323 96.5t-154 280.5l244 47q20 -106 79.5 -164.5t161.5 -58.5q280 0 283 514q-100 -166 -322 -166q-208 0 -337 123.5t-129 337.5q0 209 135 342
t360 133zM614 713q96 0 174.5 60.5t106.5 156.5q-5 66 -21.5 121.5t-49 104t-87.5 76.5t-129 28q-115 0 -184.5 -76t-69.5 -201q0 -122 72.5 -196t187.5 -74z" />
    <glyph glyph-name="zero.tf.zero" 
d="M635 1454q539 0 539 -743q0 -742 -539 -742t-539 742q0 743 539 743zM635 1260q-70 0 -121.5 -27t-90.5 -89.5t-58.5 -170t-20.5 -262.5q0 -134 21 -260l495 665q-68 144 -225 144zM635 164q70 0 121.5 27.5t90.5 89.5t58.5 169.5t20.5 260.5q0 137 -21 260l-495 -664
q67 -143 225 -143z" />
    <glyph glyph-name="dollar.tf" 
d="M1159 383q0 -192 -123 -299t-342 -115v-188h-92v190q-206 13 -335.5 123t-164.5 299l232 62q29 -129 95 -199.5t173 -87.5v446l-82 21q-184 49 -278.5 156.5t-94.5 263.5q0 179 122 284.5t333 114.5v184h92v-186q192 -12 312.5 -114t138.5 -283l-223 -66
q-27 245 -228 275v-441l99 -26q189 -51 277.5 -147t88.5 -267zM596 850l6 -2v420q-103 -6 -162 -57t-59 -142q0 -89 55 -141t160 -78zM694 162q228 10 228 203q0 90 -53.5 142.5t-168.5 82.5l-6 2v-430z" />
    <glyph glyph-name="cent.tf" 
d="M696 164q164 23 195 229l213 -41q-12 -75 -43 -139t-80 -115.5t-122 -83t-163 -37.5v-170h-102v170q-211 20 -325.5 168.5t-114.5 370.5q0 223 112 366.5t328 164.5v170h102v-170q171 -9 279.5 -105.5t130.5 -263.5l-221 -33q-13 97 -61 153t-128 68v-702zM381 522
q0 -147 54 -241.5t159 -114.5v700q-105 -20 -159 -111t-54 -233z" />
    <glyph glyph-name="sterling.tf" 
d="M969 375l225 -39q-13 -95 -49.5 -167.5t-88.5 -115t-111.5 -63.5t-125.5 -21q-79 0 -198 27t-213 27q-146 0 -295 -39l-52 159q269 90 269 367q0 70 -15 158h-202v141h170q-35 144 -35 229q0 196 119 306t319 110q181 0 291.5 -87t144.5 -251l-233 -55q-38 203 -203 203
q-92 0 -143 -54t-51 -166q0 -91 34 -235h324v-141h-295q10 -65 10 -125q0 -248 -211 -348q47 12 135 12q58 0 150.5 -14.5t148.5 -14.5q68 0 118 47t63 150z" />
    <glyph glyph-name="florin.tf" 
d="M930 1262q-85 0 -124 -47.5t-54 -167.5l-21 -158h209v-174h-231l-131 -1022h-248l129 1022h-195v174h215l17 127q31 242 125 340t294 98q69 0 115 -12v-191q-45 11 -100 11z" />
    <glyph glyph-name="yen.tf" 
d="M1190 1423l-416 -745h334v-131h-348v-137h348v-131h-348v-279h-250v279h-348v131h348v137h-348v131h334l-416 745h274l230 -458q29 -51 49 -127h4q20 76 49 127l229 458h275z" />
    <glyph glyph-name="Euro.tf" 
d="M1006 373l208 -92q-59 -148 -185 -230t-302 -82q-240 0 -382 148t-177 409h-158v129h148v41v66v33h-148v129h158q35 256 184.5 393t392.5 137q351 0 465 -295l-211 -104q-85 202 -266 202q-263 0 -311 -333h469v-129h-477v-17v-90v-33h477v-129h-467q24 -180 103.5 -268
t203.5 -88q182 0 275 203z" />
    <glyph glyph-name="percent.tf" 
d="M150 -33l796 1528h156l-795 -1528h-157zM330 799q-130 0 -206.5 91.5t-76.5 250.5q0 153 76.5 244.5t204.5 91.5q124 0 201 -93.5t77 -248.5q0 -154 -76.5 -245t-199.5 -91zM330 942q54 0 83 50t29 141v10q0 90 -30 141t-84 51q-55 0 -86 -50t-31 -138v-10
q0 -94 31 -144.5t88 -50.5zM946 -23q-129 0 -205.5 93t-76.5 252q0 152 76.5 243.5t203.5 91.5q123 0 201 -94t78 -248q0 -153 -77.5 -245.5t-199.5 -92.5zM946 121q53 0 83 50t30 140v11q0 91 -30.5 141.5t-84.5 50.5q-55 0 -86 -49.5t-31 -136.5v-13q0 -94 31 -144t88 -50
z" />
    <glyph glyph-name="perthousand.tf" 
d="M326 868q-118 0 -188 80t-70 217q0 138 70 217.5t188 79.5t187 -79t69 -218q0 -137 -69.5 -217t-186.5 -80zM1112 1348v-160l-1003 -819v159zM223 1176v-21q0 -75 27 -116.5t76 -41.5q47 0 73.5 41.5t26.5 116.5v21q0 75 -26.5 116t-73.5 41q-49 0 -76 -41t-27 -116z
M944 567q119 0 188.5 -78t69.5 -217q0 -138 -70 -217.5t-188 -79.5q-105 0 -168 72q-63 -72 -170 -72q-117 0 -186.5 79.5t-69.5 217.5t69 216.5t187 78.5q108 0 170 -71q62 71 168 71zM709 262v19q0 76 -26.5 117.5t-76.5 41.5q-47 0 -73.5 -41.5t-26.5 -117.5v-19
q0 -76 26 -117t74 -41q50 0 76.5 41t26.5 117zM1047 262v19q0 76 -26.5 117.5t-76.5 41.5q-47 0 -73.5 -41.5t-26.5 -117.5v-19q0 -76 26 -117t74 -41q50 0 76.5 41t26.5 117z" />
    <glyph glyph-name="uni20BF.case" horiz-adv-x="1347" 
d="M1255 410q0 -76 -22.5 -142.5t-69.5 -124t-129.5 -95t-191.5 -46.5v-184h-115v182h-145v-182h-115v182h-287v1454h287v166h115v-166h145v166h115v-170q102 -11 177 -46t117 -86.5t61.5 -110t19.5 -126.5q0 -117 -62 -203t-188 -120q141 -23 214.5 -112.5t73.5 -235.5z
M696 1260h-268v-426h268q258 0 258 219q0 207 -258 207zM727 193q138 0 202 66t64 173q0 102 -63 163.5t-189 61.5h-313v-464h299z" />
    <glyph glyph-name="uni20BF.tf" 
d="M1169 397q0 -169 -97 -268t-273 -123v-225h-113v219h-147v-219h-115v219h-250v1423h250v185h115v-185h114h33v185h113v-197q160 -27 247 -117t87 -241q0 -117 -68 -201.5t-191 -118.5q139 -22 217 -110.5t78 -225.5zM637 1231h-217v-418h217q117 0 177 56t60 163
q0 106 -58 152.5t-179 46.5zM664 193q249 0 249 227q0 101 -61.5 157t-173.5 56h-258v-440h244z" />
    <glyph glyph-name="uni20BF.tf.case" 
d="M1169 414q0 -176 -97 -279t-273 -127v-198h-113v190h-147v-190h-115v190h-250v1454h250v164h115v-164h114h33v164h113v-176q160 -28 247 -121t87 -248q0 -117 -68 -202t-191 -119q139 -22 217 -111t78 -227zM637 1260h-217v-429h217q117 0 177 56.5t60 165.5
q0 113 -57.5 160t-179.5 47zM664 193q249 0 249 243q0 103 -61.5 159t-173.5 56h-258v-458h244z" />
    <glyph glyph-name="g.ss01" horiz-adv-x="1216" 
d="M575 -424q-425 0 -462 344h245q28 -168 226 -168q115 0 170 64.5t55 201.5v177q-38 -100 -115 -151.5t-186 -51.5q-189 0 -308.5 149t-119.5 387q0 233 122 377t316 144q103 0 182 -48.5t119 -136.5l35 160h199v-999q0 -449 -478 -449zM575 170q106 0 172 88.5t66 230.5
v72q0 134 -65 216.5t-170 82.5q-113 0 -177.5 -88.5t-64.5 -247.5q0 -160 65 -257t174 -97z" />
    <glyph glyph-name="gbreve.ss01" horiz-adv-x="1216" 
d="M459 1481q4 -85 44.5 -128.5t110.5 -43.5q69 0 109.5 43.5t44.5 128.5h176q-5 -109 -51 -181.5t-116 -103.5t-163 -31q-143 0 -233.5 78t-97.5 238h176zM575 -424q-425 0 -462 344h245q28 -168 226 -168q115 0 170 64.5t55 201.5v177q-38 -100 -115 -151.5t-186 -51.5
q-189 0 -308.5 149t-119.5 387q0 233 122 377t316 144q103 0 182 -48.5t119 -136.5l35 160h199v-999q0 -449 -478 -449zM575 170q106 0 172 88.5t66 230.5v72q0 134 -65 216.5t-170 82.5q-113 0 -177.5 -88.5t-64.5 -247.5q0 -160 65 -257t174 -97z" />
    <glyph glyph-name="gcircumflex.ss01" horiz-adv-x="1216" 
d="M958 1176h-196l-148 208l-145 -208h-199l222 305h247zM575 -424q-425 0 -462 344h245q28 -168 226 -168q115 0 170 64.5t55 201.5v177q-38 -100 -115 -151.5t-186 -51.5q-189 0 -308.5 149t-119.5 387q0 233 122 377t316 144q103 0 182 -48.5t119 -136.5l35 160h199v-999
q0 -449 -478 -449zM575 170q106 0 172 88.5t66 230.5v72q0 134 -65 216.5t-170 82.5q-113 0 -177.5 -88.5t-64.5 -247.5q0 -160 65 -257t174 -97z" />
    <glyph glyph-name="uni0123.ss01" horiz-adv-x="1216" 
d="M666 1577l47 -92q-59 -17 -79 -41t-20 -72h119v-196h-231v172q0 89 37.5 146t126.5 83zM575 -424q-425 0 -462 344h245q28 -168 226 -168q115 0 170 64.5t55 201.5v177q-38 -100 -115 -151.5t-186 -51.5q-189 0 -308.5 149t-119.5 387q0 233 122 377t316 144
q103 0 182 -48.5t119 -136.5l35 160h199v-999q0 -449 -478 -449zM575 170q106 0 172 88.5t66 230.5v72q0 134 -65 216.5t-170 82.5q-113 0 -177.5 -88.5t-64.5 -247.5q0 -160 65 -257t174 -97z" />
    <glyph glyph-name="gdotaccent.ss01" horiz-adv-x="1216" 
d="M479 1194v256h266v-256h-266zM575 -424q-425 0 -462 344h245q28 -168 226 -168q115 0 170 64.5t55 201.5v177q-38 -100 -115 -151.5t-186 -51.5q-189 0 -308.5 149t-119.5 387q0 233 122 377t316 144q103 0 182 -48.5t119 -136.5l35 160h199v-999q0 -449 -478 -449z
M575 170q106 0 172 88.5t66 230.5v72q0 134 -65 216.5t-170 82.5q-113 0 -177.5 -88.5t-64.5 -247.5q0 -160 65 -257t174 -97z" />
    <glyph glyph-name="g_g.liga.ss01" horiz-adv-x="2433" 
d="M575 -424q-425 0 -462 344h245q28 -168 226 -168q115 0 170 64.5t55 201.5v177q-38 -100 -115 -151.5t-186 -51.5q-189 0 -308.5 149t-119.5 387q0 233 122 377t316 144q103 0 182 -48.5t119 -136.5l35 160h199v-999q0 -449 -478 -449zM1792 -424q-426 0 -463 344h246
q28 -168 225 -168q115 0 170 64.5t55 201.5v177q-38 -100 -115 -151.5t-186 -51.5q-189 0 -308.5 149t-119.5 387q0 232 122.5 376.5t316.5 144.5q103 0 182 -48.5t119 -136.5l35 160h198v-999q0 -449 -477 -449zM575 170q106 0 172 88.5t66 230.5v72q0 134 -65 216.5
t-170 82.5q-113 0 -177.5 -88.5t-64.5 -247.5q0 -160 65 -257t174 -97zM1792 170q106 0 172 88.5t66 230.5v72q0 134 -65.5 216.5t-170.5 82.5q-113 0 -177.5 -88.5t-64.5 -247.5q0 -160 65.5 -257t174.5 -97z" />
    <glyph glyph-name="g.sups.ss01" horiz-adv-x="978" 
d="M461 326q-170 0 -260 61.5t-103 190.5h201q10 -60 53.5 -90.5t112.5 -28.5q168 0 168 182v129q-28 -65 -88 -100t-144 -35q-145 0 -235 107t-90 278q0 173 90.5 277t241.5 104q85 0 146 -35.5t89 -101.5l16 118h187v-723q0 -333 -385 -333zM465 772q77 0 123.5 58
t46.5 153v61q0 95 -45 153t-119 58q-84 0 -129 -62t-45 -179q0 -109 46.5 -175.5t121.5 -66.5z" />
    <glyph glyph-name="a.sups" horiz-adv-x="917" 
d="M332 616q-117 0 -188.5 61t-71.5 159q0 58 21.5 99t65 67t96.5 40.5t128 24.5l199 29v22q0 76 -31.5 111t-99.5 35q-135 0 -144 -127h-213q9 125 103.5 194.5t253.5 69.5q180 0 263 -74t83 -235v-238q0 -137 20 -219h-209q-9 60 -12 131q-29 -70 -99.5 -110t-164.5 -40z
M412 748q81 0 129.5 48.5t48.5 125.5v75l-148 -22q-83 -12 -121 -42t-38 -81q0 -46 35 -75t94 -29z" />
    <glyph glyph-name="b.sups" horiz-adv-x="985" 
d="M590 616q-83 0 -147.5 36.5t-94.5 97.5l-12 -115h-191v1083h213v-440q30 56 93.5 89.5t146.5 33.5q144 0 227.5 -106t83.5 -287q0 -179 -86 -285.5t-233 -106.5zM520 764q80 0 125 64t45 180t-44 179.5t-126 63.5q-76 0 -121 -58t-45 -155v-59q0 -100 44 -157.5
t122 -57.5z" />
    <glyph glyph-name="c.sups" horiz-adv-x="894" 
d="M467 616q-180 0 -286.5 106.5t-106.5 285.5q0 184 106 288.5t291 104.5q147 0 239.5 -69.5t112.5 -196.5l-200 -41q-9 72 -50.5 110.5t-107.5 38.5q-82 0 -128 -60t-46 -167q0 -114 46.5 -178t129.5 -64q64 0 105.5 40.5t50.5 111.5l200 -41q-22 -124 -117 -196.5
t-239 -72.5z" />
    <glyph glyph-name="d.sups" horiz-adv-x="985" 
d="M387 616q-140 0 -225.5 108t-85.5 282q0 179 88 287t235 108q82 0 141.5 -32t88.5 -93v442h211v-1083h-203v131q-28 -68 -95.5 -109t-154.5 -41zM471 764q73 0 116.5 59t43.5 152v61q0 102 -43 159.5t-121 57.5q-80 0 -125 -63.5t-45 -179.5q0 -113 46.5 -179.5
t127.5 -66.5z" />
    <glyph glyph-name="e.sups" horiz-adv-x="903" 
d="M821 1018v-51h-540q2 -88 54.5 -140.5t143.5 -52.5q139 0 207 117l123 -92q-44 -85 -130.5 -134t-203.5 -49q-190 0 -295.5 103.5t-105.5 288.5q0 182 103 287.5t280 105.5q174 0 269 -101t95 -282zM281 1085h335q0 89 -41 139t-118 50q-79 0 -126 -50t-50 -139z" />
    <glyph glyph-name="f.sups" horiz-adv-x="632" 
d="M580 1382v-143h-185v-604h-213v604h-129v143h129v80q0 129 73.5 198t211.5 69q47 0 113 -15v-153q-31 8 -72 8q-113 0 -113 -113v-74h185z" />
    <glyph glyph-name="g.sups" horiz-adv-x="913" 
d="M868 1360q-34 6 -63 6q-70 0 -109 -33q92 -70 92 -182q0 -115 -92.5 -183.5t-249.5 -68.5q-85 0 -159 23q-29 -16 -29 -45q0 -70 109 -70h219q136 0 206 -54t70 -157q0 -128 -111 -199t-321 -71q-182 0 -277.5 48t-95.5 132q0 47 35.5 83t102.5 56q-109 38 -109 137
q0 119 137 168q-119 70 -119 201q0 114 92 182t250 68q98 0 177 -29q19 65 74.5 101t140.5 36q20 0 30 -2v-147zM446 1006q61 0 99.5 41t38.5 104q0 64 -38 102.5t-100 38.5t-99.5 -38.5t-37.5 -102.5q0 -63 38 -104t99 -41zM563 625l-244 2q-39 0 -55 2q-37 -27 -37 -78
q0 -113 213 -113q236 0 236 107q0 80 -113 80z" />
    <glyph glyph-name="h.sups" horiz-adv-x="985" 
d="M145 635v1083h213v-461q68 146 252 146q126 0 190 -76.5t64 -226.5v-465h-213v444q0 160 -133 160q-75 0 -117.5 -53t-42.5 -148v-403h-213z" />
    <glyph glyph-name="i.sups" horiz-adv-x="489" 
d="M133 1489v219h223v-219h-223zM137 635v747h215v-747h-215z" />
    <glyph glyph-name="j.sups" horiz-adv-x="495" 
d="M139 1489v219h221v-219h-221zM80 334q-78 0 -109 8v154q44 -7 64 -7q58 0 82 29.5t24 102.5v761h217v-776q0 -137 -64 -204.5t-214 -67.5z" />
    <glyph glyph-name="k.sups" horiz-adv-x="931" 
d="M662 635l-199 323l-105 -104v-219h-213v1083h213v-653l283 317h250l-281 -295l291 -452h-239z" />
    <glyph glyph-name="l.sups" horiz-adv-x="501" 
d="M358 1718v-1083h-213v1083h213z" />
    <glyph glyph-name="m.sups" horiz-adv-x="1406" 
d="M133 1382h207v-125q66 144 238 144q167 0 221 -139q78 139 248 139q114 0 175.5 -73t61.5 -206v-487h-211v440q0 164 -123 164q-63 0 -99 -44t-36 -122v-438h-213v442q0 162 -117 162q-66 0 -101.5 -46.5t-35.5 -131.5v-426h-215v747z" />
    <glyph glyph-name="n.sups" horiz-adv-x="974" 
d="M133 635v747h207v-135q74 154 258 154q256 0 256 -305v-461h-215v432q0 172 -133 172q-75 0 -115.5 -52.5t-40.5 -146.5v-405h-217z" />
    <glyph glyph-name="o.sups" horiz-adv-x="925" 
d="M463 616q-173 0 -281 103.5t-108 290.5q0 186 108 288.5t281 102.5t280 -102t107 -289t-107 -290.5t-280 -103.5zM463 764q83 0 129.5 62.5t46.5 183.5t-46 182t-130 61q-85 0 -130.5 -61t-45.5 -182t46 -183.5t130 -62.5z" />
    <glyph glyph-name="p.sups" horiz-adv-x="974" 
d="M133 344v1038h205v-120q34 66 100.5 102.5t151.5 36.5q141 0 225 -107t84 -284q0 -180 -86.5 -287t-232.5 -107q-155 0 -232 117v-389h-215zM510 764q78 0 123 66t45 180q0 116 -43.5 179.5t-124.5 63.5q-79 0 -122.5 -61t-43.5 -166v-39q0 -99 44.5 -161t121.5 -62z" />
    <glyph glyph-name="q.sups" horiz-adv-x="974" 
d="M629 344v410q-31 -65 -95.5 -101.5t-148.5 -36.5q-139 0 -224 107.5t-85 282.5q0 181 87.5 288t235.5 107q179 0 238 -133l18 114h185v-1038h-211zM465 764q76 0 121 59t45 154v65q0 96 -44.5 153.5t-123.5 57.5q-78 0 -122 -63.5t-44 -179.5t44.5 -181t123.5 -65z" />
    <glyph glyph-name="r.sups" horiz-adv-x="663" 
d="M334 1198q30 98 95.5 150.5t162.5 52.5q12 0 18 -2v-203q-9 0 -24 1t-23 1q-94 0 -145 -45q-70 -62 -70 -195v-323h-215v747h201v-184z" />
    <glyph glyph-name="s.sups" horiz-adv-x="798" 
d="M410 616q-125 0 -218 47t-143 134l117 100q39 -63 103 -98t145 -35q133 0 133 82q0 39 -26 58t-91 28l-106 16q-119 20 -176.5 75t-57.5 148q0 105 87 167.5t235 62.5q107 0 193.5 -36.5t135.5 -104.5l-108 -105q-78 107 -230 107q-120 0 -120 -78q0 -31 24 -50t78 -28
l129 -21q115 -19 168 -74t53 -153q0 -113 -85.5 -177.5t-239.5 -64.5z" />
    <glyph glyph-name="t.sups" horiz-adv-x="634" 
d="M35 1241v141h135v183l211 80v-263h186v-141h-186v-328q0 -120 117 -120l69 6v-164q-71 -14 -127 -14q-270 0 -270 237v383h-135z" />
    <glyph glyph-name="u.sups" horiz-adv-x="968" 
d="M633 766q-28 -69 -94 -109.5t-154 -40.5q-133 0 -198.5 74t-65.5 211v481h215v-444q0 -158 131 -158q72 0 114 48.5t42 123.5v430h213v-747h-203v131z" />
    <glyph glyph-name="v.sups" horiz-adv-x="847" 
d="M307 635l-274 747h219l145 -467q4 -15 9.5 -35t9 -35.5t6.5 -31.5h2q17 74 27 105l145 464h219l-274 -747h-234z" />
    <glyph glyph-name="w.sups" horiz-adv-x="1224" 
d="M262 635l-211 747h203l111 -475q12 -46 12 -73h4q8 50 14 73l127 475h178l129 -475q13 -51 15 -73h4q1 7 12 73l113 475h203l-211 -747h-205l-131 465q-13 44 -15 61h-2q-2 -21 -14 -61l-131 -465h-205z" />
    <glyph glyph-name="x.sups" horiz-adv-x="894" 
d="M43 635l283 389l-265 358h240l107 -157q35 -58 41 -80h4q13 36 45 80l106 157h223l-258 -354l283 -393h-238l-127 182q-37 54 -47 82h-2q-9 -27 -45 -82l-129 -182h-221z" />
    <glyph glyph-name="y.sups" horiz-adv-x="851" 
d="M174 334q-47 0 -96 8v156q62 -9 80 -9q64 0 100.5 28.5t58.5 86.5l13 33l-297 745h233l150 -469q13 -43 22 -98h4q2 15 5.5 29t11 37t10.5 34l137 467h215l-278 -782q-51 -142 -137.5 -204t-231.5 -62z" />
    <glyph glyph-name="z.sups" horiz-adv-x="778" 
d="M61 760l385 473h-364v149h618v-122l-381 -472h402v-153h-660v125z" />
    <glyph glyph-name="zero.case" horiz-adv-x="1331" 
d="M666 -31q-277 0 -427.5 201.5t-150.5 558.5q0 358 150.5 559t427.5 201t428 -201t151 -559q0 -357 -151 -558.5t-428 -201.5zM666 170q158 0 240.5 146.5t82.5 412.5q0 267 -82.5 413t-240.5 146t-240 -146t-82 -413q0 -266 82 -412.5t240 -146.5z" />
    <glyph glyph-name="one.case" horiz-adv-x="841" 
d="M365 0v1081q-35 -40 -102.5 -62t-137.5 -22h-66v226h43q115 0 194 58.5t114 172.5h206v-1454h-251z" />
    <glyph glyph-name="two.case" horiz-adv-x="1153" 
d="M66 0v193q262 171 497 393q121 121 170 219.5t49 220.5q0 123 -58 189.5t-165 66.5q-108 0 -169.5 -65.5t-61.5 -178.5q0 -59 14 -125l-254 25q-14 55 -14 113q0 200 134 319t363 119q227 0 353.5 -117.5t126.5 -333.5q0 -150 -70.5 -285.5t-220.5 -277.5
q-139 -128 -352 -264h657v-211h-999z" />
    <glyph glyph-name="three.case" horiz-adv-x="1193" 
d="M590 -31q-238 0 -382.5 126t-148.5 339l252 29q4 -138 79.5 -215.5t203.5 -77.5q124 0 188 64t64 186q0 237 -285 237h-78v187h72q125 0 187.5 60t62.5 169q0 103 -60.5 160t-169.5 57q-120 0 -185.5 -77.5t-65.5 -219.5l-244 41q0 210 137 332.5t371 122.5
q225 0 350 -102.5t125 -284.5q0 -124 -72.5 -214.5t-197.5 -121.5q153 -25 233 -114t80 -240q0 -205 -139.5 -324t-376.5 -119z" />
    <glyph glyph-name="four.case" horiz-adv-x="1175" 
d="M1151 356h-223v-356h-246v356h-662v170l629 928h279v-909h223v-189zM688 1026q0 130 4 191h-4q-25 -62 -92 -168l-225 -347q-76 -112 -117 -157h434v481z" />
    <glyph glyph-name="five.case" horiz-adv-x="1185" 
d="M586 -31q-203 0 -338 109t-164 295l252 35q21 -107 86 -170.5t168 -63.5q124 0 194 81t70 224q0 148 -67 235t-191 87q-98 0 -162.5 -54.5t-91.5 -154.5l-231 22l86 840h837v-207h-651l-47 -422q103 168 328 168q205 0 323.5 -135t118.5 -369q0 -236 -141 -378t-379 -142
z" />
    <glyph glyph-name="six.case" horiz-adv-x="1193" 
d="M682 977q201 0 320.5 -134t119.5 -360q0 -229 -137.5 -371.5t-357.5 -142.5q-264 0 -405.5 188.5t-141.5 544.5q0 373 147.5 580t411.5 207q195 0 314 -96t151 -279l-246 -45q-44 221 -223 221q-147 0 -227 -130t-84 -378q51 94 143 144.5t215 50.5zM623 168
q117 0 185.5 83.5t68.5 225.5q0 139 -71 222t-190 83q-102 0 -176.5 -63.5t-111.5 -181.5q15 -171 93.5 -270t201.5 -99z" />
    <glyph glyph-name="seven.case" horiz-adv-x="1038" 
d="M252 0v23q0 311 130 622.5t368 589.5h-705v219h969v-194q-238 -261 -362 -574.5t-124 -642.5v-43h-276z" />
    <glyph glyph-name="eight.case" horiz-adv-x="1226" 
d="M860 795q154 -58 224.5 -156t70.5 -248q0 -191 -148.5 -306.5t-394.5 -115.5q-247 0 -395.5 110.5t-148.5 293.5q0 147 70 240t214 139q-123 57 -180 142.5t-57 211.5q0 172 134.5 277.5t354.5 105.5q224 0 358 -99.5t134 -265.5q0 -246 -236 -329zM602 1311
q-113 0 -177.5 -54t-64.5 -149q0 -88 55.5 -144.5t178.5 -91.5l74 -20q99 43 141.5 99.5t42.5 146.5q0 100 -66 156.5t-184 56.5zM614 160q133 0 209 62.5t76 170.5q0 97 -57 159.5t-183 98.5l-122 37q-114 -45 -163.5 -111t-49.5 -169q0 -112 79.5 -180t210.5 -68z" />
    <glyph glyph-name="nine.case" horiz-adv-x="1204" 
d="M578 1489q268 0 404 -185t136 -546q0 -789 -551 -789q-199 0 -324 102t-151 291l244 48q14 -111 75 -175.5t164 -64.5q159 0 227 138.5t70 400.5q-50 -86 -136.5 -129t-196.5 -43q-208 0 -336.5 126t-128.5 345q0 212 137.5 346.5t366.5 134.5zM578 731q100 0 181.5 64.5
t110.5 165.5q-4 53 -16 99.5t-34.5 90t-54.5 75t-79.5 50t-105.5 18.5q-119 0 -191 -77.5t-72 -204.5q0 -126 73 -203.5t188 -77.5z" />
    <glyph glyph-name="one.case.ss02" horiz-adv-x="1089" 
d="M719 213h340v-213h-973v213h381v879q-92 -95 -301 -95h-66v226h56q148 0 232 60t124 171h207v-1241z" />
    <glyph glyph-name="zero.case.zero" horiz-adv-x="1331" 
d="M666 1489q277 0 428 -201t151 -559q0 -357 -151 -558.5t-428 -201.5t-427.5 201.5t-150.5 558.5q0 358 150.5 559t427.5 201zM666 1288q-158 0 -240 -146t-82 -413q0 -148 29 -274l532 690q-82 143 -239 143zM666 170q158 0 240.5 146.5t82.5 412.5q0 156 -26 266
l-533 -686q82 -139 236 -139z" />
    <glyph glyph-name="zero.osf" horiz-adv-x="1251" 
d="M629 -31q-254 0 -404.5 159t-150.5 427q0 259 151 415t402 156q249 0 400 -159t151 -422q0 -261 -150 -418.5t-399 -157.5zM629 164q138 0 220.5 102t82.5 275q0 180 -82 283.5t-223 103.5t-223 -101t-82 -276q0 -182 81 -284.5t226 -102.5z" />
    <glyph glyph-name="one.osf" horiz-adv-x="1159" 
d="M735 205h348v-205h-958v205h369v563q-43 -44 -137.5 -74t-176.5 -30h-53v217h35q114 0 225 61t145 154h203v-891z" />
    <glyph glyph-name="two.osf" horiz-adv-x="1179" 
d="M70 156q34 19 146.5 80.5t168.5 95.5q222 135 304.5 224.5t82.5 195.5q0 82 -51 129t-141 47q-98 0 -155.5 -53t-57.5 -144q0 -55 6 -90l-256 29q-6 50 -6 71q0 170 131 277.5t338 107.5q212 0 331 -94.5t119 -263.5q0 -168 -156 -309q-135 -123 -405 -254h616v-205
h-1015v156z" />
    <glyph glyph-name="three.osf" horiz-adv-x="1206" 
d="M592 -338q-248 0 -387 118t-142 331l250 24q4 -134 77 -204t206 -70q123 0 193.5 61.5t70.5 165.5q0 112 -75 173t-212 61h-86v184h82q118 0 184 57t66 158q0 98 -60.5 152.5t-170.5 54.5q-125 0 -192.5 -75.5t-67.5 -217.5l-246 39q1 211 140 331.5t374 120.5
q227 0 353 -99t126 -279q0 -116 -70 -201t-184 -115q140 -23 219.5 -117.5t79.5 -236.5q0 -187 -145 -301.5t-383 -114.5z" />
    <glyph glyph-name="four.osf" horiz-adv-x="1261" 
d="M721 -307v352h-670v170l637 881h279v-863h223v-188h-223v-352h-246zM287 233h434v418q0 135 2 209h-4q-40 -76 -88 -149l-250 -357q-70 -97 -94 -121z" />
    <glyph glyph-name="five.osf" horiz-adv-x="1214" 
d="M600 -338q-205 0 -344.5 97.5t-171.5 263.5l254 32q25 -92 94.5 -144t167.5 -52q129 0 204 82t75 223q0 124 -72.5 197t-194.5 73q-190 0 -262 -178l-233 18l92 822h835v-205h-641l-57 -440q46 86 133 133t205 47q202 0 326.5 -128t124.5 -335q0 -226 -148 -366
t-387 -140z" />
    <glyph glyph-name="six.osf" horiz-adv-x="1202" 
d="M690 954q201 0 319.5 -130t118.5 -351q0 -224 -137 -364t-358 -140q-264 0 -404.5 184t-140.5 531q0 365 146.5 567.5t410.5 202.5q197 0 315 -92t150 -270l-244 -45q-43 208 -225 208q-146 0 -225 -126t-84 -365q51 91 143.5 140.5t214.5 49.5zM631 168
q117 0 185.5 80.5t68.5 218.5q0 135 -70.5 215t-189.5 80q-103 0 -179 -65t-110 -183q15 -160 94.5 -253t200.5 -93z" />
    <glyph glyph-name="seven.osf" horiz-adv-x="1062" 
d="M268 -307v22q0 294 127.5 588.5t372.5 573.5h-719v219h983v-195q-487 -517 -487 -1165v-43h-277z" />
    <glyph glyph-name="eight.osf" horiz-adv-x="1232" 
d="M868 774q153 -57 223 -149.5t70 -237.5q0 -189 -148.5 -303.5t-394.5 -114.5q-248 0 -396 109.5t-148 292.5q0 139 69.5 228t212.5 132q-122 54 -178.5 137t-56.5 205q0 172 134.5 276.5t354.5 104.5q224 0 358 -98t134 -264q0 -236 -234 -318zM608 1276
q-112 0 -176.5 -53.5t-64.5 -147.5q0 -83 55 -135.5t178 -87.5l78 -21q97 41 138.5 95.5t41.5 138.5q0 100 -66 155.5t-184 55.5zM621 160q133 0 208.5 61.5t75.5 169.5q0 89 -56.5 146.5t-182.5 95.5l-125 37q-114 -44 -162.5 -105.5t-48.5 -158.5q0 -110 80.5 -178
t210.5 -68z" />
    <glyph glyph-name="nine.osf" horiz-adv-x="1220" 
d="M594 1126q267 0 403 -179t136 -533q0 -364 -144.5 -558t-415.5 -194q-204 0 -327.5 85.5t-161.5 252.5l246 49q49 -196 254 -196q304 0 307 520q-53 -87 -145 -135t-209 -48q-213 0 -338 125t-125 336q0 215 142.5 345t377.5 130zM586 385q104 0 189.5 65.5t113.5 165.5
q-15 154 -91 235t-208 81q-123 0 -197 -76t-74 -201q0 -121 73.5 -195.5t193.5 -74.5z" />
    <glyph glyph-name="zero.osf.zero" horiz-adv-x="1251" 
d="M627 1126q249 0 400 -159t151 -422q0 -261 -150 -418.5t-399 -157.5q-254 0 -404.5 159t-150.5 427q0 259 151 415t402 156zM627 928q-141 0 -223 -101t-82 -276q0 -160 61 -254l422 571q-72 60 -178 60zM629 164q138 0 220.5 102t82.5 275q0 153 -60 250l-419 -572
q70 -55 176 -55z" />
    <glyph glyph-name="one.ss02" horiz-adv-x="1087" 
d="M719 213h338v-213h-973v213h383v848q-94 -94 -301 -94h-68v225h56q148 0 232 60t124 171h209v-1210z" />
    <glyph glyph-name="zero.tf.case" 
d="M635 -31q-539 0 -539 760t539 760t539 -760t-539 -760zM635 164q70 0 121.5 28.5t90.5 92.5t58.5 175t20.5 269q-1 159 -20.5 270t-58.5 175t-90.5 92t-121.5 28t-121.5 -28t-90.5 -92t-58.5 -175t-20.5 -270q1 -158 20.5 -269t58.5 -175t90.5 -92.5t121.5 -28.5z" />
    <glyph glyph-name="one.tf.case" 
d="M805 213h338v-213h-971v213h381v879q-97 -97 -301 -97h-68v226h58q147 0 230.5 61t123.5 172h209v-1241z" />
    <glyph glyph-name="two.tf.case" 
d="M135 0v193q249 182 483 411q119 122 167.5 219t48.5 215q0 117 -57.5 180.5t-160.5 63.5t-162 -64t-59 -174q0 -48 13 -118l-250 24q-11 54 -11 101q0 200 129 319t349 119q222 0 343.5 -116t121.5 -329q0 -142 -67 -272t-210 -272q-160 -153 -356 -289h653v-211h-975z
" />
    <glyph glyph-name="three.tf.case" 
d="M639 -31q-239 0 -377 127t-143 338l252 29q5 -135 74.5 -214t195.5 -79q120 0 185 67t65 187q0 107 -70 170t-200 63h-80v187h75q114 0 175 64t61 167q0 102 -56.5 158.5t-162.5 56.5q-120 0 -185 -79t-65 -222l-244 41q0 211 136.5 335t369.5 124q215 0 337 -106
t122 -287q0 -114 -69 -203.5t-183 -120.5q140 -28 217.5 -122t77.5 -242q0 -197 -138.5 -318t-369.5 -121z" />
    <glyph glyph-name="four.tf.case" 
d="M727 0v356h-647v170l606 928h275v-909h219v-189h-219v-356h-234zM303 545h424v481q0 107 4 199h-2q-28 -80 -94 -181l-244 -378q-9 -13 -25 -37t-23 -34t-18 -24t-22 -26z" />
    <glyph glyph-name="five.tf.case" 
d="M627 -31q-201 0 -335 109.5t-159 294.5l246 35q19 -107 86 -170.5t172 -63.5q123 0 188.5 80t65.5 223q0 152 -64 238t-190 86q-98 0 -162.5 -54.5t-89.5 -154.5l-221 20l86 842h813v-207h-639l-47 -424q98 170 323 170q204 0 320.5 -135t116.5 -371
q0 -235 -137.5 -376.5t-372.5 -141.5z" />
    <glyph glyph-name="six.tf.case" 
d="M705 977q200 0 319 -134.5t119 -357.5q0 -234 -133 -375t-357 -141q-262 0 -400 188t-138 545q0 375 144.5 581t408.5 206q191 0 308 -96t148 -279l-243 -45q-39 221 -219 221q-144 0 -221.5 -129.5t-82.5 -374.5q50 91 141 141t206 50zM651 168q116 0 181 83.5t65 225.5
q0 139 -66.5 222t-181.5 83q-103 0 -178 -65t-109 -185q14 -170 90.5 -267t198.5 -97z" />
    <glyph glyph-name="seven.tf.case" 
d="M369 0v23q0 310 130.5 622t368.5 590h-718v219h983v-194q-239 -260 -363.5 -573.5t-124.5 -643.5v-43h-276z" />
    <glyph glyph-name="eight.tf.case" 
d="M872 799q146 -55 216.5 -148.5t70.5 -244.5q0 -197 -143 -317t-379 -120q-238 0 -381 114.5t-143 303.5q0 278 270 363q-112 52 -167.5 135.5t-55.5 210.5q0 175 130.5 284t342.5 109t339.5 -101.5t127.5 -273.5q0 -236 -228 -315zM627 1311q-103 0 -162 -57.5
t-59 -157.5q0 -85 52 -139t160 -85l74 -20q92 41 131 95.5t39 139.5q0 104 -62.5 164t-172.5 60zM641 160q125 0 196.5 66.5t71.5 181.5q0 92 -55.5 150.5t-169.5 92.5l-123 37q-106 -42 -152.5 -105t-46.5 -161q0 -118 76.5 -190t202.5 -72z" />
    <glyph glyph-name="nine.tf.case" 
d="M604 1487q266 0 402.5 -184.5t136.5 -544.5q0 -178 -31.5 -320t-95 -248t-168 -163.5t-242.5 -57.5q-200 0 -323 101.5t-154 291.5l244 48q20 -113 79.5 -176.5t161.5 -63.5q280 0 283 535q-50 -84 -133 -126t-189 -42q-208 0 -337 123t-129 339q0 215 134.5 351.5
t360.5 136.5zM614 731q96 0 174.5 61.5t106.5 157.5q-4 69 -21 127t-49 108t-87.5 78.5t-129.5 28.5q-115 0 -184.5 -78.5t-69.5 -209.5q0 -123 72.5 -198t187.5 -75z" />
    <glyph glyph-name="zero.tf.case.zero" 
d="M635 1489q539 0 539 -760t-539 -760t-539 760t539 760zM635 1294q-70 0 -121.5 -28t-90.5 -92t-58.5 -175t-20.5 -270q0 -137 21 -266l501 674q-37 83 -94 120t-137 37zM635 164q70 0 121.5 28.5t90.5 92.5t58.5 175t20.5 269q0 144 -19 258l-501 -670q69 -153 229 -153z
" />
    <glyph glyph-name="zero.tosf" 
d="M635 1126q250 0 401.5 -159t151.5 -424q0 -261 -151 -417.5t-400 -156.5q-254 0 -404.5 157.5t-150.5 422.5q0 262 151 419.5t402 157.5zM637 164q138 0 220.5 100.5t82.5 276.5q0 181 -82.5 284t-222.5 103q-139 0 -222 -101.5t-83 -279.5q0 -181 82.5 -282t224.5 -101z
M82 549v2v-2z" />
    <glyph glyph-name="one.tosf" 
d="M801 201h346v-201h-959v201h373v569q-41 -45 -138 -75.5t-177 -30.5h-56v217h41q109 0 219.5 62.5t147.5 152.5h203v-895z" />
    <glyph glyph-name="two.tosf" 
d="M119 156q16 9 137.5 75t179.5 101q219 131 303 222t84 198q0 82 -51.5 129t-142.5 47q-98 0 -155.5 -52t-57.5 -141q0 -57 8 -90l-258 27q-4 62 -4 71q0 170 130 276.5t339 106.5q212 0 330 -93.5t118 -260.5q0 -172 -153 -313q-131 -119 -408 -254h619v-205h-1018v156z
" />
    <glyph glyph-name="three.tosf" 
d="M635 -338q-242 0 -377 115.5t-139 326.5l250 25q5 -132 72.5 -201t195.5 -69q116 0 184 62.5t68 160.5q0 112 -70 176t-203 64h-86v184h82q116 0 177 60t61 157t-56.5 151t-162.5 54q-120 0 -184 -74t-64 -213l-244 39q0 209 134 327.5t366 118.5q223 0 344 -104.5
t121 -290.5q0 -106 -69.5 -188t-186.5 -111q143 -25 221 -118.5t78 -239.5q0 -176 -141.5 -294t-370.5 -118z" />
    <glyph glyph-name="four.tosf" 
d="M737 -307v352h-657v170l612 881h279v-863h223v-188h-223v-352h-234zM307 233h430v453q0 112 4 182h-4q-39 -80 -90 -157l-235 -344q-63 -90 -105 -134z" />
    <glyph glyph-name="five.tosf" 
d="M623 -338q-198 0 -332.5 105t-157.5 280l246 31q19 -98 86.5 -155.5t163.5 -57.5q125 0 193.5 84t68.5 215q0 139 -65.5 217t-174.5 78q-96 6 -168.5 -49t-97.5 -150l-225 23l86 813h831v-207h-651l-49 -406q50 83 136 128.5t196 45.5q200 0 314 -130t114 -351
q0 -224 -138.5 -369t-375.5 -145z" />
    <glyph glyph-name="six.tosf" 
d="M705 954q201 0 319.5 -130.5t118.5 -350.5q0 -227 -135 -365.5t-355 -138.5q-262 0 -400 183.5t-138 531.5q0 367 144.5 568.5t408.5 201.5q191 0 308 -92.5t148 -269.5l-243 -45q-39 208 -219 208q-144 0 -221.5 -125.5t-82.5 -363.5q49 90 140 139t207 49zM651 168
q112 0 179 81t67 218q0 134 -66.5 214.5t-181.5 80.5q-102 0 -178 -64.5t-109 -183.5q15 -161 91.5 -253.5t197.5 -92.5z" />
    <glyph glyph-name="seven.tosf" 
d="M369 -307v22q0 594 499 1162h-718v219h983v-195q-488 -521 -488 -1165v-43h-276z" />
    <glyph glyph-name="eight.tosf" 
d="M872 778q146 -56 216.5 -148t70.5 -243q0 -189 -143 -303.5t-379 -114.5q-238 0 -381 109.5t-143 292.5q0 280 272 358q-113 54 -169 136t-56 208q0 170 130.5 275.5t342.5 105.5t339.5 -97.5t127.5 -264.5q0 -234 -228 -314zM627 1276q-103 0 -162 -54t-59 -149
q0 -83 51.5 -134.5t160.5 -86.5l76 -21q90 41 129 95.5t39 138.5q0 100 -62.5 155.5t-172.5 55.5zM641 160q124 0 196 62t72 169q0 91 -55 148.5t-170 93.5l-123 37q-107 -44 -153 -105.5t-46 -158.5q0 -110 76.5 -178t202.5 -68z" />
    <glyph glyph-name="nine.tosf" 
d="M604 1126q267 0 403 -182t136 -534q0 -135 -19.5 -248t-61 -206t-104 -158t-152 -100.5t-200.5 -35.5q-203 0 -324.5 95t-152.5 276l244 49q41 -219 241 -219q280 0 283 493q-97 -166 -322 -166q-208 0 -337 122.5t-129 338.5q0 211 135.5 343t359.5 132zM614 385
q96 0 174.5 61.5t106.5 155.5q-5 66 -22 122t-49.5 104.5t-87.5 76t-128 27.5q-115 0 -184.5 -76t-69.5 -201q0 -123 72.5 -196.5t187.5 -73.5z" />
    <glyph glyph-name="zero.tosf.zero" 
d="M635 1126q250 0 401.5 -159t151.5 -424q0 -261 -151 -417.5t-400 -156.5q-254 0 -404.5 157.5t-150.5 422.5q0 262 151 419.5t402 157.5zM635 928q-139 0 -222 -101.5t-83 -279.5q0 -157 61 -252l424 573q-75 60 -180 60zM637 164q138 0 220.5 100.5t82.5 276.5
q0 155 -59 250l-420 -574q74 -53 176 -53zM82 549v2v-2z" />
    <glyph glyph-name="zero.subs" horiz-adv-x="1060" 
d="M530 -309q-214 0 -331 141.5t-117 398.5q0 258 117 400.5t331 142.5t332.5 -143t118.5 -400q0 -256 -118.5 -398t-332.5 -142zM530 -143q109 0 168.5 96t59.5 278q0 183 -59.5 280t-168.5 97t-168 -96.5t-59 -280.5q0 -182 59 -278t168 -96z" />
    <glyph glyph-name="one.subs" horiz-adv-x="692" 
d="M297 -287v744q-32 -33 -84.5 -51.5t-112.5 -18.5h-37v195h25q96 0 156.5 41.5t91.5 128.5h172v-1039h-211z" />
    <glyph glyph-name="two.subs" horiz-adv-x="937" 
d="M72 -287v158q73 45 125 78.5t113.5 76.5t103 78t83 77.5t66 81.5t40 83.5t15.5 89.5q0 82 -41.5 126t-117.5 44q-79 0 -123.5 -44.5t-44.5 -121.5q0 -32 10 -84l-219 19q-8 58 -8 84q0 145 106 230t289 85q180 0 278.5 -83.5t98.5 -237.5q0 -88 -38 -171t-107.5 -154.5
t-151.5 -130.5t-184 -114h497v-170h-790z" />
    <glyph glyph-name="three.subs" horiz-adv-x="960" 
d="M475 -309q-189 0 -299 90t-113 246l218 20q3 -90 54 -141t140 -51q87 0 133.5 42.5t46.5 120.5q0 73 -51.5 112.5t-148.5 39.5h-66v143h60q87 0 134.5 40.5t47.5 111.5q0 69 -43.5 108t-120.5 39q-87 0 -132.5 -50.5t-45.5 -143.5l-213 24q0 154 106.5 243t292.5 89
q180 0 277.5 -75t97.5 -212q0 -88 -58.5 -152t-156.5 -83q118 -15 182 -80t64 -170q0 -144 -109.5 -227.5t-296.5 -83.5z" />
    <glyph glyph-name="four.subs" horiz-adv-x="960" 
d="M913 -49h-161v-238h-209v238h-504v147l477 654h236v-643h161v-158zM543 561l-316 -452h316v452z" />
    <glyph glyph-name="five.subs" horiz-adv-x="952" 
d="M471 -309q-162 0 -267.5 76.5t-125.5 209.5l207 31q14 -70 62 -110.5t122 -40.5q91 0 143 54.5t52 149.5t-50 151t-137 56q-70 0 -118.5 -36.5t-65.5 -100.5l-195 16l64 605h657v-168h-497l-33 -277q75 117 248 117q158 0 249 -95t91 -261q0 -173 -109.5 -275
t-296.5 -102z" />
    <glyph glyph-name="six.subs" horiz-adv-x="966" 
d="M565 416q151 0 241.5 -94.5t90.5 -258.5q0 -163 -109 -267.5t-280 -104.5q-203 0 -317.5 136.5t-114.5 389.5q0 258 114.5 407.5t317.5 149.5q325 0 369 -268l-201 -33q-32 145 -170 145q-103 0 -160 -89.5t-63 -262.5q77 150 282 150zM504 -145q88 0 138 53.5t50 146.5
q0 92 -53 147.5t-139 55.5q-72 0 -127.5 -41.5t-81.5 -116.5q34 -245 213 -245z" />
    <glyph glyph-name="seven.subs" horiz-adv-x="849" 
d="M213 -287v19q0 230 101.5 444.5t285.5 396.5h-545v179h758v-166q-179 -177 -271.5 -380.5t-92.5 -453.5v-39h-236z" />
    <glyph glyph-name="eight.subs" horiz-adv-x="983" 
d="M690 285q118 -40 173 -110t55 -179q0 -140 -116.5 -222.5t-312.5 -82.5q-193 0 -308 79.5t-115 211.5q0 99 53 161t166 93q-98 40 -142.5 101t-44.5 155q0 128 105 205t278 77q178 0 282.5 -71t104.5 -191q0 -86 -43 -141t-135 -86zM483 629q-85 0 -132.5 -36t-47.5 -101
q0 -57 42.5 -94t137.5 -60l66 -16q62 26 89.5 63.5t27.5 93.5q0 71 -48.5 110.5t-134.5 39.5zM494 -154q95 0 149.5 43t54.5 115q0 63 -44.5 103t-143.5 65l-80 21q-143 -53 -143 -181q0 -76 56 -121t151 -45z" />
    <glyph glyph-name="nine.subs" horiz-adv-x="966" 
d="M467 774q205 0 314.5 -132t109.5 -394q0 -265 -106.5 -411t-321.5 -146q-157 0 -254 70.5t-119 201.5l201 35q14 -68 61 -108t121 -40q199 0 211 349q-39 -57 -107 -86t-151 -29q-161 0 -258.5 92t-97.5 246q0 158 107 255t290 97zM467 240q70 0 127 33.5t86 93.5
q-12 127 -63.5 189t-147.5 62q-89 0 -142 -52.5t-53 -137.5q0 -83 53.5 -135.5t139.5 -52.5z" />
    <glyph glyph-name="zero.dnom" horiz-adv-x="841" 
d="M422 -16q-167 0 -260.5 108t-93.5 303t93 304.5t259 109.5q167 0 260.5 -109.5t93.5 -306.5q0 -194 -92.5 -301.5t-259.5 -107.5zM422 119q84 0 129 70t45 204q0 136 -45.5 208.5t-130.5 72.5q-83 0 -127.5 -72.5t-44.5 -206.5q0 -276 174 -276z" />
    <glyph glyph-name="one.dnom" horiz-adv-x="552" 
d="M236 0v555q-54 -51 -152 -51h-31v155h21q146 0 192 132h137v-791h-167z" />
    <glyph glyph-name="two.dnom" horiz-adv-x="747" 
d="M61 0v127q68 40 112.5 67.5t99.5 64.5t89 68.5t65 68.5t45.5 75t14.5 78q0 59 -31 90t-89 31q-62 0 -95.5 -31.5t-33.5 -89.5q0 -24 10 -62l-178 15q-7 35 -7 63q0 113 83 178.5t229 65.5q139 0 217 -65t78 -183q0 -70 -32.5 -136t-90 -119t-118 -93t-132.5 -76h383v-137
h-619z" />
    <glyph glyph-name="three.dnom" horiz-adv-x="761" 
d="M377 -16q-148 0 -234.5 68t-87.5 188l174 16q0 -66 40 -102.5t110 -36.5q135 0 135 116q0 105 -154 105h-63v125h59q67 0 102.5 28t35.5 78q0 52 -32.5 79.5t-92.5 27.5q-64 0 -101 -38t-37 -106l-170 21q0 117 86 186.5t232 69.5q139 0 216 -58t77 -161
q0 -68 -45.5 -117.5t-120.5 -62.5q90 -12 140 -61t50 -130q0 -109 -86 -172t-233 -63z" />
    <glyph glyph-name="four.dnom" horiz-adv-x="765" 
d="M723 176h-125v-176h-168v176h-391v121l369 494h190v-488h125v-127zM430 631l-242 -328h242v328z" />
    <glyph glyph-name="five.dnom" horiz-adv-x="753" 
d="M375 -16q-127 0 -210 58t-102 159l168 26q11 -51 48 -80.5t92 -29.5q70 0 108.5 39t38.5 108q0 70 -37.5 112t-103.5 42q-52 0 -89.5 -27.5t-51.5 -73.5l-154 13l53 461h512v-138h-389l-25 -196q60 84 193 84q123 0 193.5 -72.5t70.5 -198.5q0 -133 -84.5 -209.5
t-230.5 -76.5z" />
    <glyph glyph-name="six.dnom" horiz-adv-x="772" 
d="M449 535q118 0 188 -72t70 -197t-84 -203.5t-220 -78.5q-159 0 -247 104t-88 295q0 197 89 311.5t249 114.5q249 0 288 -211l-164 -25q-21 103 -129 103q-79 0 -124 -67t-48 -193q61 119 220 119zM399 113q67 0 106.5 39.5t39.5 105.5q0 68 -40 110t-106 42
q-57 0 -99 -30.5t-64 -86.5q29 -180 163 -180z" />
    <glyph glyph-name="seven.dnom" horiz-adv-x="679" 
d="M51 647v144h592v-134q-280 -267 -283 -637v-20h-190v10q3 173 83.5 340.5t215.5 296.5h-418z" />
    <glyph glyph-name="eight.dnom" horiz-adv-x="782" 
d="M551 434q174 -58 174 -215q0 -107 -92 -171t-246 -64q-151 0 -240.5 60t-89.5 161q0 75 40 121t126 71q-141 57 -141 193q0 97 83 158t218 61q138 0 221.5 -54t83.5 -147q0 -66 -33 -107.5t-104 -66.5zM383 690q-62 0 -99.5 -26.5t-37.5 -73.5q0 -44 35 -70.5t104 -42.5
l51 -12q47 20 67.5 47.5t20.5 69.5q0 51 -37.5 79.5t-103.5 28.5zM391 109q73 0 115.5 30t42.5 82q0 90 -143 123l-66 18q-56 -22 -81.5 -53.5t-25.5 -79.5q0 -56 42.5 -88t115.5 -32z" />
    <glyph glyph-name="nine.dnom" horiz-adv-x="772" 
d="M373 809q161 0 246.5 -101t85.5 -300q0 -203 -83.5 -313.5t-252.5 -110.5q-123 0 -198.5 54t-92.5 155l162 30q26 -106 139 -106q148 0 160 241q-76 -79 -199 -79q-124 0 -200.5 71t-76.5 187q0 121 84 196.5t226 75.5zM373 406q106 0 164 90q-11 94 -50 139t-112 45
q-67 0 -107.5 -37.5t-40.5 -99.5t40 -99.5t106 -37.5z" />
    <glyph glyph-name="zero.numr" horiz-adv-x="841" 
d="M422 649q-167 0 -260.5 108.5t-93.5 303.5t93 304.5t259 109.5q167 0 260.5 -109.5t93.5 -306.5q0 -194 -92.5 -302t-259.5 -108zM422 784q84 0 129 70.5t45 204.5q0 136 -45.5 208t-130.5 72q-83 0 -127.5 -72t-44.5 -206q0 -277 174 -277z" />
    <glyph glyph-name="one.numr" horiz-adv-x="552" 
d="M236 666v555q-55 -52 -152 -52h-31v156h21q146 0 192 131h137v-790h-167z" />
    <glyph glyph-name="two.numr" horiz-adv-x="747" 
d="M61 666v127q84 49 135 81t113 77.5t96 83t58 84.5t24 95q0 59 -31 90t-89 31q-62 0 -95.5 -31.5t-33.5 -89.5q0 -23 10 -61l-178 14q-7 35 -7 64q0 113 83 178.5t229 65.5q139 0 217 -65t78 -183q0 -70 -32.5 -136t-90 -119t-118 -93t-132.5 -76h383v-137h-619z" />
    <glyph glyph-name="three.numr" horiz-adv-x="761" 
d="M377 649q-148 0 -234.5 68t-87.5 188l174 17q0 -66 40.5 -103t109.5 -37q135 0 135 117q0 105 -154 105h-63v124h59q67 0 102.5 28.5t35.5 78.5q0 52 -32.5 79t-92.5 27q-64 0 -101 -37.5t-37 -105.5l-170 21q0 117 86 186.5t232 69.5q139 0 216 -58.5t77 -161.5
q0 -68 -45.5 -117.5t-120.5 -62.5q91 -12 140.5 -60.5t49.5 -129.5q0 -109 -86.5 -172.5t-232.5 -63.5z" />
    <glyph glyph-name="four.numr" horiz-adv-x="765" 
d="M723 842h-125v-176h-168v176h-391v121l369 493h190v-487h125v-127zM430 1296l-242 -327h242v327z" />
    <glyph glyph-name="five.numr" horiz-adv-x="753" 
d="M375 649q-127 0 -210 58t-102 159l168 27q11 -51 48 -81t92 -30q70 0 108.5 39.5t38.5 108.5q0 70 -37 111.5t-104 41.5q-52 0 -89.5 -27t-51.5 -73l-154 12l53 461h512v-137h-389l-25 -197q60 84 193 84q123 0 193.5 -72t70.5 -198q0 -133 -84.5 -210t-230.5 -77z" />
    <glyph glyph-name="six.numr" horiz-adv-x="772" 
d="M449 1200q118 0 188 -71.5t70 -196.5t-84 -204t-220 -79q-159 0 -247 104.5t-88 295.5q0 197 89 311.5t249 114.5q249 0 288 -211l-164 -25q-21 102 -129 102q-79 0 -124 -67t-48 -193q61 119 220 119zM399 778q67 0 106.5 40t39.5 106q0 68 -40 109.5t-106 41.5
q-57 0 -99 -30.5t-64 -86.5q29 -180 163 -180z" />
    <glyph glyph-name="seven.numr" horiz-adv-x="679" 
d="M51 1313v143h592v-133q-280 -267 -283 -637v-20h-190v10q3 173 83.5 340.5t215.5 296.5h-418z" />
    <glyph glyph-name="eight.numr" horiz-adv-x="782" 
d="M551 1100q174 -58 174 -215q0 -107 -92 -171.5t-246 -64.5q-151 0 -240.5 60t-89.5 161q0 75 40 121.5t126 71.5q-141 57 -141 192q0 97 83.5 158.5t217.5 61.5q138 0 221.5 -54t83.5 -147q0 -66 -33 -107.5t-104 -66.5zM383 1356q-62 0 -99.5 -27t-37.5 -74
q0 -44 34.5 -70t104.5 -42l51 -13q47 20 67.5 47.5t20.5 69.5q0 51 -37.5 80t-103.5 29zM391 774q72 0 115 30.5t43 82.5q0 90 -143 123l-66 18q-56 -22 -81.5 -53.5t-25.5 -79.5q0 -56 42.5 -88.5t115.5 -32.5z" />
    <glyph glyph-name="nine.numr" horiz-adv-x="772" 
d="M373 1475q161 0 246.5 -101.5t85.5 -300.5q0 -203 -83.5 -313.5t-252.5 -110.5q-123 0 -198.5 54t-92.5 155l162 31q26 -107 139 -107q148 0 160 242q-77 -80 -199 -80q-124 0 -200.5 71t-76.5 187q0 121 84 197t226 76zM373 1071q106 0 164 90q-11 94 -50 139.5
t-112 45.5q-67 0 -107.5 -38t-40.5 -100t40 -99.5t106 -37.5z" />
    <glyph glyph-name="zero.sups" horiz-adv-x="1060" 
d="M530 612q-213 0 -330.5 142t-117.5 399q0 258 117 400.5t331 142.5t332.5 -143t118.5 -400q0 -256 -118.5 -398.5t-332.5 -142.5zM530 778q109 0 168.5 96.5t59.5 278.5q0 183 -59.5 280t-168.5 97t-168 -96.5t-59 -280.5q0 -182 59 -278.5t168 -96.5z" />
    <glyph glyph-name="one.sups" horiz-adv-x="692" 
d="M297 635v743q-66 -69 -197 -69h-37v194h25q96 0 156.5 41.5t91.5 128.5h172v-1038h-211z" />
    <glyph glyph-name="two.sups" horiz-adv-x="937" 
d="M72 635v158q73 45 125 78.5t113.5 76.5t103 78t83 77.5t66 81.5t40 83.5t15.5 89.5q0 82 -41.5 126t-117.5 44q-79 0 -123.5 -44.5t-44.5 -121.5q0 -32 10 -84l-219 18q-8 58 -8 84q0 145 106 230.5t289 85.5q180 0 278.5 -84t98.5 -238q0 -87 -38 -170.5t-107.5 -154.5
t-151.5 -130t-184 -114h497v-170h-790z" />
    <glyph glyph-name="three.sups" horiz-adv-x="960" 
d="M475 612q-189 0 -299 90t-113 246l218 21q3 -90 54 -140.5t140 -50.5q87 0 133.5 42t46.5 120q0 73 -51.5 112.5t-148.5 39.5h-66v143h60q87 0 134.5 40t47.5 111q0 69 -44 108.5t-120 39.5q-87 0 -132.5 -51t-45.5 -144l-213 25q0 154 106.5 243t292.5 89
q180 0 277.5 -75t97.5 -212q0 -88 -58.5 -152t-156.5 -83q118 -15 182 -80t64 -170q0 -144 -109.5 -228t-296.5 -84z" />
    <glyph glyph-name="four.sups" horiz-adv-x="960" 
d="M913 872h-161v-237h-209v237h-504v148l477 653h236v-643h161v-158zM543 1483l-316 -453h316v453z" />
    <glyph glyph-name="five.sups" horiz-adv-x="952" 
d="M471 612q-162 0 -267.5 77t-125.5 210l207 31q14 -70 62 -110t122 -40q91 0 143 54t52 149t-50 151t-137 56q-70 0 -118.5 -36.5t-65.5 -100.5l-195 16l64 604h657v-168h-497l-33 -276q75 117 248 117q158 0 249 -95.5t91 -261.5q0 -173 -109.5 -275t-296.5 -102z" />
    <glyph glyph-name="six.sups" horiz-adv-x="966" 
d="M565 1337q151 0 241.5 -94t90.5 -258q0 -163 -109 -268t-280 -105q-203 0 -317.5 137t-114.5 390q0 258 114.5 407.5t317.5 149.5q325 0 369 -269l-201 -32q-32 145 -170 145q-103 0 -160 -89.5t-63 -262.5q76 149 282 149zM504 776q87 0 137.5 54t50.5 147
q0 92 -53 147.5t-139 55.5q-72 0 -127.5 -41.5t-81.5 -116.5q34 -246 213 -246z" />
    <glyph glyph-name="seven.sups" horiz-adv-x="849" 
d="M213 635v18q0 230 101.5 445t285.5 397h-545v178h758v-166q-179 -177 -271.5 -380.5t-92.5 -452.5v-39h-236z" />
    <glyph glyph-name="eight.sups" horiz-adv-x="983" 
d="M690 1206q118 -40 173 -109.5t55 -178.5q0 -139 -116.5 -222.5t-312.5 -83.5q-193 0 -308 79.5t-115 211.5q0 99 53 161t166 93q-98 40 -142.5 101t-44.5 155q0 128 105 205.5t278 77.5q178 0 282.5 -71t104.5 -191q0 -87 -43 -142t-135 -86zM483 1550q-85 0 -132.5 -36
t-47.5 -101q0 -57 42.5 -93.5t137.5 -59.5l66 -17q62 26 89.5 64t27.5 94q0 70 -48.5 109.5t-134.5 39.5zM494 768q94 0 149 43.5t55 114.5q0 63 -44.5 103t-143.5 65l-80 20q-74 -28 -108.5 -71.5t-34.5 -108.5q0 -76 56 -121t151 -45z" />
    <glyph glyph-name="nine.sups" horiz-adv-x="966" 
d="M467 1696q205 0 314.5 -132.5t109.5 -394.5q0 -265 -106.5 -411t-321.5 -146q-157 0 -254 70.5t-119 202.5l201 35q14 -68 61 -108t121 -40q199 0 211 348q-38 -57 -106.5 -85.5t-151.5 -28.5q-162 0 -259 92t-97 245q0 158 107 255.5t290 97.5zM467 1161q70 0 127 33.5
t86 93.5q-12 127 -63.5 189.5t-147.5 62.5q-89 0 -142 -52.5t-53 -137.5q0 -84 53.5 -136.5t139.5 -52.5z" />
    <glyph glyph-name="colon.case" horiz-adv-x="552" 
d="M422 1126v-284h-291v284h291zM422 285v-285h-291v285h291z" />
    <glyph glyph-name="semicolon.case" horiz-adv-x="552" 
d="M422 1126v-284h-291v284h291zM199 -301l-56 111q80 31 106.5 70t26.5 114v6h-145v285h291v-269q0 -127 -50 -200t-173 -117z" />
    <glyph glyph-name="exclamdown.case" horiz-adv-x="653" 
d="M467 1223h-281v262h281v-262zM233 1065h187l53 -1065h-293z" />
    <glyph glyph-name="questiondown.case" horiz-adv-x="1017" 
d="M666 1475v-263h-279v263h279zM649 1067v-92q0 -66 -25.5 -126.5t-97.5 -123.5l-102 -88q-63 -52 -98 -111.5t-35 -140.5q0 -92 58 -145.5t163 -53.5q109 0 173.5 62t64.5 176q0 53 -13 104l248 -24q12 -59 12 -115q0 -182 -129.5 -292.5t-359.5 -110.5q-225 0 -351 100.5
t-126 284.5q0 195 192 362l99 86q48 42 67 84t19 107v57h241z" />
    <glyph glyph-name="periodcentered.case" horiz-adv-x="552" 
d="M422 907v-286h-291v286h291z" />
    <glyph glyph-name="bullet.case" horiz-adv-x="714" 
d="M356 541q-98 0 -161.5 62t-63.5 159q0 102 63.5 164.5t161.5 62.5q101 0 164.5 -62t63.5 -165q0 -98 -64 -159.5t-164 -61.5z" />
    <glyph glyph-name="slash.case" horiz-adv-x="976" 
d="M309 -176h-219l578 1796h219z" />
    <glyph glyph-name="backslash.case" horiz-adv-x="976" 
d="M668 -176l-578 1796h219l578 -1796h-219z" />
    <glyph glyph-name="asterisk.ss04" horiz-adv-x="573" 
d="M289 1454l-64 -190h-198l161 -117l-61 -191l162 117l162 -117l-64 191l162 117h-199z" />
    <glyph glyph-name="period.tf" horiz-adv-x="634" 
d="M463 285v-285h-291v285h291z" />
    <glyph glyph-name="comma.tf" horiz-adv-x="634" 
d="M240 -301l-56 111q79 31 106 70.5t27 113.5v6h-145v285h291v-269q0 -127 -50 -200t-173 -117z" />
    <glyph glyph-name="colon.tf" horiz-adv-x="634" 
d="M463 1024v-285h-291v285h291zM463 285v-285h-291v285h291z" />
    <glyph glyph-name="semicolon.tf" horiz-adv-x="634" 
d="M463 1024v-285h-291v285h291zM240 -301l-56 111q79 31 106 70.5t27 113.5v6h-145v285h291v-269q0 -127 -50 -200t-173 -117z" />
    <glyph glyph-name="slash.tf" 
d="M455 -240h-219l577 1796h219z" />
    <glyph glyph-name="parenleft.case" horiz-adv-x="673" 
d="M477 -225q-170 198 -265 445.5t-95 512.5q0 266 95.5 503.5t266.5 426.5l180 -82q-159 -206 -232 -409.5t-73 -442.5q0 -240 73.5 -449.5t231.5 -418.5z" />
    <glyph glyph-name="parenright.case" horiz-adv-x="673" 
d="M197 -225l-183 86q158 209 231.5 418.5t73.5 449.5q0 239 -73 442.5t-232 409.5l181 82q171 -189 266.5 -426.5t95.5 -503.5q0 -265 -95 -512.5t-265 -445.5z" />
    <glyph glyph-name="braceleft.case" horiz-adv-x="753" 
d="M571 -172q-157 0 -238 78.5t-81 224.5v307q0 109 -30 159.5t-124 53.5v176q41 1 68.5 10t44 23.5t25.5 41.5t11.5 55.5t2.5 74.5v301q0 137 90.5 219t251.5 82h92v-174h-45q-81 0 -121.5 -46t-40.5 -126v-241q0 -61 -7.5 -107t-26 -87.5t-53 -69.5t-85.5 -42
q50 -18 84.5 -49t52.5 -74.5t25.5 -90t7.5 -105.5v-252q0 -79 39 -123.5t113 -44.5h63v-174h-119z" />
    <glyph glyph-name="braceright.case" horiz-adv-x="753" 
d="M182 -172h-119v174h62q74 0 114 44.5t40 123.5v252q0 59 7.5 105.5t25.5 90t52.5 74.5t84.5 49q-51 14 -86 42t-53.5 69.5t-26 87.5t-7.5 107v241q0 80 -40.5 126t-122.5 46h-43v174h92q161 0 251.5 -82t90.5 -219v-301q0 -46 2.5 -74t11 -55.5t25 -42t44 -23.5t68.5 -10
v-176q-94 -3 -123.5 -53.5t-29.5 -159.5v-307q0 -146 -82 -224.5t-238 -78.5z" />
    <glyph glyph-name="bracketleft.case" horiz-adv-x="706" 
d="M180 -158v1784h463v-182h-240v-1417h240v-185h-463z" />
    <glyph glyph-name="bracketright.case" horiz-adv-x="706" 
d="M526 -158h-463v185h240v1417h-240v182h463v-1784z" />
    <glyph glyph-name="parenleft.tf" 
d="M723 -287q-169 197 -263.5 445.5t-94.5 513.5q0 266 95.5 503.5t266.5 426.5l178 -82q-158 -205 -230.5 -409t-72.5 -443q0 -241 73 -451t230 -418z" />
    <glyph glyph-name="parenright.tf" 
d="M547 -287l-182 86q157 208 230 418t73 451q0 239 -72.5 443t-230.5 409l180 82q170 -189 265 -426.5t95 -503.5q0 -265 -94.5 -513.5t-263.5 -445.5z" />
    <glyph glyph-name="hyphen.case" horiz-adv-x="821" 
d="M96 836h629v-218h-629v218z" />
    <glyph glyph-name="endash.case" horiz-adv-x="1153" 
d="M96 817h961v-180h-961v180z" />
    <glyph glyph-name="emdash.case" horiz-adv-x="1687" 
d="M96 817h1495v-180h-1495v180z" />
    <glyph glyph-name="underscore.case" horiz-adv-x="915" 
d="M0 -35h915v-151h-915v151z" />
    <glyph glyph-name="hyphen.tf" 
d="M217 678h834v-217h-834v217z" />
    <glyph glyph-name="underscore.tf" 
d="M0 -190h1270v-152h-1270v152z" />
    <glyph glyph-name="guillemotleft.case" horiz-adv-x="1093" 
d="M391 295l-342 428l346 424h230l-336 -424l334 -428h-232zM821 295l-342 428l346 424h230l-336 -424l336 -428h-234z" />
    <glyph glyph-name="guillemotright.case" horiz-adv-x="1093" 
d="M272 295h-233l336 428l-336 424h229l346 -424zM702 295h-231l334 428l-336 424h229l346 -424z" />
    <glyph glyph-name="guilsinglleft.case" horiz-adv-x="663" 
d="M391 295l-342 428l346 424h230l-336 -424l334 -428h-232z" />
    <glyph glyph-name="guilsinglright.case" horiz-adv-x="663" 
d="M272 295h-233l336 428l-336 424h229l346 -424z" />
    <glyph glyph-name="parenleft.subs" horiz-adv-x="575" 
d="M399 -492q-127 143 -197.5 321t-70.5 374q0 380 268 674l162 -58q-117 -143 -173 -292.5t-56 -323.5q0 -346 229 -635z" />
    <glyph glyph-name="parenright.subs" horiz-adv-x="575" 
d="M178 -492l-164 62q230 288 230 633q0 174 -56 323.5t-174 292.5l162 58q268 -294 268 -674q0 -194 -70 -373t-196 -322z" />
    <glyph glyph-name="parenleft.sups" horiz-adv-x="575" 
d="M399 430q-127 142 -197.5 321t-70.5 373q0 380 268 674l162 -57q-117 -143 -173 -293t-56 -324q0 -346 229 -632z" />
    <glyph glyph-name="parenright.sups" horiz-adv-x="575" 
d="M178 430l-164 62q117 147 173.5 301t56.5 331q0 174 -56 324t-174 293l162 57q268 -294 268 -674q0 -194 -70 -372.5t-196 -321.5z" />
    <glyph glyph-name="uni0E3F.case" horiz-adv-x="1347" 
d="M967 762q140 -23 214 -110.5t74 -231.5q0 -199 -128 -309.5t-355 -110.5h-45v-178h-115v178h-432v1454h432v156h115v-156h10q227 0 353.5 -99t126.5 -282q0 -119 -65 -199.5t-185 -111.5zM422 1264v-430h190v430h-190zM961 1051q0 201 -234 213v-430q114 6 174 61t60 156
zM422 188h190v476h-190v-476zM733 188q127 0 196.5 66t69.5 188q0 105 -66 163.5t-185 58.5h-21v-476h6z" />
    <glyph glyph-name="currency.case" horiz-adv-x="1140" 
d="M1047 723q0 -168 -93 -295l111 -123l-113 -104l-114 123q-110 -72 -258 -72q-153 0 -271 76l-119 -129l-112 104l119 131q-88 125 -88 289q0 168 90 291l-121 131l112 104l121 -129q118 76 269 76q144 0 256 -70l116 125l113 -104l-115 -125q97 -127 97 -299zM580 436
q116 0 190 80t74 207t-74 207t-190 80q-118 0 -194.5 -80t-76.5 -207t76.5 -207t194.5 -80z" />
    <glyph glyph-name="dollar.case" horiz-adv-x="1257" 
d="M1194 408q0 -185 -135.5 -304.5t-364.5 -134.5v-147h-127v147q-202 14 -341.5 113.5t-194.5 275.5l217 99q95 -255 319 -285v494l-55 12q-209 46 -308.5 147.5t-99.5 266.5q0 167 126 274t337 121v149h127v-149q169 -15 289 -100t180 -232l-205 -111q-76 207 -264 246
v-426l51 -10q235 -52 342 -155.5t107 -290.5zM344 1098q0 -78 51 -125.5t172 -79.5v403q-105 -8 -164 -58t-59 -140zM694 168q121 9 188.5 69t67.5 162q0 98 -58 151t-198 87v-469z" />
    <glyph glyph-name="Euro.case" horiz-adv-x="1357" 
d="M1106 401l217 -92q-77 -162 -219.5 -251t-341.5 -89q-257 0 -416.5 150t-206.5 407h-116v129h100q-4 62 -4 97q0 41 2 59h-98v131h110q43 260 206.5 403.5t428.5 143.5q399 0 543 -318l-219 -96q-104 207 -334 207q-149 0 -241.5 -88t-125.5 -252h606v-131h-620
q-2 -18 -2 -57q0 -37 4 -99h618v-129h-598q39 -164 136 -257t237 -93q106 0 193 58.5t141 166.5z" />
    <glyph glyph-name="uni20BA.case" horiz-adv-x="1171" 
d="M934 500l219 -43q-16 -69 -39.5 -128t-67.5 -121.5t-103 -106.5t-149 -72.5t-200 -28.5h-399v543l-146 -43v137l146 43v160l-146 -43v139l146 43v475h251v-401l463 135v-139l-463 -136v-159l463 135v-137l-463 -136v-415h115q89 0 156 25.5t109 71.5t66.5 93.5
t41.5 108.5z" />
    <glyph glyph-name="uni20BD.case" horiz-adv-x="1222" 
d="M668 571h-219v-172h307v-127h-307v-272h-252v272h-156v127h156v172h-156v172h156v711h483q232 0 370 -118t138 -320q0 -205 -139 -325t-381 -120zM449 1255v-512h194q128 0 202.5 71.5t74.5 189.5q0 119 -74 185t-203 66h-194z" />
    <glyph glyph-name="uni20B9.case" horiz-adv-x="1138" 
d="M1124 1454v-162h-360q109 -86 127 -239h233v-127h-233q-20 -164 -139 -260.5t-316 -106.5l461 -559h-283l-477 586v133h213q120 0 191 52.5t90 154.5h-494v127h496q-14 116 -86 177.5t-193 61.5h-217v162h987z" />
    <glyph glyph-name="sterling.case" horiz-adv-x="1290" 
d="M1047 377l225 -39q-25 -172 -125.5 -270.5t-255.5 -98.5q-93 0 -236.5 27t-255.5 27q-149 0 -319 -39l-51 157q288 88 288 365q0 92 -12 166h-219v143h193q-29 153 -29 232q0 206 123 324t338 118q192 0 310 -86t153 -252l-240 -55q-41 200 -221 200q-106 0 -159.5 -62.5
t-53.5 -180.5q0 -86 28 -238h373v-143h-348q8 -78 8 -127q0 -243 -205 -348q55 16 152 16q67 0 176 -15.5t178 -15.5q77 0 126 51t59 144z" />
    <glyph glyph-name="uni0E3F.tf.case" 
d="M870 752q137 -22 213 -111t76 -227q0 -202 -125 -308t-346 -106h-12v-190h-113v190h-387v1454h387v166h113v-166q210 -5 328 -101t118 -280q0 -117 -67 -202t-185 -119zM563 1274h-166v-451h166v451zM889 1053q0 110 -52.5 161.5t-160.5 57.5v-447q105 9 159 67t54 161z
M397 178h166v473h-166v-473zM676 178q250 6 250 258q0 103 -64 159t-182 56h-4v-473z" />
    <glyph glyph-name="currency.tf.case" 
d="M1112 723q0 -170 -94 -297l110 -121l-112 -104l-113 121q-115 -70 -260 -70q-152 0 -270 76l-119 -129l-113 104l121 133q-88 122 -88 287q0 164 88 289l-121 133l113 104l121 -129q118 76 268 76q142 0 256 -68l117 123l112 -104l-112 -123q96 -126 96 -301zM643 436
q116 0 191 80t75 207t-75 207t-191 80q-117 0 -192.5 -80t-75.5 -207t75.5 -207t192.5 -80z" />
    </font>
</defs>
</svg>
